<mxfile host="app.diagrams.net" agent="Mozilla/5.0 (Macintosh; Intel Mac OS X 10_15_7) AppleWebKit/605.1.15 (KHTML, like Gecko) Version/17.4.1 Safari/605.1.15" version="24.8.6">
  <diagram name="Page-1" id="wHYlFKqE5rf4SIEUs7Aj">
    <mxGraphModel dx="7666" dy="5243" grid="1" gridSize="10" guides="1" tooltips="1" connect="1" arrows="1" fold="1" page="1" pageScale="1" pageWidth="827" pageHeight="1169" math="0" shadow="0">
      <root>
        <mxCell id="0" />
        <mxCell id="1" parent="0" />
        <mxCell id="5j2f0lEpQaipbK5LPEMK-1" value="Communication service" style="swimlane;html=1;startSize=20;fontStyle=0;collapsible=0;horizontal=0;swimlaneLine=1;swimlaneFillColor=#ffffff;strokeWidth=1;whiteSpace=wrap;" parent="1" vertex="1">
          <mxGeometry x="-1635" y="-310" width="1295" height="240" as="geometry" />
        </mxCell>
        <mxCell id="5j2f0lEpQaipbK5LPEMK-19" value="Filter out users that are not in the location of the emergency" style="points=[[0.25,0,0],[0.5,0,0],[0.75,0,0],[1,0.25,0],[1,0.5,0],[1,0.75,0],[0.75,1,0],[0.5,1,0],[0.25,1,0],[0,0.75,0],[0,0.5,0],[0,0.25,0]];shape=mxgraph.bpmn.task;whiteSpace=wrap;rectStyle=rounded;size=10;html=1;container=1;expand=0;collapsible=0;taskMarker=service;" parent="5j2f0lEpQaipbK5LPEMK-1" vertex="1">
          <mxGeometry x="410" y="60" width="120" height="80" as="geometry" />
        </mxCell>
        <mxCell id="5j2f0lEpQaipbK5LPEMK-16" value="API call to user service" style="text;html=1;align=center;verticalAlign=middle;whiteSpace=wrap;rounded=0;" parent="5j2f0lEpQaipbK5LPEMK-1" vertex="1">
          <mxGeometry x="213.75" y="150" width="123.75" height="30" as="geometry" />
        </mxCell>
        <mxCell id="5j2f0lEpQaipbK5LPEMK-26" value="Compose communication for the end users with the relevant language and channel" style="points=[[0.25,0,0],[0.5,0,0],[0.75,0,0],[1,0.25,0],[1,0.5,0],[1,0.75,0],[0.75,1,0],[0.5,1,0],[0.25,1,0],[0,0.75,0],[0,0.5,0],[0,0.25,0]];shape=mxgraph.bpmn.task;whiteSpace=wrap;rectStyle=rounded;size=10;html=1;container=1;expand=0;collapsible=0;taskMarker=abstract;" parent="5j2f0lEpQaipbK5LPEMK-1" vertex="1">
          <mxGeometry x="795" y="60" width="120" height="80" as="geometry" />
        </mxCell>
        <mxCell id="5j2f0lEpQaipbK5LPEMK-34" style="edgeStyle=orthogonalEdgeStyle;rounded=0;orthogonalLoop=1;jettySize=auto;html=1;exitX=1;exitY=0.5;exitDx=0;exitDy=0;exitPerimeter=0;entryX=0;entryY=0.5;entryDx=0;entryDy=0;entryPerimeter=0;" parent="5j2f0lEpQaipbK5LPEMK-1" source="5j2f0lEpQaipbK5LPEMK-6" target="5j2f0lEpQaipbK5LPEMK-26" edge="1">
          <mxGeometry relative="1" as="geometry">
            <mxPoint x="737.5" y="100" as="sourcePoint" />
          </mxGeometry>
        </mxCell>
        <mxCell id="5j2f0lEpQaipbK5LPEMK-37" style="edgeStyle=orthogonalEdgeStyle;rounded=0;orthogonalLoop=1;jettySize=auto;html=1;exitX=1;exitY=0.5;exitDx=0;exitDy=0;exitPerimeter=0;entryX=0;entryY=0.5;entryDx=0;entryDy=0;entryPerimeter=0;" parent="5j2f0lEpQaipbK5LPEMK-1" source="5j2f0lEpQaipbK5LPEMK-26" edge="1">
          <mxGeometry relative="1" as="geometry">
            <mxPoint x="995" y="100.00000000000045" as="targetPoint" />
          </mxGeometry>
        </mxCell>
        <mxCell id="5j2f0lEpQaipbK5LPEMK-39" value="" style="points=[[0.145,0.145,0],[0.5,0,0],[0.855,0.145,0],[1,0.5,0],[0.855,0.855,0],[0.5,1,0],[0.145,0.855,0],[0,0.5,0]];shape=mxgraph.bpmn.event;html=1;verticalLabelPosition=bottom;labelBackgroundColor=#ffffff;verticalAlign=top;align=center;perimeter=ellipsePerimeter;outlineConnect=0;aspect=fixed;outline=end;symbol=terminate2;" parent="5j2f0lEpQaipbK5LPEMK-1" vertex="1">
          <mxGeometry x="1197" y="75" width="50" height="50" as="geometry" />
        </mxCell>
        <mxCell id="5j2f0lEpQaipbK5LPEMK-40" style="edgeStyle=orthogonalEdgeStyle;rounded=0;orthogonalLoop=1;jettySize=auto;html=1;exitX=1;exitY=0.5;exitDx=0;exitDy=0;exitPerimeter=0;entryX=0;entryY=0.5;entryDx=0;entryDy=0;entryPerimeter=0;" parent="5j2f0lEpQaipbK5LPEMK-1" source="5j2f0lEpQaipbK5LPEMK-35" target="5j2f0lEpQaipbK5LPEMK-39" edge="1">
          <mxGeometry relative="1" as="geometry" />
        </mxCell>
        <mxCell id="arkN6ETbDQyhnOCDGygX-22" value="" style="edgeStyle=orthogonalEdgeStyle;rounded=0;orthogonalLoop=1;jettySize=auto;html=1;exitX=1;exitY=0.5;exitDx=0;exitDy=0;exitPerimeter=0;entryX=0;entryY=0.5;entryDx=0;entryDy=0;entryPerimeter=0;" parent="5j2f0lEpQaipbK5LPEMK-1" source="5j2f0lEpQaipbK5LPEMK-19" target="5j2f0lEpQaipbK5LPEMK-6" edge="1">
          <mxGeometry relative="1" as="geometry">
            <mxPoint x="-1105" y="-170" as="sourcePoint" />
            <mxPoint x="-840" y="-170" as="targetPoint" />
          </mxGeometry>
        </mxCell>
        <mxCell id="arkN6ETbDQyhnOCDGygX-26" value="" style="group" parent="5j2f0lEpQaipbK5LPEMK-1" vertex="1" connectable="0">
          <mxGeometry x="595" y="60" width="122.5" height="120" as="geometry" />
        </mxCell>
        <mxCell id="5j2f0lEpQaipbK5LPEMK-6" value="Get enabled channels" style="points=[[0.25,0,0],[0.5,0,0],[0.75,0,0],[1,0.25,0],[1,0.5,0],[1,0.75,0],[0.75,1,0],[0.5,1,0],[0.25,1,0],[0,0.75,0],[0,0.5,0],[0,0.25,0]];shape=mxgraph.bpmn.task;whiteSpace=wrap;rectStyle=rounded;size=10;html=1;container=1;expand=0;collapsible=0;taskMarker=abstract;" parent="arkN6ETbDQyhnOCDGygX-26" vertex="1">
          <mxGeometry width="122.5" height="80" as="geometry" />
        </mxCell>
        <mxCell id="5j2f0lEpQaipbK5LPEMK-7" value="In the prototype will be limited to &lt;b&gt;&lt;i&gt;SMS&lt;/i&gt;&lt;/b&gt;" style="text;html=1;align=center;verticalAlign=middle;whiteSpace=wrap;rounded=0;" parent="arkN6ETbDQyhnOCDGygX-26" vertex="1">
          <mxGeometry y="90" width="120" height="30" as="geometry" />
        </mxCell>
        <mxCell id="arkN6ETbDQyhnOCDGygX-27" value="" style="group" parent="5j2f0lEpQaipbK5LPEMK-1" vertex="1" connectable="0">
          <mxGeometry x="993.75" y="60" width="120" height="120" as="geometry" />
        </mxCell>
        <mxCell id="5j2f0lEpQaipbK5LPEMK-35" value="Send finalised message to the Messaging BB" style="points=[[0.25,0,0],[0.5,0,0],[0.75,0,0],[1,0.25,0],[1,0.5,0],[1,0.75,0],[0.75,1,0],[0.5,1,0],[0.25,1,0],[0,0.75,0],[0,0.5,0],[0,0.25,0]];shape=mxgraph.bpmn.task;whiteSpace=wrap;rectStyle=rounded;size=10;html=1;container=1;expand=0;collapsible=0;taskMarker=receive;" parent="arkN6ETbDQyhnOCDGygX-27" vertex="1">
          <mxGeometry width="120" height="80" as="geometry" />
        </mxCell>
        <mxCell id="5j2f0lEpQaipbK5LPEMK-3" value="Get end users which will receive the&amp;nbsp;&lt;span style=&quot;white-space: nowrap; background-color: rgb(255, 255, 255);&quot;&gt;broadcast&lt;/span&gt;" style="points=[[0.25,0,0],[0.5,0,0],[0.75,0,0],[1,0.25,0],[1,0.5,0],[1,0.75,0],[0.75,1,0],[0.5,1,0],[0.25,1,0],[0,0.75,0],[0,0.5,0],[0,0.25,0]];shape=mxgraph.bpmn.task;whiteSpace=wrap;rectStyle=rounded;size=10;html=1;container=1;expand=0;collapsible=0;taskMarker=service;" parent="5j2f0lEpQaipbK5LPEMK-1" vertex="1">
          <mxGeometry x="217.5" y="60" width="120" height="80" as="geometry" />
        </mxCell>
        <mxCell id="5j2f0lEpQaipbK5LPEMK-30" style="edgeStyle=orthogonalEdgeStyle;rounded=0;orthogonalLoop=1;jettySize=auto;html=1;exitX=1;exitY=0.5;exitDx=0;exitDy=0;exitPerimeter=0;entryX=0;entryY=0.5;entryDx=0;entryDy=0;entryPerimeter=0;" parent="5j2f0lEpQaipbK5LPEMK-1" source="5j2f0lEpQaipbK5LPEMK-3" target="5j2f0lEpQaipbK5LPEMK-19" edge="1">
          <mxGeometry relative="1" as="geometry" />
        </mxCell>
        <mxCell id="5j2f0lEpQaipbK5LPEMK-2" value="Watch for broadcast in&lt;div&gt;the IM&lt;/div&gt;" style="points=[[0.145,0.145,0],[0.5,0,0],[0.855,0.145,0],[1,0.5,0],[0.855,0.855,0],[0.5,1,0],[0.145,0.855,0],[0,0.5,0]];shape=mxgraph.bpmn.event;html=1;verticalLabelPosition=bottom;labelBackgroundColor=#ffffff;verticalAlign=top;align=center;perimeter=ellipsePerimeter;outlineConnect=0;aspect=fixed;outline=standard;symbol=message;" parent="5j2f0lEpQaipbK5LPEMK-1" vertex="1">
          <mxGeometry x="90" y="75" width="50" height="50" as="geometry" />
        </mxCell>
        <mxCell id="5j2f0lEpQaipbK5LPEMK-41" style="edgeStyle=orthogonalEdgeStyle;rounded=0;orthogonalLoop=1;jettySize=auto;html=1;exitX=1;exitY=0.5;exitDx=0;exitDy=0;exitPerimeter=0;entryX=0;entryY=0.5;entryDx=0;entryDy=0;entryPerimeter=0;" parent="5j2f0lEpQaipbK5LPEMK-1" source="5j2f0lEpQaipbK5LPEMK-2" target="5j2f0lEpQaipbK5LPEMK-3" edge="1">
          <mxGeometry relative="1" as="geometry" />
        </mxCell>
        <mxCell id="5j2f0lEpQaipbK5LPEMK-165" value="Direct API call to Messaging BB" style="text;html=1;align=center;verticalAlign=middle;whiteSpace=wrap;rounded=0;" parent="5j2f0lEpQaipbK5LPEMK-1" vertex="1">
          <mxGeometry x="996.25" y="150" width="117.5" height="30" as="geometry" />
        </mxCell>
        <mxCell id="5j2f0lEpQaipbK5LPEMK-42" value="&lt;font color=&quot;#000000&quot;&gt;Data ingestion service&lt;/font&gt;" style="swimlane;html=1;startSize=20;fontStyle=0;collapsible=0;horizontal=0;swimlaneLine=1;swimlaneFillColor=#ffffff;strokeWidth=2;whiteSpace=wrap;fillColor=none;fontColor=#ffffff;strokeColor=#000000;shadow=0;" parent="1" vertex="1">
          <mxGeometry x="-1530" y="-1980" width="1030" height="300" as="geometry" />
        </mxCell>
        <mxCell id="5j2f0lEpQaipbK5LPEMK-43" style="edgeStyle=orthogonalEdgeStyle;rounded=0;orthogonalLoop=1;jettySize=auto;html=1;exitX=1;exitY=0.5;exitDx=0;exitDy=0;exitPerimeter=0;entryX=0;entryY=0.5;entryDx=0;entryDy=0;entryPerimeter=0;" parent="5j2f0lEpQaipbK5LPEMK-42" source="5j2f0lEpQaipbK5LPEMK-44" edge="1" target="5j2f0lEpQaipbK5LPEMK-61">
          <mxGeometry relative="1" as="geometry">
            <mxPoint x="770" y="230" as="targetPoint" />
          </mxGeometry>
        </mxCell>
        <mxCell id="5j2f0lEpQaipbK5LPEMK-44" value="Compose threat with details, including severity and emergency type" style="points=[[0.25,0,0],[0.5,0,0],[0.75,0,0],[1,0.25,0],[1,0.5,0],[1,0.75,0],[0.75,1,0],[0.5,1,0],[0.25,1,0],[0,0.75,0],[0,0.5,0],[0,0.25,0]];shape=mxgraph.bpmn.task;whiteSpace=wrap;rectStyle=rounded;size=10;html=1;container=1;expand=0;collapsible=0;taskMarker=abstract;" parent="5j2f0lEpQaipbK5LPEMK-42" vertex="1">
          <mxGeometry x="500" y="120" width="120" height="80" as="geometry" />
        </mxCell>
        <mxCell id="5j2f0lEpQaipbK5LPEMK-52" style="edgeStyle=orthogonalEdgeStyle;rounded=0;orthogonalLoop=1;jettySize=auto;html=1;exitX=1;exitY=0.5;exitDx=0;exitDy=0;exitPerimeter=0;entryX=0;entryY=0.5;entryDx=0;entryDy=0;entryPerimeter=0;" parent="5j2f0lEpQaipbK5LPEMK-42" edge="1">
          <mxGeometry relative="1" as="geometry">
            <mxPoint x="140" y="320" as="sourcePoint" />
          </mxGeometry>
        </mxCell>
        <mxCell id="5j2f0lEpQaipbK5LPEMK-53" style="edgeStyle=orthogonalEdgeStyle;rounded=0;orthogonalLoop=1;jettySize=auto;html=1;exitX=1;exitY=0.5;exitDx=0;exitDy=0;exitPerimeter=0;entryX=0;entryY=0.5;entryDx=0;entryDy=0;entryPerimeter=0;" parent="5j2f0lEpQaipbK5LPEMK-42" edge="1">
          <mxGeometry relative="1" as="geometry">
            <mxPoint x="320" y="320" as="sourcePoint" />
          </mxGeometry>
        </mxCell>
        <mxCell id="5j2f0lEpQaipbK5LPEMK-54" style="edgeStyle=orthogonalEdgeStyle;rounded=0;orthogonalLoop=1;jettySize=auto;html=1;exitX=1;exitY=0.5;exitDx=0;exitDy=0;exitPerimeter=0;entryX=0;entryY=0.5;entryDx=0;entryDy=0;entryPerimeter=0;" parent="5j2f0lEpQaipbK5LPEMK-42" edge="1">
          <mxGeometry relative="1" as="geometry">
            <mxPoint x="500" y="320" as="sourcePoint" />
          </mxGeometry>
        </mxCell>
        <mxCell id="5j2f0lEpQaipbK5LPEMK-55" style="edgeStyle=orthogonalEdgeStyle;rounded=0;orthogonalLoop=1;jettySize=auto;html=1;exitX=1;exitY=0.5;exitDx=0;exitDy=0;exitPerimeter=0;entryX=0;entryY=0.5;entryDx=0;entryDy=0;entryPerimeter=0;" parent="5j2f0lEpQaipbK5LPEMK-42" edge="1">
          <mxGeometry relative="1" as="geometry">
            <mxPoint x="680" y="320" as="sourcePoint" />
          </mxGeometry>
        </mxCell>
        <mxCell id="5j2f0lEpQaipbK5LPEMK-57" style="edgeStyle=orthogonalEdgeStyle;rounded=0;orthogonalLoop=1;jettySize=auto;html=1;exitX=0.5;exitY=1;exitDx=0;exitDy=0;exitPerimeter=0;entryX=0.5;entryY=0;entryDx=0;entryDy=0;entryPerimeter=0;" parent="5j2f0lEpQaipbK5LPEMK-42" edge="1">
          <mxGeometry relative="1" as="geometry">
            <mxPoint x="290" y="380" as="sourcePoint" />
          </mxGeometry>
        </mxCell>
        <mxCell id="5j2f0lEpQaipbK5LPEMK-58" style="edgeStyle=orthogonalEdgeStyle;rounded=0;orthogonalLoop=1;jettySize=auto;html=1;exitX=0.5;exitY=1;exitDx=0;exitDy=0;exitPerimeter=0;entryX=0.5;entryY=0;entryDx=0;entryDy=0;entryPerimeter=0;" parent="5j2f0lEpQaipbK5LPEMK-42" edge="1">
          <mxGeometry relative="1" as="geometry">
            <mxPoint x="470" y="380" as="sourcePoint" />
          </mxGeometry>
        </mxCell>
        <mxCell id="5j2f0lEpQaipbK5LPEMK-60" style="edgeStyle=orthogonalEdgeStyle;rounded=0;orthogonalLoop=1;jettySize=auto;html=1;exitX=1;exitY=0.5;exitDx=0;exitDy=0;exitPerimeter=0;entryX=0;entryY=0.5;entryDx=0;entryDy=0;entryPerimeter=0;" parent="5j2f0lEpQaipbK5LPEMK-42" edge="1">
          <mxGeometry relative="1" as="geometry">
            <mxPoint x="440" y="460" as="sourcePoint" />
          </mxGeometry>
        </mxCell>
        <mxCell id="5j2f0lEpQaipbK5LPEMK-61" value="&lt;span style=&quot;text-wrap: nowrap;&quot;&gt;Send threats&lt;br&gt;to IM&lt;/span&gt;" style="points=[[0.25,0,0],[0.5,0,0],[0.75,0,0],[1,0.25,0],[1,0.5,0],[1,0.75,0],[0.75,1,0],[0.5,1,0],[0.25,1,0],[0,0.75,0],[0,0.5,0],[0,0.25,0]];shape=mxgraph.bpmn.task;whiteSpace=wrap;rectStyle=rounded;size=10;html=1;container=1;expand=0;collapsible=0;taskMarker=send;" parent="5j2f0lEpQaipbK5LPEMK-42" vertex="1">
          <mxGeometry x="690" y="120" width="120" height="80" as="geometry" />
        </mxCell>
        <mxCell id="5j2f0lEpQaipbK5LPEMK-62" value="" style="points=[[0.145,0.145,0],[0.5,0,0],[0.855,0.145,0],[1,0.5,0],[0.855,0.855,0],[0.5,1,0],[0.145,0.855,0],[0,0.5,0]];shape=mxgraph.bpmn.event;html=1;verticalLabelPosition=bottom;labelBackgroundColor=#ffffff;verticalAlign=top;align=center;perimeter=ellipsePerimeter;outlineConnect=0;aspect=fixed;outline=end;symbol=terminate2;" parent="5j2f0lEpQaipbK5LPEMK-42" vertex="1">
          <mxGeometry x="880" y="135" width="50" height="50" as="geometry" />
        </mxCell>
        <mxCell id="5j2f0lEpQaipbK5LPEMK-63" style="edgeStyle=orthogonalEdgeStyle;rounded=0;orthogonalLoop=1;jettySize=auto;html=1;exitX=1;exitY=0.5;exitDx=0;exitDy=0;exitPerimeter=0;entryX=0;entryY=0.5;entryDx=0;entryDy=0;entryPerimeter=0;" parent="5j2f0lEpQaipbK5LPEMK-42" source="5j2f0lEpQaipbK5LPEMK-61" target="5j2f0lEpQaipbK5LPEMK-62" edge="1">
          <mxGeometry relative="1" as="geometry" />
        </mxCell>
        <mxCell id="5j2f0lEpQaipbK5LPEMK-64" value="" style="points=[[0.145,0.145,0],[0.5,0,0],[0.855,0.145,0],[1,0.5,0],[0.855,0.855,0],[0.5,1,0],[0.145,0.855,0],[0,0.5,0]];shape=mxgraph.bpmn.event;html=1;verticalLabelPosition=bottom;labelBackgroundColor=#ffffff;verticalAlign=top;align=center;perimeter=ellipsePerimeter;outlineConnect=0;aspect=fixed;outline=standard;symbol=timer;" parent="5j2f0lEpQaipbK5LPEMK-42" vertex="1">
          <mxGeometry x="130" y="135" width="50" height="50" as="geometry" />
        </mxCell>
        <mxCell id="5j2f0lEpQaipbK5LPEMK-68" value="Controller" style="points=[[0.25,0,0],[0.5,0,0],[0.75,0,0],[1,0.25,0],[1,0.5,0],[1,0.75,0],[0.75,1,0],[0.5,1,0],[0.25,1,0],[0,0.75,0],[0,0.5,0],[0,0.25,0]];shape=mxgraph.bpmn.task;whiteSpace=wrap;rectStyle=rounded;size=10;html=1;container=1;expand=0;collapsible=0;taskMarker=abstract;isLoopSub=1;isLoopMultiParallel=1;" parent="5j2f0lEpQaipbK5LPEMK-42" vertex="1">
          <mxGeometry x="250" y="120" width="120" height="80" as="geometry" />
        </mxCell>
        <mxCell id="5j2f0lEpQaipbK5LPEMK-69" style="edgeStyle=orthogonalEdgeStyle;rounded=0;orthogonalLoop=1;jettySize=auto;html=1;exitX=1;exitY=0.5;exitDx=0;exitDy=0;exitPerimeter=0;entryX=0;entryY=0.5;entryDx=0;entryDy=0;entryPerimeter=0;" parent="5j2f0lEpQaipbK5LPEMK-42" source="5j2f0lEpQaipbK5LPEMK-64" target="5j2f0lEpQaipbK5LPEMK-68" edge="1">
          <mxGeometry relative="1" as="geometry" />
        </mxCell>
        <mxCell id="5j2f0lEpQaipbK5LPEMK-72" style="edgeStyle=orthogonalEdgeStyle;rounded=0;orthogonalLoop=1;jettySize=auto;html=1;exitX=1;exitY=0.5;exitDx=0;exitDy=0;exitPerimeter=0;entryX=0;entryY=0.5;entryDx=0;entryDy=0;entryPerimeter=0;" parent="5j2f0lEpQaipbK5LPEMK-42" source="5j2f0lEpQaipbK5LPEMK-68" target="5j2f0lEpQaipbK5LPEMK-44" edge="1">
          <mxGeometry relative="1" as="geometry">
            <mxPoint x="445" y="190" as="targetPoint" />
          </mxGeometry>
        </mxCell>
        <mxCell id="5j2f0lEpQaipbK5LPEMK-76" value="Threat service&amp;nbsp;" style="swimlane;html=1;startSize=20;fontStyle=0;collapsible=0;horizontal=0;swimlaneLine=1;swimlaneFillColor=#ffffff;strokeWidth=2;whiteSpace=wrap;" parent="1" vertex="1">
          <mxGeometry x="-1630" y="-1400" width="1530" height="750" as="geometry" />
        </mxCell>
        <mxCell id="5j2f0lEpQaipbK5LPEMK-77" value="&lt;span style=&quot;color: rgb(0, 0, 0);&quot;&gt;Watch for threats in IM&lt;/span&gt;" style="points=[[0.145,0.145,0],[0.5,0,0],[0.855,0.145,0],[1,0.5,0],[0.855,0.855,0],[0.5,1,0],[0.145,0.855,0],[0,0.5,0]];shape=mxgraph.bpmn.event;html=1;verticalLabelPosition=bottom;labelBackgroundColor=#ffffff;verticalAlign=top;align=center;perimeter=ellipsePerimeter;outlineConnect=0;aspect=fixed;outline=standard;symbol=message;fillColor=none;fontColor=#ffffff;strokeColor=#000000;" parent="5j2f0lEpQaipbK5LPEMK-76" vertex="1">
          <mxGeometry x="95" y="60" width="50" height="50" as="geometry" />
        </mxCell>
        <mxCell id="5j2f0lEpQaipbK5LPEMK-78" value="&lt;span style=&quot;color: rgb(0, 0, 0); background-color: initial;&quot;&gt;store&amp;nbsp;&lt;/span&gt;&lt;span style=&quot;caret-color: rgb(0, 0, 0); color: rgb(0, 0, 0); white-space: nowrap; background-color: rgb(255, 255, 255);&quot;&gt;threats&lt;/span&gt;&lt;span style=&quot;color: rgb(0, 0, 0); background-color: initial;&quot;&gt;&amp;nbsp;in the DB&lt;/span&gt;" style="points=[[0.25,0,0],[0.5,0,0],[0.75,0,0],[1,0.25,0],[1,0.5,0],[1,0.75,0],[0.75,1,0],[0.5,1,0],[0.25,1,0],[0,0.75,0],[0,0.5,0],[0,0.25,0]];shape=mxgraph.bpmn.task;whiteSpace=wrap;rectStyle=rounded;size=10;html=1;container=1;expand=0;collapsible=0;taskMarker=abstract;fillColor=none;fontColor=#ffffff;strokeColor=#000000;" parent="5j2f0lEpQaipbK5LPEMK-76" vertex="1">
          <mxGeometry x="260" y="45" width="120" height="80" as="geometry" />
        </mxCell>
        <mxCell id="5j2f0lEpQaipbK5LPEMK-90" style="edgeStyle=orthogonalEdgeStyle;rounded=0;orthogonalLoop=1;jettySize=auto;html=1;exitX=1;exitY=0.5;exitDx=0;exitDy=0;exitPerimeter=0;entryX=0;entryY=0.5;entryDx=0;entryDy=0;entryPerimeter=0;" parent="5j2f0lEpQaipbK5LPEMK-76" source="5j2f0lEpQaipbK5LPEMK-77" target="5j2f0lEpQaipbK5LPEMK-78" edge="1">
          <mxGeometry relative="1" as="geometry" />
        </mxCell>
        <mxCell id="arkN6ETbDQyhnOCDGygX-1" style="edgeStyle=orthogonalEdgeStyle;rounded=0;orthogonalLoop=1;jettySize=auto;html=1;exitX=1;exitY=0.5;exitDx=0;exitDy=0;exitPerimeter=0;entryX=0;entryY=0.5;entryDx=0;entryDy=0;entryPerimeter=0;" parent="5j2f0lEpQaipbK5LPEMK-76" edge="1">
          <mxGeometry relative="1" as="geometry">
            <mxPoint x="380" y="84.57999999999998" as="sourcePoint" />
            <mxPoint x="460" y="84.57999999999998" as="targetPoint" />
            <Array as="points">
              <mxPoint x="380" y="85.03000000000003" />
              <mxPoint x="380" y="85.03000000000003" />
            </Array>
          </mxGeometry>
        </mxCell>
        <mxCell id="arkN6ETbDQyhnOCDGygX-2" value="" style="points=[[0.145,0.145,0],[0.5,0,0],[0.855,0.145,0],[1,0.5,0],[0.855,0.855,0],[0.5,1,0],[0.145,0.855,0],[0,0.5,0]];shape=mxgraph.bpmn.event;html=1;verticalLabelPosition=bottom;labelBackgroundColor=#ffffff;verticalAlign=top;align=center;perimeter=ellipsePerimeter;outlineConnect=0;aspect=fixed;outline=end;symbol=terminate2;fillColor=none;fontColor=#ffffff;strokeColor=#000000;" parent="5j2f0lEpQaipbK5LPEMK-76" vertex="1">
          <mxGeometry x="460" y="60" width="50" height="50" as="geometry" />
        </mxCell>
        <mxCell id="5j2f0lEpQaipbK5LPEMK-91" value="&lt;span style=&quot;white-space-collapse: preserve;&quot;&gt;Edit message attributes:&lt;/span&gt;&lt;br style=&quot;white-space-collapse: preserve;&quot;&gt;&lt;span style=&quot;white-space-collapse: preserve;&quot;&gt;Title, Message delivery channel type&lt;/span&gt;" style="points=[[0.25,0,0],[0.5,0,0],[0.75,0,0],[1,0.25,0],[1,0.5,0],[1,0.75,0],[0.75,1,0],[0.5,1,0],[0.25,1,0],[0,0.75,0],[0,0.5,0],[0,0.25,0]];shape=mxgraph.bpmn.task;whiteSpace=wrap;rectStyle=rounded;size=10;html=1;container=1;expand=0;collapsible=0;taskMarker=manual;" parent="5j2f0lEpQaipbK5LPEMK-76" vertex="1">
          <mxGeometry x="630" y="555" width="120" height="80" as="geometry" />
        </mxCell>
        <mxCell id="5j2f0lEpQaipbK5LPEMK-95" value="Set Broadcast status to&amp;nbsp;&lt;div&gt;&quot;&lt;i style=&quot;font-weight: bold;&quot;&gt;Draft&lt;/i&gt;&quot;&lt;/div&gt;" style="points=[[0.25,0,0],[0.5,0,0],[0.75,0,0],[1,0.25,0],[1,0.5,0],[1,0.75,0],[0.75,1,0],[0.5,1,0],[0.25,1,0],[0,0.75,0],[0,0.5,0],[0,0.25,0]];shape=mxgraph.bpmn.task;whiteSpace=wrap;rectStyle=rounded;size=10;html=1;container=1;expand=0;collapsible=0;taskMarker=abstract;fillColor=none;strokeColor=#000000;" parent="5j2f0lEpQaipbK5LPEMK-76" vertex="1">
          <mxGeometry x="425" y="395" width="120" height="80" as="geometry" />
        </mxCell>
        <mxCell id="5j2f0lEpQaipbK5LPEMK-103" value="Pre-fill message body with information from warning and template" style="points=[[0.25,0,0],[0.5,0,0],[0.75,0,0],[1,0.25,0],[1,0.5,0],[1,0.75,0],[0.75,1,0],[0.5,1,0],[0.25,1,0],[0,0.75,0],[0,0.5,0],[0,0.25,0]];shape=mxgraph.bpmn.task;whiteSpace=wrap;rectStyle=rounded;size=10;html=1;container=1;expand=0;collapsible=0;taskMarker=abstract;" parent="5j2f0lEpQaipbK5LPEMK-76" vertex="1">
          <mxGeometry x="640" y="395" width="120" height="80" as="geometry" />
        </mxCell>
        <mxCell id="5j2f0lEpQaipbK5LPEMK-104" style="edgeStyle=orthogonalEdgeStyle;rounded=0;orthogonalLoop=1;jettySize=auto;html=1;exitX=1;exitY=0.5;exitDx=0;exitDy=0;exitPerimeter=0;entryX=0;entryY=0.5;entryDx=0;entryDy=0;entryPerimeter=0;" parent="5j2f0lEpQaipbK5LPEMK-76" edge="1">
          <mxGeometry relative="1" as="geometry">
            <mxPoint x="495" y="290" as="sourcePoint" />
          </mxGeometry>
        </mxCell>
        <mxCell id="5j2f0lEpQaipbK5LPEMK-105" style="edgeStyle=orthogonalEdgeStyle;rounded=0;orthogonalLoop=1;jettySize=auto;html=1;exitX=1;exitY=0.5;exitDx=0;exitDy=0;exitPerimeter=0;entryX=0;entryY=0.5;entryDx=0;entryDy=0;entryPerimeter=0;" parent="5j2f0lEpQaipbK5LPEMK-76" source="5j2f0lEpQaipbK5LPEMK-95" target="5j2f0lEpQaipbK5LPEMK-103" edge="1">
          <mxGeometry relative="1" as="geometry" />
        </mxCell>
        <mxCell id="5j2f0lEpQaipbK5LPEMK-106" value="Compose message to end users" style="points=[[0.25,0,0],[0.5,0,0],[0.75,0,0],[1,0.25,0],[1,0.5,0],[1,0.75,0],[0.75,1,0],[0.5,1,0],[0.25,1,0],[0,0.75,0],[0,0.5,0],[0,0.25,0]];shape=mxgraph.bpmn.task;whiteSpace=wrap;rectStyle=rounded;size=10;html=1;container=1;expand=0;collapsible=0;taskMarker=abstract;isLoopSub=1;" parent="5j2f0lEpQaipbK5LPEMK-76" vertex="1">
          <mxGeometry x="830" y="395" width="120" height="80" as="geometry" />
        </mxCell>
        <mxCell id="5j2f0lEpQaipbK5LPEMK-107" value="" style="points=[[0.145,0.145,0],[0.5,0,0],[0.855,0.145,0],[1,0.5,0],[0.855,0.855,0],[0.5,1,0],[0.145,0.855,0],[0,0.5,0]];shape=mxgraph.bpmn.event;html=1;verticalLabelPosition=bottom;labelBackgroundColor=#ffffff;verticalAlign=top;align=center;perimeter=ellipsePerimeter;outlineConnect=0;aspect=fixed;outline=standard;symbol=message;" parent="5j2f0lEpQaipbK5LPEMK-76" vertex="1">
          <mxGeometry x="530" y="570" width="50" height="50" as="geometry" />
        </mxCell>
        <mxCell id="5j2f0lEpQaipbK5LPEMK-108" value="Initiate new broadcast" style="points=[[0.25,0,0],[0.5,0,0],[0.75,0,0],[1,0.25,0],[1,0.5,0],[1,0.75,0],[0.75,1,0],[0.5,1,0],[0.25,1,0],[0,0.75,0],[0,0.5,0],[0,0.25,0]];shape=mxgraph.bpmn.task;whiteSpace=wrap;rectStyle=rounded;size=10;html=1;container=1;expand=0;collapsible=0;taskMarker=user;fillColor=none;strokeColor=#000000;" parent="5j2f0lEpQaipbK5LPEMK-76" vertex="1">
          <mxGeometry x="210" y="395" width="120" height="80" as="geometry" />
        </mxCell>
        <mxCell id="5j2f0lEpQaipbK5LPEMK-109" style="edgeStyle=orthogonalEdgeStyle;rounded=0;orthogonalLoop=1;jettySize=auto;html=1;exitX=1;exitY=0.5;exitDx=0;exitDy=0;exitPerimeter=0;entryX=0;entryY=0.5;entryDx=0;entryDy=0;entryPerimeter=0;" parent="5j2f0lEpQaipbK5LPEMK-76" source="5j2f0lEpQaipbK5LPEMK-108" target="5j2f0lEpQaipbK5LPEMK-95" edge="1">
          <mxGeometry relative="1" as="geometry">
            <mxPoint x="410" y="435" as="targetPoint" />
          </mxGeometry>
        </mxCell>
        <mxCell id="5j2f0lEpQaipbK5LPEMK-110" value="&lt;span style=&quot;white-space-collapse: preserve;&quot;&gt;Edit message content for the target languages&lt;/span&gt;" style="points=[[0.25,0,0],[0.5,0,0],[0.75,0,0],[1,0.25,0],[1,0.5,0],[1,0.75,0],[0.75,1,0],[0.5,1,0],[0.25,1,0],[0,0.75,0],[0,0.5,0],[0,0.25,0]];shape=mxgraph.bpmn.task;whiteSpace=wrap;rectStyle=rounded;size=10;html=1;container=1;expand=0;collapsible=0;taskMarker=manual;" parent="5j2f0lEpQaipbK5LPEMK-76" vertex="1">
          <mxGeometry x="820" y="555" width="120" height="80" as="geometry" />
        </mxCell>
        <mxCell id="5j2f0lEpQaipbK5LPEMK-111" value="&lt;span style=&quot;white-space-collapse: preserve;&quot;&gt;Review and send message&lt;/span&gt;" style="points=[[0.25,0,0],[0.5,0,0],[0.75,0,0],[1,0.25,0],[1,0.5,0],[1,0.75,0],[0.75,1,0],[0.5,1,0],[0.25,1,0],[0,0.75,0],[0,0.5,0],[0,0.25,0]];shape=mxgraph.bpmn.task;whiteSpace=wrap;rectStyle=rounded;size=10;html=1;container=1;expand=0;collapsible=0;taskMarker=manual;" parent="5j2f0lEpQaipbK5LPEMK-76" vertex="1">
          <mxGeometry x="1030" y="555" width="120" height="80" as="geometry" />
        </mxCell>
        <mxCell id="5j2f0lEpQaipbK5LPEMK-112" value="" style="points=[[0.145,0.145,0],[0.5,0,0],[0.855,0.145,0],[1,0.5,0],[0.855,0.855,0],[0.5,1,0],[0.145,0.855,0],[0,0.5,0]];shape=mxgraph.bpmn.event;html=1;verticalLabelPosition=bottom;labelBackgroundColor=#ffffff;verticalAlign=top;align=center;perimeter=ellipsePerimeter;outlineConnect=0;aspect=fixed;outline=end;symbol=message;" parent="5j2f0lEpQaipbK5LPEMK-76" vertex="1">
          <mxGeometry x="1217" y="570" width="50" height="50" as="geometry" />
        </mxCell>
        <mxCell id="5j2f0lEpQaipbK5LPEMK-113" style="edgeStyle=orthogonalEdgeStyle;rounded=0;orthogonalLoop=1;jettySize=auto;html=1;exitX=1;exitY=0.5;exitDx=0;exitDy=0;exitPerimeter=0;entryX=0;entryY=0.5;entryDx=0;entryDy=0;entryPerimeter=0;" parent="5j2f0lEpQaipbK5LPEMK-76" source="5j2f0lEpQaipbK5LPEMK-107" target="5j2f0lEpQaipbK5LPEMK-91" edge="1">
          <mxGeometry relative="1" as="geometry" />
        </mxCell>
        <mxCell id="5j2f0lEpQaipbK5LPEMK-114" style="edgeStyle=orthogonalEdgeStyle;rounded=0;orthogonalLoop=1;jettySize=auto;html=1;exitX=1;exitY=0.5;exitDx=0;exitDy=0;exitPerimeter=0;entryX=0;entryY=0.5;entryDx=0;entryDy=0;entryPerimeter=0;" parent="5j2f0lEpQaipbK5LPEMK-76" source="5j2f0lEpQaipbK5LPEMK-91" target="5j2f0lEpQaipbK5LPEMK-110" edge="1">
          <mxGeometry relative="1" as="geometry" />
        </mxCell>
        <mxCell id="5j2f0lEpQaipbK5LPEMK-115" style="edgeStyle=orthogonalEdgeStyle;rounded=0;orthogonalLoop=1;jettySize=auto;html=1;exitX=1;exitY=0.5;exitDx=0;exitDy=0;exitPerimeter=0;entryX=0;entryY=0.5;entryDx=0;entryDy=0;entryPerimeter=0;" parent="5j2f0lEpQaipbK5LPEMK-76" source="5j2f0lEpQaipbK5LPEMK-110" target="5j2f0lEpQaipbK5LPEMK-111" edge="1">
          <mxGeometry relative="1" as="geometry" />
        </mxCell>
        <mxCell id="5j2f0lEpQaipbK5LPEMK-116" style="edgeStyle=orthogonalEdgeStyle;rounded=0;orthogonalLoop=1;jettySize=auto;html=1;exitX=1;exitY=0.5;exitDx=0;exitDy=0;exitPerimeter=0;entryX=0;entryY=0.5;entryDx=0;entryDy=0;entryPerimeter=0;" parent="5j2f0lEpQaipbK5LPEMK-76" source="5j2f0lEpQaipbK5LPEMK-111" target="5j2f0lEpQaipbK5LPEMK-112" edge="1">
          <mxGeometry relative="1" as="geometry" />
        </mxCell>
        <mxCell id="5j2f0lEpQaipbK5LPEMK-117" style="edgeStyle=orthogonalEdgeStyle;rounded=0;orthogonalLoop=1;jettySize=auto;html=1;exitX=0.25;exitY=1;exitDx=0;exitDy=0;exitPerimeter=0;entryX=0.5;entryY=0;entryDx=0;entryDy=0;entryPerimeter=0;dashed=1;" parent="5j2f0lEpQaipbK5LPEMK-76" source="5j2f0lEpQaipbK5LPEMK-106" target="5j2f0lEpQaipbK5LPEMK-107" edge="1">
          <mxGeometry relative="1" as="geometry" />
        </mxCell>
        <mxCell id="5j2f0lEpQaipbK5LPEMK-118" style="edgeStyle=orthogonalEdgeStyle;rounded=0;orthogonalLoop=1;jettySize=auto;html=1;exitX=0.5;exitY=0;exitDx=0;exitDy=0;exitPerimeter=0;entryX=0.75;entryY=1;entryDx=0;entryDy=0;entryPerimeter=0;dashed=1;" parent="5j2f0lEpQaipbK5LPEMK-76" source="5j2f0lEpQaipbK5LPEMK-112" target="5j2f0lEpQaipbK5LPEMK-106" edge="1">
          <mxGeometry relative="1" as="geometry" />
        </mxCell>
        <mxCell id="5j2f0lEpQaipbK5LPEMK-119" value="Update broadcast status to&amp;nbsp;&lt;div&gt;&quot;&lt;b&gt;&lt;i&gt;Processing&lt;/i&gt;&lt;/b&gt;&quot;&lt;/div&gt;" style="points=[[0.25,0,0],[0.5,0,0],[0.75,0,0],[1,0.25,0],[1,0.5,0],[1,0.75,0],[0.75,1,0],[0.5,1,0],[0.25,1,0],[0,0.75,0],[0,0.5,0],[0,0.25,0]];shape=mxgraph.bpmn.task;whiteSpace=wrap;rectStyle=rounded;size=10;html=1;container=1;expand=0;collapsible=0;taskMarker=abstract;" parent="5j2f0lEpQaipbK5LPEMK-76" vertex="1">
          <mxGeometry x="1017.5" y="395" width="120" height="80" as="geometry" />
        </mxCell>
        <mxCell id="5j2f0lEpQaipbK5LPEMK-120" value="Send broadcast to IM with the warning details" style="points=[[0.25,0,0],[0.5,0,0],[0.75,0,0],[1,0.25,0],[1,0.5,0],[1,0.75,0],[0.75,1,0],[0.5,1,0],[0.25,1,0],[0,0.75,0],[0,0.5,0],[0,0.25,0]];shape=mxgraph.bpmn.task;whiteSpace=wrap;rectStyle=rounded;size=10;html=1;container=1;expand=0;collapsible=0;taskMarker=send;" parent="5j2f0lEpQaipbK5LPEMK-76" vertex="1">
          <mxGeometry x="1200" y="395" width="120" height="80" as="geometry" />
        </mxCell>
        <mxCell id="5j2f0lEpQaipbK5LPEMK-121" value="" style="points=[[0.145,0.145,0],[0.5,0,0],[0.855,0.145,0],[1,0.5,0],[0.855,0.855,0],[0.5,1,0],[0.145,0.855,0],[0,0.5,0]];shape=mxgraph.bpmn.event;html=1;verticalLabelPosition=bottom;labelBackgroundColor=#ffffff;verticalAlign=top;align=center;perimeter=ellipsePerimeter;outlineConnect=0;aspect=fixed;outline=end;symbol=terminate2;" parent="5j2f0lEpQaipbK5LPEMK-76" vertex="1">
          <mxGeometry x="1380" y="410" width="50" height="50" as="geometry" />
        </mxCell>
        <mxCell id="5j2f0lEpQaipbK5LPEMK-122" style="edgeStyle=orthogonalEdgeStyle;rounded=0;orthogonalLoop=1;jettySize=auto;html=1;exitX=1;exitY=0.5;exitDx=0;exitDy=0;exitPerimeter=0;entryX=0;entryY=0.5;entryDx=0;entryDy=0;entryPerimeter=0;" parent="5j2f0lEpQaipbK5LPEMK-76" source="5j2f0lEpQaipbK5LPEMK-103" target="5j2f0lEpQaipbK5LPEMK-106" edge="1">
          <mxGeometry relative="1" as="geometry" />
        </mxCell>
        <mxCell id="5j2f0lEpQaipbK5LPEMK-123" style="edgeStyle=orthogonalEdgeStyle;rounded=0;orthogonalLoop=1;jettySize=auto;html=1;exitX=1;exitY=0.5;exitDx=0;exitDy=0;exitPerimeter=0;entryX=0;entryY=0.5;entryDx=0;entryDy=0;entryPerimeter=0;" parent="5j2f0lEpQaipbK5LPEMK-76" source="5j2f0lEpQaipbK5LPEMK-106" target="5j2f0lEpQaipbK5LPEMK-119" edge="1">
          <mxGeometry relative="1" as="geometry" />
        </mxCell>
        <mxCell id="5j2f0lEpQaipbK5LPEMK-124" style="edgeStyle=orthogonalEdgeStyle;rounded=0;orthogonalLoop=1;jettySize=auto;html=1;exitX=1;exitY=0.5;exitDx=0;exitDy=0;exitPerimeter=0;entryX=0;entryY=0.5;entryDx=0;entryDy=0;entryPerimeter=0;" parent="5j2f0lEpQaipbK5LPEMK-76" source="5j2f0lEpQaipbK5LPEMK-119" target="5j2f0lEpQaipbK5LPEMK-120" edge="1">
          <mxGeometry relative="1" as="geometry" />
        </mxCell>
        <mxCell id="5j2f0lEpQaipbK5LPEMK-125" style="edgeStyle=orthogonalEdgeStyle;rounded=0;orthogonalLoop=1;jettySize=auto;html=1;exitX=1;exitY=0.5;exitDx=0;exitDy=0;exitPerimeter=0;entryX=0;entryY=0.5;entryDx=0;entryDy=0;entryPerimeter=0;" parent="5j2f0lEpQaipbK5LPEMK-76" source="5j2f0lEpQaipbK5LPEMK-120" target="5j2f0lEpQaipbK5LPEMK-121" edge="1">
          <mxGeometry relative="1" as="geometry" />
        </mxCell>
        <mxCell id="5j2f0lEpQaipbK5LPEMK-148" value="" style="points=[[0.145,0.145,0],[0.5,0,0],[0.855,0.145,0],[1,0.5,0],[0.855,0.855,0],[0.5,1,0],[0.145,0.855,0],[0,0.5,0]];shape=mxgraph.bpmn.event;html=1;verticalLabelPosition=bottom;labelBackgroundColor=#ffffff;verticalAlign=top;align=center;perimeter=ellipsePerimeter;outlineConnect=0;aspect=fixed;outline=standard;symbol=general;" parent="5j2f0lEpQaipbK5LPEMK-76" vertex="1">
          <mxGeometry x="80" y="410" width="50" height="50" as="geometry" />
        </mxCell>
        <mxCell id="5j2f0lEpQaipbK5LPEMK-149" style="edgeStyle=orthogonalEdgeStyle;rounded=0;orthogonalLoop=1;jettySize=auto;html=1;exitX=1;exitY=0.5;exitDx=0;exitDy=0;exitPerimeter=0;entryX=0;entryY=0.5;entryDx=0;entryDy=0;entryPerimeter=0;" parent="5j2f0lEpQaipbK5LPEMK-76" source="5j2f0lEpQaipbK5LPEMK-148" target="5j2f0lEpQaipbK5LPEMK-108" edge="1">
          <mxGeometry relative="1" as="geometry" />
        </mxCell>
        <mxCell id="arkN6ETbDQyhnOCDGygX-21" value="Sends an event to the IM" style="text;html=1;align=center;verticalAlign=middle;whiteSpace=wrap;rounded=0;" parent="5j2f0lEpQaipbK5LPEMK-76" vertex="1">
          <mxGeometry x="1175" y="475" width="170" height="30" as="geometry" />
        </mxCell>
        <mxCell id="arkN6ETbDQyhnOCDGygX-24" value="" style="points=[[0.145,0.145,0],[0.5,0,0],[0.855,0.145,0],[1,0.5,0],[0.855,0.855,0],[0.5,1,0],[0.145,0.855,0],[0,0.5,0]];shape=mxgraph.bpmn.event;html=1;verticalLabelPosition=bottom;labelBackgroundColor=#ffffff;verticalAlign=top;align=center;perimeter=ellipsePerimeter;outlineConnect=0;aspect=fixed;outline=end;symbol=terminate2;fillColor=none;strokeColor=#000000;" parent="5j2f0lEpQaipbK5LPEMK-76" vertex="1">
          <mxGeometry x="80" y="410" width="50" height="50" as="geometry" />
        </mxCell>
        <mxCell id="QW654TXKpRbxI_KlJLzY-12" value="" style="points=[[0.145,0.145,0],[0.5,0,0],[0.855,0.145,0],[1,0.5,0],[0.855,0.855,0],[0.5,1,0],[0.145,0.855,0],[0,0.5,0]];shape=mxgraph.bpmn.event;html=1;verticalLabelPosition=bottom;labelBackgroundColor=#ffffff;verticalAlign=top;align=center;perimeter=ellipsePerimeter;outlineConnect=0;aspect=fixed;outline=standard;symbol=message;" parent="5j2f0lEpQaipbK5LPEMK-76" vertex="1">
          <mxGeometry x="95" y="215" width="50" height="50" as="geometry" />
        </mxCell>
        <mxCell id="QW654TXKpRbxI_KlJLzY-13" value="&lt;span style=&quot;color: rgb(0, 0, 0); text-wrap: nowrap; background-color: rgb(255, 255, 255);&quot;&gt;Get all threats for admin&lt;/span&gt;&lt;div style=&quot;color: rgb(0, 0, 0); text-wrap: nowrap;&quot;&gt;based on location&lt;/div&gt;&lt;div style=&quot;color: rgb(0, 0, 0); text-wrap: nowrap;&quot;&gt;(get all with location &lt;br&gt;filter for admin &lt;br&gt;jurisdiction)&lt;/div&gt;" style="points=[[0.25,0,0],[0.5,0,0],[0.75,0,0],[1,0.25,0],[1,0.5,0],[1,0.75,0],[0.75,1,0],[0.5,1,0],[0.25,1,0],[0,0.75,0],[0,0.5,0],[0,0.25,0]];shape=mxgraph.bpmn.task;whiteSpace=wrap;rectStyle=rounded;size=10;html=1;container=1;expand=0;collapsible=0;taskMarker=abstract;" parent="5j2f0lEpQaipbK5LPEMK-76" vertex="1">
          <mxGeometry x="240" y="200" width="140" height="80" as="geometry" />
        </mxCell>
        <mxCell id="QW654TXKpRbxI_KlJLzY-14" style="edgeStyle=orthogonalEdgeStyle;rounded=0;orthogonalLoop=1;jettySize=auto;html=1;exitX=1;exitY=0.5;exitDx=0;exitDy=0;exitPerimeter=0;entryX=0;entryY=0.5;entryDx=0;entryDy=0;entryPerimeter=0;" parent="5j2f0lEpQaipbK5LPEMK-76" source="QW654TXKpRbxI_KlJLzY-12" target="QW654TXKpRbxI_KlJLzY-13" edge="1">
          <mxGeometry relative="1" as="geometry" />
        </mxCell>
        <mxCell id="QW654TXKpRbxI_KlJLzY-15" style="edgeStyle=orthogonalEdgeStyle;rounded=0;orthogonalLoop=1;jettySize=auto;html=1;exitX=1;exitY=0.5;exitDx=0;exitDy=0;exitPerimeter=0;entryX=0;entryY=0.5;entryDx=0;entryDy=0;entryPerimeter=0;" parent="5j2f0lEpQaipbK5LPEMK-76" edge="1">
          <mxGeometry relative="1" as="geometry">
            <mxPoint x="380" y="239.57999999999998" as="sourcePoint" />
            <mxPoint x="460" y="239.57999999999998" as="targetPoint" />
            <Array as="points">
              <mxPoint x="380" y="240.03000000000003" />
              <mxPoint x="380" y="240.03000000000003" />
            </Array>
          </mxGeometry>
        </mxCell>
        <mxCell id="QW654TXKpRbxI_KlJLzY-16" value="" style="points=[[0.145,0.145,0],[0.5,0,0],[0.855,0.145,0],[1,0.5,0],[0.855,0.855,0],[0.5,1,0],[0.145,0.855,0],[0,0.5,0]];shape=mxgraph.bpmn.event;html=1;verticalLabelPosition=bottom;labelBackgroundColor=#ffffff;verticalAlign=top;align=center;perimeter=ellipsePerimeter;outlineConnect=0;aspect=fixed;outline=end;symbol=terminate2;" parent="5j2f0lEpQaipbK5LPEMK-76" vertex="1">
          <mxGeometry x="460" y="215" width="50" height="50" as="geometry" />
        </mxCell>
        <mxCell id="5j2f0lEpQaipbK5LPEMK-207" value="&lt;span style=&quot;font-weight: normal;&quot;&gt;Messaging BB - Rapid Pro&lt;/span&gt;" style="swimlane;html=1;childLayout=stackLayout;resizeParent=1;resizeParentMax=0;horizontal=0;startSize=20;horizontalStack=0;whiteSpace=wrap;fillStyle=solid;swimlaneFillColor=default;" parent="1" vertex="1">
          <mxGeometry x="250" y="-310" width="1110" height="430" as="geometry" />
        </mxCell>
        <mxCell id="5j2f0lEpQaipbK5LPEMK-208" value="Send communication" style="swimlane;html=1;startSize=20;horizontal=0;fontStyle=0;fillStyle=solid;" parent="5j2f0lEpQaipbK5LPEMK-207" vertex="1">
          <mxGeometry x="20" width="1090" height="430" as="geometry">
            <mxRectangle x="20" width="1090" height="30" as="alternateBounds" />
          </mxGeometry>
        </mxCell>
        <mxCell id="5j2f0lEpQaipbK5LPEMK-163" value="" style="points=[[0.145,0.145,0],[0.5,0,0],[0.855,0.145,0],[1,0.5,0],[0.855,0.855,0],[0.5,1,0],[0.145,0.855,0],[0,0.5,0]];shape=mxgraph.bpmn.event;html=1;verticalLabelPosition=bottom;labelBackgroundColor=#ffffff;verticalAlign=top;align=center;perimeter=ellipsePerimeter;outlineConnect=0;aspect=fixed;outline=standard;symbol=general;" parent="5j2f0lEpQaipbK5LPEMK-208" vertex="1">
          <mxGeometry x="50" y="42.5" width="50" height="50" as="geometry" />
        </mxCell>
        <mxCell id="5j2f0lEpQaipbK5LPEMK-164" value="Send communication per item in the incoming request" style="points=[[0.25,0,0],[0.5,0,0],[0.75,0,0],[1,0.25,0],[1,0.5,0],[1,0.75,0],[0.75,1,0],[0.5,1,0],[0.25,1,0],[0,0.75,0],[0,0.5,0],[0,0.25,0]];shape=mxgraph.bpmn.task;whiteSpace=wrap;rectStyle=rounded;size=10;html=1;container=1;expand=0;collapsible=0;taskMarker=abstract;isLoopMultiParallel=1;" parent="5j2f0lEpQaipbK5LPEMK-208" vertex="1">
          <mxGeometry x="180" y="27.5" width="120" height="80" as="geometry" />
        </mxCell>
        <mxCell id="5j2f0lEpQaipbK5LPEMK-167" value="" style="points=[[0.145,0.145,0],[0.5,0,0],[0.855,0.145,0],[1,0.5,0],[0.855,0.855,0],[0.5,1,0],[0.145,0.855,0],[0,0.5,0]];shape=mxgraph.bpmn.event;html=1;verticalLabelPosition=bottom;labelBackgroundColor=#ffffff;verticalAlign=top;align=center;perimeter=ellipsePerimeter;outlineConnect=0;aspect=fixed;outline=standard;symbol=message;" parent="5j2f0lEpQaipbK5LPEMK-208" vertex="1">
          <mxGeometry x="185" y="192.5" width="50" height="50" as="geometry" />
        </mxCell>
        <mxCell id="5j2f0lEpQaipbK5LPEMK-168" value="Get item communication channel" style="points=[[0.25,0,0],[0.5,0,0],[0.75,0,0],[1,0.25,0],[1,0.5,0],[1,0.75,0],[0.75,1,0],[0.5,1,0],[0.25,1,0],[0,0.75,0],[0,0.5,0],[0,0.25,0]];shape=mxgraph.bpmn.task;whiteSpace=wrap;rectStyle=rounded;size=10;html=1;container=1;expand=0;collapsible=0;taskMarker=abstract;" parent="5j2f0lEpQaipbK5LPEMK-208" vertex="1">
          <mxGeometry x="315" y="177.5" width="120" height="80" as="geometry" />
        </mxCell>
        <mxCell id="5j2f0lEpQaipbK5LPEMK-169" value="Get item communication message" style="points=[[0.25,0,0],[0.5,0,0],[0.75,0,0],[1,0.25,0],[1,0.5,0],[1,0.75,0],[0.75,1,0],[0.5,1,0],[0.25,1,0],[0,0.75,0],[0,0.5,0],[0,0.25,0]];shape=mxgraph.bpmn.task;whiteSpace=wrap;rectStyle=rounded;size=10;html=1;container=1;expand=0;collapsible=0;taskMarker=abstract;" parent="5j2f0lEpQaipbK5LPEMK-208" vertex="1">
          <mxGeometry x="515" y="177.5" width="120" height="80" as="geometry" />
        </mxCell>
        <mxCell id="5j2f0lEpQaipbK5LPEMK-170" value="Send communication" style="points=[[0.25,0,0],[0.5,0,0],[0.75,0,0],[1,0.25,0],[1,0.5,0],[1,0.75,0],[0.75,1,0],[0.5,1,0],[0.25,1,0],[0,0.75,0],[0,0.5,0],[0,0.25,0]];shape=mxgraph.bpmn.task;whiteSpace=wrap;rectStyle=rounded;size=10;html=1;container=1;expand=0;collapsible=0;taskMarker=abstract;" parent="5j2f0lEpQaipbK5LPEMK-208" vertex="1">
          <mxGeometry x="715" y="177.5" width="120" height="80" as="geometry" />
        </mxCell>
        <mxCell id="5j2f0lEpQaipbK5LPEMK-173" value="" style="points=[[0.145,0.145,0],[0.5,0,0],[0.855,0.145,0],[1,0.5,0],[0.855,0.855,0],[0.5,1,0],[0.145,0.855,0],[0,0.5,0]];shape=mxgraph.bpmn.event;html=1;verticalLabelPosition=bottom;labelBackgroundColor=#ffffff;verticalAlign=top;align=center;perimeter=ellipsePerimeter;outlineConnect=0;aspect=fixed;outline=end;symbol=terminate2;" parent="5j2f0lEpQaipbK5LPEMK-208" vertex="1">
          <mxGeometry x="380" y="42.5" width="50" height="50" as="geometry" />
        </mxCell>
        <mxCell id="5j2f0lEpQaipbK5LPEMK-175" value="" style="points=[[0.145,0.145,0],[0.5,0,0],[0.855,0.145,0],[1,0.5,0],[0.855,0.855,0],[0.5,1,0],[0.145,0.855,0],[0,0.5,0]];shape=mxgraph.bpmn.event;html=1;verticalLabelPosition=bottom;labelBackgroundColor=#ffffff;verticalAlign=top;align=center;perimeter=ellipsePerimeter;outlineConnect=0;aspect=fixed;outline=eventInt;symbol=error;" parent="5j2f0lEpQaipbK5LPEMK-208" vertex="1">
          <mxGeometry x="786" y="242.5" width="40" height="40" as="geometry" />
        </mxCell>
        <mxCell id="5j2f0lEpQaipbK5LPEMK-176" value="Log error" style="points=[[0.25,0,0],[0.5,0,0],[0.75,0,0],[1,0.25,0],[1,0.5,0],[1,0.75,0],[0.75,1,0],[0.5,1,0],[0.25,1,0],[0,0.75,0],[0,0.5,0],[0,0.25,0]];shape=mxgraph.bpmn.task;whiteSpace=wrap;rectStyle=rounded;size=10;html=1;container=1;expand=0;collapsible=0;taskMarker=abstract;" parent="5j2f0lEpQaipbK5LPEMK-208" vertex="1">
          <mxGeometry x="746" y="322.5" width="120" height="80" as="geometry" />
        </mxCell>
        <mxCell id="5j2f0lEpQaipbK5LPEMK-177" value="" style="points=[[0.145,0.145,0],[0.5,0,0],[0.855,0.145,0],[1,0.5,0],[0.855,0.855,0],[0.5,1,0],[0.145,0.855,0],[0,0.5,0]];shape=mxgraph.bpmn.event;html=1;verticalLabelPosition=bottom;labelBackgroundColor=#ffffff;verticalAlign=top;align=center;perimeter=ellipsePerimeter;outlineConnect=0;aspect=fixed;outline=end;symbol=terminate2;" parent="5j2f0lEpQaipbK5LPEMK-208" vertex="1">
          <mxGeometry x="946" y="337.5" width="50" height="50" as="geometry" />
        </mxCell>
        <mxCell id="5j2f0lEpQaipbK5LPEMK-178" style="edgeStyle=orthogonalEdgeStyle;rounded=0;orthogonalLoop=1;jettySize=auto;html=1;exitX=0.5;exitY=1;exitDx=0;exitDy=0;exitPerimeter=0;entryX=0.5;entryY=0;entryDx=0;entryDy=0;entryPerimeter=0;" parent="5j2f0lEpQaipbK5LPEMK-208" source="5j2f0lEpQaipbK5LPEMK-175" target="5j2f0lEpQaipbK5LPEMK-176" edge="1">
          <mxGeometry relative="1" as="geometry" />
        </mxCell>
        <mxCell id="5j2f0lEpQaipbK5LPEMK-179" style="edgeStyle=orthogonalEdgeStyle;rounded=0;orthogonalLoop=1;jettySize=auto;html=1;exitX=1;exitY=0.5;exitDx=0;exitDy=0;exitPerimeter=0;entryX=0;entryY=0.5;entryDx=0;entryDy=0;entryPerimeter=0;" parent="5j2f0lEpQaipbK5LPEMK-208" source="5j2f0lEpQaipbK5LPEMK-176" target="5j2f0lEpQaipbK5LPEMK-177" edge="1">
          <mxGeometry relative="1" as="geometry" />
        </mxCell>
        <mxCell id="5j2f0lEpQaipbK5LPEMK-180" style="edgeStyle=orthogonalEdgeStyle;rounded=0;orthogonalLoop=1;jettySize=auto;html=1;exitX=0.25;exitY=1;exitDx=0;exitDy=0;exitPerimeter=0;entryX=0.5;entryY=0;entryDx=0;entryDy=0;entryPerimeter=0;dashed=1;" parent="5j2f0lEpQaipbK5LPEMK-208" source="5j2f0lEpQaipbK5LPEMK-164" target="5j2f0lEpQaipbK5LPEMK-167" edge="1">
          <mxGeometry relative="1" as="geometry" />
        </mxCell>
        <mxCell id="5j2f0lEpQaipbK5LPEMK-181" style="edgeStyle=orthogonalEdgeStyle;rounded=0;orthogonalLoop=1;jettySize=auto;html=1;dashed=1;" parent="5j2f0lEpQaipbK5LPEMK-208" edge="1">
          <mxGeometry relative="1" as="geometry">
            <mxPoint x="840" y="220" as="sourcePoint" />
            <mxPoint x="270" y="108" as="targetPoint" />
            <Array as="points">
              <mxPoint x="840" y="221" />
              <mxPoint x="890" y="221" />
              <mxPoint x="890" y="140" />
              <mxPoint x="270" y="140" />
            </Array>
          </mxGeometry>
        </mxCell>
        <mxCell id="5j2f0lEpQaipbK5LPEMK-182" style="edgeStyle=orthogonalEdgeStyle;rounded=0;orthogonalLoop=1;jettySize=auto;html=1;exitX=1;exitY=0.5;exitDx=0;exitDy=0;exitPerimeter=0;entryX=0;entryY=0.5;entryDx=0;entryDy=0;entryPerimeter=0;" parent="5j2f0lEpQaipbK5LPEMK-208" source="5j2f0lEpQaipbK5LPEMK-167" target="5j2f0lEpQaipbK5LPEMK-168" edge="1">
          <mxGeometry relative="1" as="geometry" />
        </mxCell>
        <mxCell id="5j2f0lEpQaipbK5LPEMK-183" style="edgeStyle=orthogonalEdgeStyle;rounded=0;orthogonalLoop=1;jettySize=auto;html=1;exitX=1;exitY=0.5;exitDx=0;exitDy=0;exitPerimeter=0;entryX=0;entryY=0.5;entryDx=0;entryDy=0;entryPerimeter=0;" parent="5j2f0lEpQaipbK5LPEMK-208" source="5j2f0lEpQaipbK5LPEMK-168" target="5j2f0lEpQaipbK5LPEMK-169" edge="1">
          <mxGeometry relative="1" as="geometry" />
        </mxCell>
        <mxCell id="5j2f0lEpQaipbK5LPEMK-184" style="edgeStyle=orthogonalEdgeStyle;rounded=0;orthogonalLoop=1;jettySize=auto;html=1;exitX=1;exitY=0.5;exitDx=0;exitDy=0;exitPerimeter=0;entryX=0;entryY=0.5;entryDx=0;entryDy=0;entryPerimeter=0;" parent="5j2f0lEpQaipbK5LPEMK-208" source="5j2f0lEpQaipbK5LPEMK-169" target="5j2f0lEpQaipbK5LPEMK-170" edge="1">
          <mxGeometry relative="1" as="geometry" />
        </mxCell>
        <mxCell id="5j2f0lEpQaipbK5LPEMK-186" style="edgeStyle=orthogonalEdgeStyle;rounded=0;orthogonalLoop=1;jettySize=auto;html=1;exitX=1;exitY=0.5;exitDx=0;exitDy=0;exitPerimeter=0;entryX=0;entryY=0.5;entryDx=0;entryDy=0;entryPerimeter=0;" parent="5j2f0lEpQaipbK5LPEMK-208" source="5j2f0lEpQaipbK5LPEMK-163" target="5j2f0lEpQaipbK5LPEMK-164" edge="1">
          <mxGeometry relative="1" as="geometry" />
        </mxCell>
        <mxCell id="5j2f0lEpQaipbK5LPEMK-187" style="edgeStyle=orthogonalEdgeStyle;rounded=0;orthogonalLoop=1;jettySize=auto;html=1;exitX=1;exitY=0.5;exitDx=0;exitDy=0;exitPerimeter=0;entryX=0;entryY=0.5;entryDx=0;entryDy=0;entryPerimeter=0;" parent="5j2f0lEpQaipbK5LPEMK-208" source="5j2f0lEpQaipbK5LPEMK-164" edge="1">
          <mxGeometry relative="1" as="geometry">
            <mxPoint x="377" y="67.5" as="targetPoint" />
          </mxGeometry>
        </mxCell>
        <mxCell id="5j2f0lEpQaipbK5LPEMK-211" style="rounded=0;orthogonalLoop=1;jettySize=auto;html=1;exitX=1;exitY=0.5;exitDx=0;exitDy=0;exitPerimeter=0;entryX=0;entryY=0.5;entryDx=0;entryDy=0;entryPerimeter=0;fillColor=#dae8fc;strokeColor=#6c8ebf;dashed=1;dashPattern=1 4;strokeWidth=4;edgeStyle=entityRelationEdgeStyle;flowAnimation=1;curved=0;" parent="1" source="5j2f0lEpQaipbK5LPEMK-39" target="5j2f0lEpQaipbK5LPEMK-163" edge="1">
          <mxGeometry relative="1" as="geometry" />
        </mxCell>
        <mxCell id="arkN6ETbDQyhnOCDGygX-49" value="&lt;font color=&quot;#000000&quot;&gt;Information Mediator&lt;/font&gt;" style="swimlane;horizontal=0;whiteSpace=wrap;html=1;fillStyle=auto;glass=0;container=1;backgroundOutline=0;swimlaneLine=1;swimlaneFillColor=default;fillColor=none;fontColor=#ffffff;strokeColor=#000000;" parent="1" vertex="1">
          <mxGeometry x="460" y="-1845" width="540" height="270" as="geometry" />
        </mxCell>
        <mxCell id="arkN6ETbDQyhnOCDGygX-51" value="Threats Topic" style="rounded=1;whiteSpace=wrap;html=1;" parent="arkN6ETbDQyhnOCDGygX-49" vertex="1">
          <mxGeometry x="160" y="50" width="120" height="60" as="geometry" />
        </mxCell>
        <mxCell id="arkN6ETbDQyhnOCDGygX-52" value="Broadcast Topic" style="rounded=1;whiteSpace=wrap;html=1;" parent="arkN6ETbDQyhnOCDGygX-49" vertex="1">
          <mxGeometry x="280" y="120" width="120" height="60" as="geometry" />
        </mxCell>
        <mxCell id="arkN6ETbDQyhnOCDGygX-58" style="rounded=0;orthogonalLoop=1;jettySize=auto;html=1;fillColor=#1ba1e2;strokeColor=#006EAF;strokeWidth=4;dashed=1;dashPattern=1 4;flowAnimation=1;edgeStyle=orthogonalEdgeStyle;curved=1;" parent="arkN6ETbDQyhnOCDGygX-49" edge="1">
          <mxGeometry relative="1" as="geometry">
            <mxPoint x="320" y="185" as="sourcePoint" />
            <Array as="points">
              <mxPoint x="320" y="315" />
              <mxPoint x="-110" y="315" />
              <mxPoint x="-110" y="1425" />
              <mxPoint x="-1970" y="1425" />
            </Array>
            <mxPoint x="-1970" y="1605" as="targetPoint" />
          </mxGeometry>
        </mxCell>
        <mxCell id="5j2f0lEpQaipbK5LPEMK-162" style="edgeStyle=orthogonalEdgeStyle;rounded=0;orthogonalLoop=1;jettySize=auto;html=1;exitX=1;exitY=0.5;exitDx=0;exitDy=0;exitPerimeter=0;curved=1;fillColor=#1ba1e2;strokeColor=#006EAF;dashed=1;dashPattern=1 4;strokeWidth=4;flowAnimation=1;" parent="arkN6ETbDQyhnOCDGygX-49" source="5j2f0lEpQaipbK5LPEMK-121" edge="1">
          <mxGeometry relative="1" as="geometry">
            <Array as="points" />
            <mxPoint x="-410" y="761" as="sourcePoint" />
            <mxPoint x="385" y="180" as="targetPoint" />
          </mxGeometry>
        </mxCell>
        <mxCell id="arkN6ETbDQyhnOCDGygX-56" style="edgeStyle=orthogonalEdgeStyle;rounded=0;orthogonalLoop=1;jettySize=auto;html=1;exitX=1;exitY=0.5;exitDx=0;exitDy=0;exitPerimeter=0;entryX=0;entryY=0.5;entryDx=0;entryDy=0;dashed=1;dashPattern=1 4;strokeWidth=4;fillColor=#1ba1e2;strokeColor=#006EAF;elbow=vertical;curved=1;flowAnimation=1;" parent="1" source="5j2f0lEpQaipbK5LPEMK-62" target="arkN6ETbDQyhnOCDGygX-51" edge="1">
          <mxGeometry relative="1" as="geometry">
            <Array as="points">
              <mxPoint x="620" y="-1820" />
            </Array>
          </mxGeometry>
        </mxCell>
        <mxCell id="arkN6ETbDQyhnOCDGygX-55" style="edgeStyle=orthogonalEdgeStyle;rounded=0;orthogonalLoop=1;jettySize=auto;html=1;dashed=1;dashPattern=1 4;strokeWidth=4;curved=1;fillColor=#1ba1e2;strokeColor=#006EAF;flowAnimation=1;entryX=0.5;entryY=0;entryDx=0;entryDy=0;entryPerimeter=0;" parent="1" source="arkN6ETbDQyhnOCDGygX-51" target="5j2f0lEpQaipbK5LPEMK-77" edge="1">
          <mxGeometry relative="1" as="geometry">
            <mxPoint x="-1440.0000000000005" y="-1500" as="targetPoint" />
            <Array as="points">
              <mxPoint x="680" y="-1590" />
              <mxPoint x="-1510" y="-1590" />
            </Array>
          </mxGeometry>
        </mxCell>
        <mxCell id="QW654TXKpRbxI_KlJLzY-4" style="edgeStyle=orthogonalEdgeStyle;rounded=0;orthogonalLoop=1;jettySize=auto;html=1;" parent="1" source="QW654TXKpRbxI_KlJLzY-3" edge="1">
          <mxGeometry relative="1" as="geometry">
            <mxPoint x="-1290" y="-1980" as="targetPoint" />
          </mxGeometry>
        </mxCell>
        <mxCell id="QW654TXKpRbxI_KlJLzY-3" value="" style="shape=image;verticalLabelPosition=bottom;labelBackgroundColor=default;verticalAlign=top;aspect=fixed;imageAspect=0;image=data:image/png,iVBORw0KGgoAAAANSUhEUgAAA04AAAH+CAIAAAAkl8mKAAAACXBIWXMAAA7EAAAOxAGVKw4bAAAgAElEQVR4nOy9Z5sk13Wlu9aOSFNVXVXtHTwaBECCXiIlUjMjzlCaZyiRHOnqUmY+zG+ZH3PneSQM71xJBCQNRSOJHiQBwtu2QHtTXTZNxNnrfjgnIrPaAATR3eiuPm8TxaysyIzIrMg6K7ZZm5KQyWQymUwmk9mK2Id9AJlM5u5BzVdNfftuG117u/fe4gYe503ZQSaTydwymKN6mUzmLkEAG9XG63ybyWQyW4wc1ctkMreMKKsc8Klvr72RAH/PqN51t7g2bL7y+t9uPs6Qo3qZTOZOp/ywDyCTyWRuEVeH8a4gR/UymczWIydwM5nM3YID1kQU7TrfZjKZzBYj/2XLZDK3jN+kLeMazRG/adfE1RlbNd/qGgnc3JaRyWS2Ajmql8lkbhG/ZhuEbnaThORk/NsnkpKROaSXyWS2KlnqZTKZW4sEUhKBdIPXFnWt5rtO7O3977l5uN6jVi/+PDZ9WG7PzWQydzT5OjaTydwiUiqUFEBSZAyrQQDU5kvbf/GueN+7pFGvmfC95sZJ50kEJCHKTYlTWd1MJpPZYuQO3Ewmc2uQQEJqQmpJ8ClJPlBT20mCJkE9vEu13FVWKZvuv86htFV/mj62zU82fSWcdWAmk7lTyVIvk9kKxDRoVDDXu3G9POkN2X+bEW0EHXClPmq0lJwwydsDbw8w/rw5WBEukJgowWtmXa8+iGu8zvjMV/80HpGaLxCueJKJKsW7V7vczLc3k8lkfnNyrV4mk/nNuKZLHYFG7iFpv80Fcq5WgkqgQwYBFrO1BFNSFeaAsCm5+u5/rAimzC9jQI4x/ZsyxRCBqENb3Zj0G0HArqsSiRiMnNJyWdVlMpk7hiz1MpmtwC2P6m2OoE2F8jYLwKi0lPKxsddBbMzsAAYSSYephgcooA5QkILcoQARDvcaCu9xUAStpEXdRhYkDVbAShQFaLASJGTxkIEiik/RSEsvo6kd5FQrSIzqAZxKQl9r/zmwl8lkbj9yAjeT2Qq8u9TDVHXatOxLsmxKqJGxS2HTs21+eBJEmzO1SgE8Ch5lkUMQHO6CS06AVAql1WOMhxhtYDiohhthtFENNjAeV2urNhoOVpdRjRjGo9VVr2tKqKvB6irqMam0N4JNwjUeTJy21tu20OnNOuVm3ZmZ7ux8sKK3sKhez3oz5fx2djrd3lzZn7VeH70+Zreh0yMMgRJosXSwACGWTYyRgEmKb0J8V8zgLgBm5i5y0xt11Zs8nR1Oh38rTotMJpPJUb1MZmtwPann7iTfO6q3KTx3VT3b1GObPKaaRwlyAE2S1FPjLAQPUE0F0FGPsLxcr6/Ug/X15aV6sF6sr/r6CgbrK8tL9WBtdelihzCgJ3XkJerCvSQKCR4M6KW/VoGWlBK9LaGLeo9OC0INiBaIGhZggUVNVGRtReUs+3P9ufmZ+cX+7Cy3LWB+se7P9rctdGcWZhe3Y3YWcwsoexDFUihoJsZQX9M4LJA2/RZJMrNpZZzJZDK3D1nqZTJbCnc3M3cHEPVHq/M0idsBU5EnNe4jTX/E5uYHgpM/FGrztIQp6bzoi1LDHaqpGgrwGquXsbK8fv7spfNnfG3FVi/7+rIP1gaXlzAelQwdirDSVBKl0VykKC/cDcFcFIhYuucWD0/eHGU8OMU/Yk1loAl0YzxYNzopFCJF1kbBghgctRSEAFZCjaKzbbGcnett3+69Oc0v9hZ3zu/eO7d7P3buRW8GMJBgCevICpJCEXPEyYYZBkqSWZHe5DaF3URJMUlqN+G9Nj6aTfsymczNJEu9TGYr8O4J3EkyUYpFafHbNARWLhjhUCCLKE0mepEmqFEw3lqiQIICKYSAMEY1wHiAlcvjC2cvnzt54cSRzmC9HA3Cxlq1sc5q3Kd3EXqsu8YCgELqg3AnqeDRURnypDclwgRn3E5Kqc9pU5Sp195UChI0NNYp6cVHK2QzhyQZDUaBEkTKisoxBkfgUFaT1p3lzBxn5+vZuf723dv2Hljcc6Cz9yBmF9Dpo9tD0YWVkkADLdb6eXqTrQ3yRRMZpwzxjRMBS60oWdtlMplbRJZ6mcyW4mrNR1JyCWaUnLQrqvGmLUxiQZpZ6oIlHSRcTX+sJKdAVAhjDNd9uFqvrfDC2eWTx84fP1qvXOrXw3K0YeNBx+sSKMmOkUChALkhUE4R8nSADiMgCoq3YjtHqpFr+mYBUUzNsPGHsdl2uqZQbbyyDT2mplwYKThTFjZZqKRgJkEGQUVHtAAGoJYqoYaFshPKmbo3Myr7/Z1799338Mx9D2DH7s7cPPuz6M+AXbEQCloJGieVhOlIXCRcEFE0AbyAFNWzHNXLZDI3myz1MpktxTWlnnsASIPcSZODBI1y0Qyb076p2kwCYzjM4S7VlJOAaqwsjS6eHZ87WZ8/vXzq7ZXTb5fjQU/jMtRdeNfrnkIHouroQcwoEdPoiyagFSN0TUMHRTAeOpIlSmODkpRdEm7XLjmMJYkgNf0SkLLP8adTFXVq7JFTZwlJVyr/I+gEYU6J5uQYVrMco6isqNkZsIOZ+e333b/twD3F3n39XQc6O/difgeslFMoaSQK0QBLwpRx3geJWGkY44lZ6mUymVtBlnqZzJbiGlJv0hYrNU51YjSfu/rjn7YnBASFGl5RDh9h+eLq6ZODsyf97DvrJ48PLp7uh3qG6iuUHBeQBRYKYCgEOmIwTo0pshvMKXO6Ae7mQEE1OVkAVzgkX9Uc0kT1rvuqAchT3hegrNVympaISV3apGhxoseSo4oIc0iW3GHEUoSDTgsoaisGKtbEYdld2Htw5uAD3LN//p775/bdj20Lsg7YQdGFFSmcKGubWVLAb/p1JrmJTc59mUwmc4PIUi+T2VJc2ZbhYprvFWN4QSqA1B3g7rGf1IzubowOxIGqESr4GF5h5dL47SNnj7weLpwJF85Wly91wnCuZM+8E0LhwTxQMgqStXop7jHe8tZRuQ3QAeYpyiVvHexSVO996p1N6raphNO0s8nmxhS02sqTlYoDhkZHTjpZ0iHHSjtCgsWQoMwCilAUVdEZ1D6SDVn0dh+wXXvLPfsPfuRjxb0PoT+PsgvryUqwBIu2SWNKsU6bSyOH9zKZzM0gS71MZktxZVTPHWYp2JVGjRnBVCUHl4xUrOYjA+UII4zWtLo0Pv3OqddfHJ463ltdCiuXemE0Z5gxFSEQAS7G4J/aOjmlBCU3C5kUUWsHTsSSQYcsdSlsmjb7vmnzs0DKSptxWjNNtyHHO+B0gzW9EmrVXMota1p8tZG41A0MkHIZQDeAhcDayqGwEjDu9juLe0Zz23ceemzXQ492DtyP2UV0Z1F0ZAVixjaVS6YDSwdPZLO9TCZzM8hSL5PZyrhkSE0BljRK25yaIntQkAdTQLUWlpeqCyfrE0dOvfK8L53rVxu9MOx43TcWCoWHApILcEYFNBWMax2ZW8mSlBPSOIzYC5HK8hB/dAPGeFwR1WsNiifzz67aBo0FCqePrjmK1MmRagwJRl0a+2mTgyBTGSNiHtyNAr0oKxRDYKyi6s5tdPrFzr33fvTTnYcfK3fsLuZ3opwJ7JgVYDGZHUcKtNgQnbpRcngvk8ncMLLUy2S2FFdG9YB2qkNKsCoapjjlHgJVkY6NldHpt9ePvblx7K0Lb726zUczqnoa91F1PJg7Ux9FkjjWGNuxsVFGlFDxu/iTyRFNJkk0N255VdpUW+x0pvjdBleo1bBoh4FYcuwDXbQpfdlke2Vw0FHUVgxZDq0cWG/Yndv+4CMLDz46e9+h7oH7MTPvMLDLwmJQkNEjBk5Y8+5ktZfJZG4MWeplMncGm6vNEleMwbh6m6meDEiCgTFvGyqEMX2MpbMXD78+fPvw8Nibw3OnFxG2sS40KjwUgiFEkQeKgrdNrJOeWIdIOiCpiHlhsulvjYew+XVc0X3RbPObK5trNh1fd+NYmycTjWmamk3H/9BG9QSZ0UnILZibG4oAJ2SyqYaS6DrI1NcrxRm7gFsRyGAcs7suW0Wvv2d//8FHtx16fPG+R7Fjr6xU2aF1CWvULxuT68ZkJgu+TCbzwchSL5PZClwldJLMUlNfJjrcgcC6ko84Xsf5U+dfe3HlrVerc29z9fJioR69G+oiVIWJEDw+SRP3agrumPRH3EsUJQ4IKOL2cdebN/iwaaN6wsTVpW2Kvc4Dpir2Ur67CfJNtZhMQdAV2zbo3khgo8f5bNbboK3WsIXdxb77tz346J6Pfwp7DqicZdGN3Rs0StYkk9vZuZulaCaTybwfstTLZO4MJkPMpn1DrhvVa9SeQEoKUE0GVEOsXgpn3j79wi+X33qlt3G5M1jbZj7L2uoKcgMYnZNTfhNQM+Chyb0CThZTCu8KqYdmDEc0cwnX6rq4IrZ38/OVjuk+DDdYbFC5FtqcrW4LDjElY68IJbYPnf6Dmn5VRik6xVBmbp0NFWteVDML4/md2x557OAnfqvYfz+2LaLsCyVYkkUK6E217LZPPWkoRpMLv+pHN/S9y2QydzZZ6mUydwZXSL3Ns8545abT4ShV9DHrjbB8YXTyyMXnf7585I254Uq/Hs4ylFAR6kJubfOGmr8LyYBEHp2WG1kT/VzanU2Jtqmm1alavWtpuDSSbUoUftA+3PfgOrV61zw8B8zlpAx0mOAmE50wjwlcmBC7mZlagKP2rdtnm2huNung2AZDcxbOoqKtsxgU3cHM4sKhj+769Od6e+8tdh5Q0Zd1aL2pQXBENt3LZDK/KVnqZTJ3CNcJhKV5GBJj24ALdMaZEKGSgmHkZ46vHnvr8ku/vHzstW1hNO/1jMZdBAsBMU9pik4sScTEAWSx2UApC6ypHW92U3mXI77eNu2LiQrv1nUh/Dq7aaJ6aWNO2oen7m9m8saHxPJEya+IsGJzD0qMicaXHCinVewMrLtWdNast/jARxY/+bntH3kCO/eLPbCgdUSDbNruuhH6aLqec1Qvk8m8G1nqZTK3JVcEywQpNhKoESCNX8okjQgX0kyHUHsYWz3AxdNnXnp28OZL43eOzFQb86y7XpUejKJE95iljVEuc3gaW9Y0libPkXepFLs6qofNgur2KDLbFNX7tYvfrl/Id1VEsCmO3Ky64q30fsaWEKVUuMtBkyzQghXjorOicr2cWXjkY50HP7LvY5/BroNezrDsg0YUalQjkxUhvRH6bGK97XwUIHu2ZDKZRJZ6mcwdgpoasajLSPmkM0DRCMQFVKhHrAe4fO7S889cfO35+vTxfrW+g+j6uAgVpRKOFAicGIU0z8IpPXTl/AjcsLjRLa/Vez+00bvI1VG9K+9/l2T61JM2fSES48McYKodBAPpZTmy3nJlo/5cuf+BnR/79I5P/jYWd6s7J/atKBVz3KQEo0sCCzTtG5zeGXC7vauZTObDIku9TOa25KqoXrwhTbpqGR1QFO92eE0FVBu+fG7l5edO/vJH5aWzM8OV+TL06qoMoYBLDtCasbBmluRKlgQ3G09ufLHHJRoz0wVAhOQwIvaNFN2hlcuBw5mFsOvgPb/9e9se/4ztOICyKxawTuzwIKI/YtGeKs3UkrZaMCu9TCYDZKmXydymtH0LmG5aaOc4RJM8Qg4CCu7DwitdPr9+9NVzP/vB6J3D2+qNOVV9BVNVuApB8LT6NyGotK8kEDgZNJG5OSiN3hVBAp6GmKgpj4wxQgYyFOUIxQa7q+Vc7/5Dez7/72cf+qjt2OPo0zooCqjJ4rNxXW5zx/H3yKuCfZlM5q4kS71M5nZDU4ZqaFo4U3FZmmnrMXnnJrmPDRU2ltfeeHHp+Wcuvv7Cdh8v+qjno1IB7ka1bnCx0usqi5DMrSJ1uGhqphzi3+Fk3NdY+IlwWR1r+NhbKmZ2PP7JHZ/6/PxHPoGZRWfHiq5QTswOk3EMAQlOWCv/8i86k7nLyVIvk7nNafNzcRWP3wQA8DHCiNXG+MQbZ375k43XnuusLu0s0Qsj87pUnbotBAiw1qJNBN0V87iYBPWQc343kfgLdIk0QZCM5k0uPqoxlxtNkihL83adVlkxLvtLAaP5nXOPfWb/Z7/QfeBRFXMs+yg6zWw2aws5p1xa8i8zk8lkqZfJ3HbEqE50+22MSJrBZgQEh2qEMesNLJ0599N/XXr1V7xwcjvrWVRFPS4FIlDRJq+J+iAZp6RoUgz8AEiJvnaaWeZmco2oXpNMJ5KnjZJxMtL0DYJFBYSys87OMjq+8+DeT35u5+f/AxZ2q5yFdVWUZCFvGn4JeGzIzVG9TCaTpV4mc9sRQzEBQMrkpaquWL5fA4Eaa+nsxusvHPvx93oXTs1V69s47tRjk1vM00aTlNYZD4x2LTLEoa4ypxNmzf5cYPOIrAw+JFKiPs5kcxiV2jZMlMOcRV10V1CsdebDgfsf+N3fn330U1jYJXRQ9MCynVsXf+mT0swc3stk7mKy1MtkbktSpVUAAZngVBACwoijjcHbb5z7yffXXn9hsV6f93HPK/PaIMpTTV+MFbVdFvHZfOInp2Tz1ob7Gts3IIuCm8iUvd+7ePsJzUQPF5rRu5QHM8FqK0fsrFlvuTu784nf3vm53+vf+4g6cyp6LDoAEWO5wG3nbpjJZD4MstTLZG4r2gYKpWxrKtgPXg3Mx1g6e/HZH5/7xQ86y+d2MPTqYdfrImV7Ef1T3D0W6bcVW0JTsxeNOtCMemi6btHEAnNM7yZzhaEgNtVHToRgGl1M0CEqqj0HqejNx2LMzrDTXfKy3nlg72/93q7f+iK275N1WfagQiwAnxKTv6ZndCaT2YJkqZfJ3B5M+/NG3RbnX8iBgHrAam3wxosnf/S9+vir2+vBPOqiHhcS4ZjY+iauKM9ypEkYUUnE28nCRfLoyAy3WMGXBcFtwGTSxuY/0VKaRxxggUUoO6vsrhSzxUOP3fOF/zTzyCfU25aSuWh/34SDjMq+cWhkM3Yl9+JkMludLPUymVvE9EyFeM/myRObTJPlTpPqAB8xrGvl3JkffX/5xV+US2d2FXU/jMsQKKdESwNwSQJsGiwEeMzlYSqql3o8muxhLOJTY6GcfdhuPvG37M0v+nrzf5vNJNDaX2s8c4Q0NMNBkcFsUM5cDBZ27F/85Of2f/HLWNzr5QzZJQuRjKqebV0mmrhh/n1nMncFWeplMreSTYv6poFjmBJjEhnkAfWAo9Xh0VdO/Ms/1G8f3qnRNh93QmUKpmlp2FotT6/fE6k32en1RAXaCr6b/Abc7bwPqRfjrdLk14rm8gDAVMcugpXjTncd3YvWK+7/yANf+kr/4Se8t43WhXXiXq7Ude1uW9V/xf2ZTGarkKVeJnMrUJs4m6rT2hTVc8XgiygieBhZGOHSqfO//NHZn31/22BpwYf9UHdCIAgEY1y5r1yTrxmnebehrpsmaeUoz21K+4uZHrPbuC1LYCCDFcOit4zuaGHvnt/5/V2f+SJ27HfroewxtnKbwT315tIJF4ycDGPJZDJbkiz1MpmbTlye3WUGgO6OawyrSMs2VcmH9MH4yGtnfvid1Tee36XRbBh2w6iUKAEGOtBUW7VxQaauzc2CMkdpbivetS3jupuxifNNwsDTmxolNzcGWlWUa0X3Ima3f/Sze77wpd7DH1Mx04b3PJ09gkSDnMY4Sbl1ZsnnSyaz1chSL5O5FajJt7bV9vHO1DAb/XQB1RV8w4ZLF5/98bmffL9z4fROVv16VHplcEKMHRXJKS+vyHcvm2QfJRUExeBkzXJY9i56L+y97+Dv/cHCJ3/HZ+ZZztI6LmujyWaUO9F06KhJ+OcYXyaztchSL5O56TSfMkmOlDLTJBMnkZJcYWhh6Eunzv/g2+d/8cMd9cY8QqceFu4Gt2SyhlhiP1ValbkLacN+HmehKdlgA0BAEczGZXeFvZXO/J7PfmHPv/9D7jzoNkvrCCQNyXkRlkr+clQvk9myZKmXydwUrsi1kZTayMmkRE8S6VBQPbRqfXT8tePffRrHXtupwWyoyzA2eZyZmjJ1dMAhQy6xuqtR8tiWI0q3GDcmpNRtG2hV0Vln93Ixiwcee/DLX+0++LgXs1b2YAVQSICJsFQIkCs1M5ktSpZ6mcytoCmnaz9xIkxyUfAx6yEHSysvPHPie09vWz63HeO+j4oQSEGyJAqdKeQSFV6WepkWtWOS22pNFxysrRgXvUvWHe44eN+Xvzb/xG+pt4ByhkVHulZsOEf1MpktR5Z6mcxNIVmgNQpvqnli+kPn8BHqAS6ePP+T75//xb8tjlYWNe7Uo44c0GQibeuLAaVvyGb4RV6X70KmDPIUW3wmp1U8x5T6NRBQjDvdy9Zd7e3c97u/v/t3/6O274f1WXblllo1Jn3Z+WzKZLYaWeplMjeGq7sj228lmdFdiClYiYxVVrWNVv2dN058/x+Hb76wMwzmfFSGqlQQYIyDsgQUcHczcwBIqzNz6CVzbaZOQoEmIMDqorvGzsVyW+/xTz34h/+12HO/d+bMStAEI0x0yHIeN5PZemSpl8ncLFrxl4rsYlkVAAiqVI+sXg+HXz78j98szx1b9PFMGHVCbbEZktbMQQVIejNFg+kDG4fb5qheZpr2lEuVoC5auqpwWrDORtG/xG44+PCjf/yN4p5HvTvHok8rm8ggYDmDm8lsNbLUy2RuDNf0PGPT5xiNbgUQDq8VBjZYHrz0y6Pf+bvZy6d2oOrXo0JucKQx9XFeKZP1sRoP5Nb4OPV3IEu9zBVMpXKnE/4MsJrFqOhesv5gcd+hP/h6/+O/4715lj0WpVQATnKq3i+TyWwFstTLZG4MKcXqHjWfmV394SIkrxQ2bPXihZ9+79wPv70wurzo465XpTvkcYqZDHRe0XExGWDWPFcm8y401x4u0CiJggmozeqis4ze2tyeg1/6ysLnft9nFlnOAB1MT3DJai+T2SpkqZfJvG+uZaTSOCOrMcybDDsQRBrkDq8Qhlw5c/I731p94ac7RitzGnbqqpAsjTAAyGijQSrOvhINipNKpwbVqpmbm6N6mc1stvKBQCikG164uRNV0VvVzOXZHQuf/eI9X/qKFvbCZlh0Usa3nY0LTAbqIffnZjJ3JFnqZTI3BrnTTO5+VVSPkCB4zfEazr/9+j8+qTef3+XDbWFkoTI4BVocaC/SpMY/L6nFwuHm5gY0S7DFsRkf2svN3O60UT2CTjcJpDtJyBBkbr3Von/B+rOf+cKDf/A1LBzw7jazTrL3udJSOQ/cy2TuVLLUy2TeN9eM6jXtE6mgLrpWyAEKCKhHqDZ07u2jT/+v+vALezicCaOyrg0uOqc7H5OdLcDJsqqmAwOb7sorbeY9kWKMLlWMxt4LCSZZZcWgnDlf9IqHP3noa9/grvtQzrHsCoa2USOquni2ZYGXydyBZKmXybxvri7Lc3eaoZ2GgWiyEodVBYWKoxU//trR//N3/s6b+zTs1YPSK4KQw0BY45HGmATmu9hd5LU28xvRdHHHG6k2oLZiWPbPoF88+olD/+XPsPd+drax7AFFc72CdEbHAj41lzL5RMxk7hCy1Mtk3jcTF5U4f5QpcgIgLoEp1yUn3ashx6s6/srhp5/EySN7i9CrR4VXaVKBJhnbZh5Gu3zmqF7mg9OcOwKAGGWWxesQAXRYoA26/Qvq8b5HH/rKn9q9j6O3gE4PbmB70dFEBekAoQLMw1oymTuDLPUymRtLWlFlTrnGY9YrOP7KW9/6G545tofjTjUo5ZTMzOWWbC3aKqgs3jI3iyaqJ8XpGi4zk8PJ2qwqZ8+68Z6HD/3RN/DgE+otmHWEAmZNKUGM6sU6gxzVy2TuGLLUy2TeN1fV6sV8bWp4bIIfAfWIo9WV53985t/+qTx3bA+rsh6VCpSnAVQOtsG91kIvR+wyN45WjmmqCHTKes/SmWsIKKqye9474eChR776DT7whPcWrOgCBZQntGQydzBZ6mUyHwh59EIBXGLjmawa9dDGq6u/+vHJ73xrZuXMDg169biAs5mE67EZsrFZjk+Wl9LMjSdeOXgKxHmyzEv1oLGRCIATjmLUmbngZb3/4UNf/wt74KPqzLPTA4wsICEOfDHBCcunayZzZ5ArLTKZD0SsriNA0hjzsTUxtHp19dkfvPOdv5tdOb1Tg36oSwWm2j42RX6TlTIWySvassR/mcwHZjINl9HLR2S0bIyRvbb+kyYUCN16uMfq4syxI0/9jR97BeMV1WPCJU/tGZTEpvMok8ncAeSoXibz/pjO3iatlvyTIXfQ4RUHl1ee/9E73/n7+eUz2zXq1qMyWV5M/Fnap4r3OJJVHpA98zI3jKnzyukmi8P3DLA0IhdAe6VBQQgsx53eeS918OGH/vgbfODj6C2w04UX4HRhQQ7pZTJ3Bnk1yWTeH23WtZlvq2SRLCeDwpjDlfrN59/5zt9tWz67XcNOGBUS5VJ61LTOm7ZZBsGYRmPsjsxkPiitxSPTtDMKRQzNJeO82EguMn6FSoVuNdptFU4fOfr0N3HiNYxXFSoxSC6liTBqwPTU3Uwmc/uRpV4m8/5o1zbFXGvKirkYFCobr+j4y8e+/b/nls/s0rBfV0VcFtkMTdsc2Gujeo3UU3vjw3qBma3EROqRYPROIcg4e09ocroCFfuBTFCB0K1He1Hx9OE3n/prnHgNw2WFcdSGiD1EUxc872YDmclkPmyy1MtkPgAp5eWEo6oxWgnHXn3r6Sft9NGdGJf10BRMous9wx7R5kwwwVKoMJP5wEQr72aacnMTk1icF+2G8U4SoFQqdKrhHtZ2+vBbT/+Nnz6CakNhDAC0dKUzBXJsL5O5XclSL5N5X8TquthUIYikCClUCOt++uhbTz9pp47uRtWtRh2kaWlXcM3nZfOvvXGLX1jmZqGktyYqS1EWqand1Kat266cZmNdtYkmG171081MonqT8yo1EqWWIqWYn2LET97e35F3q+E+ju3Uken8wA8AACAASURBVOP/9Lc4f1z1uryK81wkbwfGKIX6eOWryWQytwFZ6mUyEzYlZ68dpYirWnKSlQRCPma9wfPvHP7H/5fvHN7LuhvGJodAmtQsx1Pxj2vuvPl69fKfuZNh0ltqVJam8qlpC2DKQ5spg0+IbB9+zSdsBi5PnzyTc7cVgtc4j5vnMaUZtzIKHm9KMhFUodCph3s09sMvHn7qf2HpDH0or0jRaGYT2yCmQF++SMlkbjey1MtkgEbVTdugtO2xmyVajOM55RRIl1eoR7x85vDf/7WOvrKvqDrVRoFgTD23ANLC+h5VTe2qP738Z+58miAcPbbviB5PuLA5qhf/GrduOyaBriYImC4XMFUnSm8vI6ZPnisjdtcMEU8Su01ZKJXmtpAg6U3QupC69XAPq+qtl97+9v/H5bPwAVVRmy9gmlaP7MKSydxuZKmXyQCb3U+mZR+mMrAp5dY2H8LlAfUQK+eO/fO36iMv78OoWw0LOtUMvmiEI8mU4crr4N1GK/UkKiqqayZwU0N3o5U4HcxLk8hi/wSI5kYbMW6eZ3NUj+8d1WvkYdO0QRMoEmQs26NYKHSrwX4bD15+5ug//z03lrweQHW88rH29I6RPbF9SZlM5nYgS71MBpjK1cYbsQgJU0ELKSbTYs+EgYRqVevYuPzO9781eP4nezTs18MO3CRLGTUxRl4EBkFwZWvkuxkiyi8CpCH9AU7SD0EAZUrjy0Js3I4PUhNDQ3PFQYNT1vRuNyeWT8UF4deXelegGNKL0TkohgMNrjgCRizlM+ONXdXG6IWfLv3kezZYVRjHPZBGB+A0UKAJOSidydxOlB/2AWQytwXT6do2nmdmaGQfmxHvsefW4F6PrFpf+eW/rf7qJ7vDxowPCoW0IkNpzqjFAfFKJVjZk+IupC2tQ5RuxjRRzGKRHcHJ2ddU3kXphfSVcQgtU2t206wRbY8R/4ule1EpNju9fgL3ymOMNipsBzHH05zNCDUQ6rjmOAzjy6d/+O3e/Pzsp/+ds2DZU3KMdAmgTUav3cw3NZPJ/PpkqZfJAFclcNtyvenbSee5k5LXVm2MXvnlmX/7p8XBpW0YF14TLgNcFGGxWIrtGp/K6PMieLcx6aKISf1CDJRES8ItVQdAMsJj/lQgZMHSRQMAKwg5PGZWnYJFPaao9uKGxpjDZSzUI2LdQBSC73HqSTCKooOCm2xq2q0EouP1vI2qtfNvf+/ph+e3l49+WkZax1Ek38i4XyIpz0wmcxuQpV4mA1w1AyPednc0+o+pbgkg4DWrjerE68e+8/ezK+cWVXVCnQwnYEZQdMnSMIJYyaQk/PIKeLfRyKw0tAIhFcYpRc0mfRikoxSLAIzJip2aRW0SSRehAihCXSJ0iVKeCvvoFitICdIngbxUF0pgIjfflVhwl4J6MScsgnKJpEGBsE6otpdWL5154x+++ei2+fK+xxRPeTUFrfGjlM/zTOa2Ic/AzWSA6yRwATRZNBEmiXSpRrWh04ff+tv/p3j7tb0a9cbDAqGpt49rZWpFJASaBNLb2voc1bsLEWKOte3RYKzjDBBhziKUnQocBqtg6vZDp1d1+qOyWxeAmQSTl+6dqiqrUVENimrUgfeoHlR4RXcChjB1mgHTPi7xhHyPEoIo75hSyIwXJ7Ha1KRAQCxqFsOif9b6xSOfOvSn/x07D6IzSxWgbT7B83meydwWZKmXyUxodZ5IAxwAZLF6Kc2NrzXe4Nq540/9zfjFn+7xwWw9KhUId8KS50WqeWpWOm9uOVAgDZvP3EW0Oq9JxqbQWxDdzIvOhpUrAaG/UGzfO57fvvPeB+d37+st7rTFBc3MEJb6JtbWtLE+uHxx9fzp1dNv28olLV/C2uXFAjOoi7ouFEg3UXKAMMJloqzJw75rAnf6x7FNA0D8f6diu4XgQlGzGHR754u5xc/9p33/+U99ZhfLPljEGCatkDx2nmQymQ+dnMDNZCZMrO9ipXnMuqZlLkBB9YaNlpd+9v2NV5/bg3Hfx4VqUnHEQDSedU7MJpp8FqcEXw513F1MdF4z3CJmcmugLrrDTu9STc3unH3gIzP3PbzrkY9h370ouqCBpSzamBhJetCiCMx6PauwbzzApbNLR15fOfL6pbePaunC7k6n5+OOV3EnsXrA2PQFTVlFXofYgyE1AelJ/hetrUtsvFCh0K+Hi+DF5348u3v//O982VFYp1DyhW6f6T13mslkbjo5qpfJXI9kP4HW7aweoF5Zf/6nJ55+cuf6+XmNO6EyDwY4CMq8bWCEGwCYO6xAu8Rn7kqExlKFHmccBytGZbmM/lp3ftcTn5l5/NMLD34E27ar6ANdlB1ApIGUPKZ6o7Nx+ovtAQoKtWmEtcurx97YePVXl155bna0sk2jGa87HqgQL1xSyd6vobocMHc3AzzeoJvMzWOLkYOUGw2QO2xcdC5b/9LCwYf/7L/PPvppdOZYdOEFrA1d59M+k/nwyVIvk7kGkygMQQfM5WOM18ZHXjr69/9z9vyJXWHQqcdGEWpSsqTahwNAU3o/fZ/lxe+uovE3bvxLyAAGdteK7qVyZub+x/d87j/MHvootu9ydciCVggFrIAnr2SfFI+2XT0xSJyGL8trQ8DqhY0jr57+6ffHx1/fHQZzYdQNtdEFi72x+DUGK0+ierGqsPFwif8htZUoTtOAWIPjbu8cZvTA4w/+X//d9h1C0Yf12lLBHNXLZG4HstTLZICrujGiPQWSF6xDFcKAF08e+/v/GV7/xV6NetWwiOVQaaPka5EsLZpRVVNSL26cpd6WpUnUpm9bqeQEHTR3sKLVZW+ZvfXZHQuf/eK+L3zZFvaomEXRQdEBLEkjWHPyUWwc9tTsBQAUJ8+aUS6oglesN3zp9PLPvn/5mX/ZMVyerQcGt4l/corvKc1see+TsK3Ua+zFqcaAD40CrGmDzsw5zSx87kv7v/J/+9xelH2imPZaueYEmkYCXtH/lD8amcyNJ9fqZTLAdJUegKj8EGWew9zD2AbLS7/84frrzx/EuFuPCjV+Zka4ZEBc3QEKFLyI97QLXtHu6ta+sswtYtq4OJrLsfGZixMtAlh3+ufVCXseuP8/fmXmo59Vf7tbn1ZGjz0ASONYRCMcsKaXo83eSjS6Iw4kkwQWBNQpZMbFfTv+wx/0rVr512/3WZAMIVgy70viis3BXs3mqF4s2qMxQHQUhLcOLpJgBngh71WjXV1755c/6O89sP3zX/YZY9EDCjQhcWz2rUxvF68uXc0fjUzmppClXiaD6dh246IXC9MDKNRj+nD5lV+c/PF392jUrUfmnjxr2eS54oNjSfomu4krouY5dLFlmUT1kmNyG0dz0WqyLvvnQkf7Hzz01b+whz+mzjyLPlkARRRwydUkNVKklGsatdIGmaO/42TySiMMJQmwIlxeWn7nHYK1FakJV6I74Ejas1V72vwVbVNSE6eO0s4aI3BOJ2TTAQIdhX492tvpnPzRP8/uPdg59En1ChihplyvCd5NAucT55e2jDV/NDKZm0Vuhs9krgzpIU6ekguQAuohTh87/ePvzQ8uz/moA0/ZXTL+b/LAdi6CoVnx2SxjzB24W5vGCVke7XqiXJNEC7Sq7J3z0vc//NBX/xIPPqFyAeWMrFT0a2zKQ9PcC5EeSz+Tffc0E0ug6JwsJ1w+RhiG8+8c++enV4686QXXi85FlRtFv7YymEW/ZkKabgUGpr5ecYo2owBhhBGbdt2c9cmCrwxhrhrMrJw/9ePvcfW8qg14iMHEFPzePFGak+srj3WH6S3MZDI3gSz1MhmoWY2Y5mWwqUZy1ENsXDz1b/9kpw4voup6be4UAQPFTYtWU08ltGtpXry2PK2ISXFe0NIUvBQadrFiucye73/o4a9+wx58gt0FdmYEi2lSpXgbxPQsIpphtgQC5LHtVgrNyaZUQSdB7vWI1brOHjv+1JPjw6/NlcWabG33vbv/85+M9j2whE4oOmJ8dpIirI3kTX0NV9zT6EGl21M6b1LhIFIo5F3V270avPnCmR9/l+M11UMqsB3PS6a2pahWJ1dWllK9QL4KymRuElnqZe522pUTgDfLNkjCUY8ZBkvP/ezSS8/u1KgXRkWMVTSPTL0XV0X1knMa8uK19ZkaqSdG9R8n5EkCRQtWbpT9tZnt+/7dHxaHnlBvG8q+w0zFZMJyamtFmplGpW7XmP1MnRBxd21Pg0EiBa+s2ghnjx9+6pvjo68sFFoPqnbdc99X/7z3u38w/4Uvry3sXWW3tjJOO0N7HfKerwxtqrdJG099FRrbSILwwuu+j3b68MIvfrT22rPU2Oux4Jr0pccRgWyzt2nyWg54ZzI3mSz1Mnc7zRqmlKFKwQyXAjXSibcuP/ODndXGTBiXXivOIo2DQdsa98xdjDYR/XUC5GScscJR0b2ozo7P/t78p39XxRzLXtRHMcTWTGaxpPfagJoIORCg5qcwskixvBg4pnsYw4fVhXeOPfVNP/LyfKH14NXu+x752l91D306zO7d9unf2/Fb/265MzewMsR6AxUSeKWnN99vdC32bsSxuYBMKkO1zatt65cu/+RfcOZtoo6tHWwjikIMhLfqtrFmzgncTOYmkqVe5i6lybWqKYFnUwgPwgknKq2cO/Xj74YzxxY0Kr02OSXGWqxUqK42TJLXqbuWptsg1s+RLGKJmshg3VV1u/c9tu93f1+97ShnoII0NZtikhglmKx5oj5qBNJ0eVs8WwU5PCCMWW/UZ44cfeqvx8de2VZio0a94+AjX/tG59AnVc5bb0H97Xs+/6XufY+s20xthQTRkwmQGt2Yvv7akmtSqMA4KFekoELohPEOqzeOv3b25/+K4TJ9LLnia2mEnqcaQ8Q2lCllmS+cMpmbQpZ6mbuUJtfKJpoX11SLPbUKYw5XNl5+dvm1X+0uQhlGBlfK0TXNGEjz4Cd528zdx2aX4CjLohOK1bBB0V3vzh/8wpe0uF/sgiWmKtVipUDzDK3AUtu+m86v1NfN1hSPFFSxHoRzx48+/aQffWlbETZqr3YdPPT1P+89+DEVsyxnaR2Vs9qx/8AX/9NKZ37IrjPVmGpiBHS9tox3ec1N+1FTdgdYfEEm79SjHVZfeOGn1ZsvcLyuUFGBrUVLNHRWOxI4p24zmZtOlnqZu5QmMBEbAAHIREqg02vUAz917O0ff3d7tdYNw1JOB1K4pWgiIoRAz1G9u5rWExipYi8lYWvSrVyqseMTn+o/8lF05midpI/g8WohSbfGQqVVWkrVeeYyqWlfjdVxABgUxgwb4dyxI9/663D01XnDRuB49z2Pff3Pe4c+rs6ClX2hgAxWojPbe/ijOz72mTX2RiwdBkwubn6j19xE9VyKLixKUzUgLz3M+mh+4/KJf/s/fukUwgBy0ZPCbSe8UZQ3bkT5w5PJ3ESy1Mvc7TQZM1GgQXLVIxssn/jhd4vzp+Y1Lr0u3NG6jjXbTgYjZO5ipg1QAERzEgmBHBXdetv2/mMf5469KntRBSaZpImrMJpOiaZOtJF0iI3e6TSjYmO4ox5bGNRnj731D9+sj782b1qvEXYefPTrf1k+/HHvzKPTd8T5uSQKWUf97bs+8durndmq0w80T/2w0S150kL+ayi/K7K9nHoMAcBg9LKuFjUKJ986/ZPvWVj3ekSldC8aTxnmWHgmc6vIUi9zFzFt7hVDGpQRFrNnKVanyny09uLPq7de2o5xN1SFPCa7mtZBIS1WihZ6OYF7l9OeV8kdL6VHy8uB/fsOLTzwqLwki6gGzUgWZJohkRxIICAw9aOmzh9CFvVY2olIKYzho/G540efejK89dK8+Yar2nvvI1/7i/KBj6mct6LfmvGl3g8r0OmVB+7d+fDja25iQTUOyFMhyekb16ftOSdIN8QMsxuj+UqctFG4evV4MYzXX35u47WX4EP5WJCQwn9K5jJFE7PMIzozmZtIlnqZu4hNWbYmsJBW0Ng76QEKo7PHTz/zg+7axTlVpYdUSNVUx9MbP41J92FO4N7VCE0raeMlArIi687M3P2HuLhHVoAWuzHcN7XsTlmqWFMOEPsXkjCKJiUQQZdXDINw9uixp56sjr660OHQrdp18JGvfqNz6JPqzsE6gkUdiWSREhOrZbF9z9yjH1tT6VbEUoXGL2/TJRDeI7bX1tx5vOoRnfCYZmbjDGjw0qttqLl05vwvfsSV8/KRFEhHTFu3rkRp7McV83AzmcyNJEu9zF1Eu5K5e/uVbIahKage29ryxovP1KeP7Sy8CGPSidRNqYlFxCYLvRzVu8uZEiutw6JGrs6uPbseeUwsyU6aUTGJn6WvaeKsKJnaHl40Tbmp+C+QDh8zbISzR4889Tf14ZcXCgwqH+848JGv/1Xv4U+gnLGyLxaIfeWS5Eo2f6SZOv3uwftn9u7bEMSSSAZDzYu4ejrtNYmJZRHexLadaHxj2LYpycAyjHaVYeOtl1Ze+IVVG/CR2slvjQ9z/Aw2Ub38EcpkbgpZ6mXuUqbcMWLFu0uBPhyeeOP0z364A+NOPS7SD0nGdXiSYKNyqV4m0eYgLeoVUSzGKMbz223PPWKHtBQHJsyMyZA4dn+nbtuor4y0GHpWI/zkhLuPWG+EM0ePPvU34eirC6ZBwGjngce+9ufdh57wzjaWPQE0AxGnjUm1EMQACTS4zezYM7PvnnVZMFMzRVcpljZJob5rVG+TCZ8AqIhDctPgtfjqRcEN3g/j+WrtzM/+tTp9jF5BQXRpshfF6kO83+BiJpN5H2Spl7mLaBO4loBZXHVjQqrixqVzv/jXmY1Lc2FUeDD3VICElGOLRVU5Y5uZRk04SkAcYlbLQtHr79yn2TkUZWraoE1X9U19bepHm3hcY6EX50lIdWX1oD577M2nnxwffW3eNHBUO/c/9if/rXzkE17O0bohZVAdHuRjw9jMDSNqHA1RnIaFHWFh50BWF4UTcE3ZgP+aZ/MmZ5ameZgptB1lazTbAwp56fU8al48deEXP8LGMlVTPq3hzIws1JZVbL5xg34/mczdTpZ6mbuI6WW1rZWSBEWDlfXVV55dfv1XCxh3Q2UIKVaBJulEUbGJYxKGyWQa95AmSmeoyNDpLew5QBSgNeNf0+lHOuBpOAuir3C6AdRNB4bHBgaFMcJGde740af+2o+8vFhoPWi8+55HvvaX5UNPqJhj0U2+KiAk+NiGa6uvvXDs+0+vH3ud9UBeESJNRbe7Y5d6MyE1kMRuJGsT0L+Gxrqm3/LEMIVNgWCcpmEK3Xq0A9WFF5+rjh/WeAAFwqFJ1js5l2tK5E6r4Pfh7JzJZK5N+WEfQCZz65hayeQuM7rHvsCgesMunT39zA921MNePTbUiqEQULK4HjVJ2xjpa4r2MpnUPJHaUx1W0bzX37Znr1iQRlhjosJkoRIft8lyJN5oppM5YVKozIf12WPHnv5f9bHXFw3rQfXOA4989S86hz6ucpZFDyzQmtUpkH7u5WePfffp9Qtnlh869Pgf/Vn33keisqJjceeejW3b66WVeO1idIdPGSm/J1c7HvOKGzGw5xRFEzoMfR8tjJZP/eS7D97zoBeldQrAJUu1r0kHE+5kyu8aGbe4xg4ymcz7JEf1MncdsbCKbGcVQF4ZqtM//wlOn5jzcUdOMdlINAGFthWDzZqcF55MIs2NoNLAMTqLUJTlzJxo0VlYzSTY9IB2WIuaXG1qzmUafkZ4GDMM6rPHDv/DN+ujry5QG7XGO+/5yJ/8t97DH0cxw6IfY3Jszf3kLHDm6Os6d/zRWYSjr5x99iesRvIQW4u6M3Nlt5v6PaSpsbs37HRm/IgpvSGEuh5mw2Dj2BsXX/y5aawwjn0ozZi31A3cjN7ICdxM5gaTpV7mbmSq3U9SjTAOJ95cf+2Xc9VgxqsCblKR6ttFBABAyHmkzNW0VQGxXQdpKqzVKGQFaZoIO1yZ9PQ06KwtX/P4hJTCyFIfxl+HI6/Mm9Yd4z33Pv71v+w+/HHvzLGcEa1VajExDBBBOxYXZrtlMdqY1zicOeFLZ5ksV4ygRydmNPZ4769W79eDqT8jPrmFetbr2eHK0ovP+NIZ91pyAZNMrjxmc5suqHRDzXvizY1MJvMbkKVe5m6EbA3FHF7ZaPX8c8+E08fny1CEmnFuQVOSpxy/y1wfTpKMTcSOChJo7M80qirFuq4MVE1yk43RiUA66pGFYX3m6JtPP1kffX2h0EZQvevAo//1r8pDH/dylp2+WBBNbK55BjNTCPc+/JHZ7durMJ5lCCtLo9VLtDisIjr2RYE40XY33OiETY9xcqAhSq8WrQ5vH7703E+LeiCv0jC11nilDXU2HbjtWzf1zmYymd+ELPUyW5/NfRhKay4hOVSb6uHbR1beeGkBoVONjJ48k02iMRnSXlGHnskkmvTj9GnG1I7qrtR1kaoFNGnmboz1EGNgTZ0Aa3iNMBifPXrkqSf9yMsLhW/Uqvbc88jX/rJ84KNezrHoQRbTn3Fwc3ryeAhG7txR92cC3CivhvWoip28iAWDKbHayipN9OKNe0/SxyweGryAeqrnqo3LLz07PHWUcKY9xzQy2tjm1VE9ZKmXyXwwstTLbH24mRjTE0Q4Q4X1y6uvPKcLp+dZm9dxPWTqqEyxP8AAyytO5jpwkhGFCDe4uXM0YCzRm7SaxjbVJifZzCWLqsdIyFFvhLPHj3/ryeift16r2nXPI3/8F52HP67ONrAD2OSqhU2PeJylFndT0Ah4GsQRu20hibHtl9HHJZ3nmwb43qC3o3UObAr2KC9CvWhhePLY6K2XOV6Txmzk3vT8jLgmcfPnLV9jZTIfhCz1MlufNtjiaShVzBPFpr/R+MSbZ5/96a6yLsPY0mRcpI04GXSVpV7mmrSmIWjGW4AyqVCtuqZCPOPSYL00kEwxyKbWfiX92BEqv3Dqjae+WR97ZTvrUFe+a/+j//UbvYefQDlnRY8sortLtGKmUitDejhcHnT+fLmx0QEdxrJTlJ3YZEQ5FIpmzl/0ZmlLGW6okEraLPasxzJGUyjr0a4inHv2Z9XZE/QR4nS15Cad/Fc2GfdN3Ub+4GUyvylZ6mW2ONNLWJstUkyZhTE3ls/+6mczw+VePSoUKKWBplNP0HzNCdzMNWiCaxKdqgGn0IGX1XB4+ZIUUiNE7EmNY9BghLE50cjWWS7QR8d/+sPRicOLqIowLrZte/QPv9K57xHvzrDoqBmw28y6iBcmUTwShNeVabx0+PVw+VK/sJGrXNzdX9iZAooFVy6dH6wvd8xirHH6hdxQIdX2rQfJEUOMgEmzodLFU5ee+ykHq/AadDVjqGP9YP68ZTI3nCz1MlucaeOG6D3GOFDea1Qb1ckjS2+8uMC6DDXhyTJZbPJZ06sMm1QS80qUaUmSi0l/QTSp8JpVtbF0gQiUYmkak8NPatNVM2ZDTd0eQbgKKYS6IAl1i3I82IBZ6s2N9n2QIG8Cz0ghMdBroh6dPHHu1ReK8QDk0DrlnoO2c3d0/obXw+XL9XC9AOMj0PgJMR2PoBtyQk/icXGGBglKhbyj8YLGZ1/8RTh7gmEkeSOU2aTBoanH589bJvPByVIvs8Vpq87bCvQU3PMxR+snn/nB/Gi55+OSoem31VSR+tW5o2vmlzJ3HKnHM/UrXPlvuovh2g9vB7k2fRix4bSIU/Q6ZFGNLp1+W15HT7tYE9e0mkqQo52DlhoYRMo6D3z+i9vvf/hSJZXdjcuXjv7LP6++/KxVQ4Uxkx9dkpVN84NIGijBPJx99eWlkyd7M/3VAO3cv/dTn/XObJyNy+EwXLpgdVVQhCiX4Cn1LDXi70ac0O1Ho0hZWcZ31LsKMz6e2Vg6/8IzqtYZxqTHYWpIhjWbPlf585bJfHCy1MtsfVrhJsUFx+U1VW8cf3144vBsPeyEKkY5FJekZOaKKUuvdsVv7882e3c0U4E0Epv+RRnE6xllS5PquIl5cZPJnXQheIXlJa4uwx30VlWmEwy02HqbLElEkSxU9rTnwKH/8qe9hx67UKHb7XRXLp74P3+78tLPWa+jHlFOeAoTJrHaNGmQgrHbH1r3EmcvdBfnn/jt3v0fgXVF0oNWlrB8cRa1eQ15tAGki42x0I2L6k3SsPG4GjUseeignq0Gy4df44VT8nFTwxiPn775c9X6rrgmtzOZzPsiS73MVuBd6nvaBK7RoqsrJYWK48GFV14o1y7NMpgck+UyqrzNVrdXSr2cULrTeZeoHlMXBdqo3uaatmRrwqlocTv7AgAFJ70PFauXBscPUxU8gIpaKlWlxTEVrdcJ0hwNWolyGw4eevCPvzHz0OPLY80W6K1cOP7t/7364jMcrymMqEA6JkKzcfajgcXBT/72gc988ezsjl2f//17vvhlL2at6ECA+fqF0ysnT8yZzGu08zrQhLKJqZf8AZkyDGyd80hJRhbyOQaeP3XquWdMlYeK9Gjx3IQ5m7Bqm75tm6OQw3qZzPum+B//43982MeQyXxQ3iXLIzWhOqU0ERToo+rwi5d/9i9z60tzYVRKhMssFsc3UwTQeKxMP9/0/XnluXNJedQ4rBWN1xwowtpxx6nAczL+OD0q2hVHGTJVFUCL0x9MEFF2VkZVNbeweOhxFV1aEU8th5ECzNGWhIK05qAMVsI6nJvbceDgyoULq0vn5ktyY+3SOydmFhd6O3e7GaxEGszcnH7Rq4W0mdndhx598LOf3/nYJzi3C50+aFTF4eW1F55Ze+1Xu1iVIdjkXYivUVR8hht4QrevLhkpC2ZwCiTH8nHQtvsessXtYEkaZEaRZphoO7a1ja02Vf7MZTLvjxzVy2wFptJFmIQE0BRDtcEXxgrwmuO1y2+8ND7z9izrQt6EHdQsnjlQt+VpE7g2ncCd6gEAkvlxFHdJD7bdOskhj6CR7UDXVO9JuspQzWhUnzpeK0EAMAAAIABJREFUnztFBLijMXVsvvp0IWl62mizbCW68zpw6NAf/dnsA49frny2RHfl3PF/+t9rL/3c6g2FIelkUy2Y3FII66joa3Y7t+/H7HZ1umQhil6F86eXXnlxsUDhAfBo9YfmVSC9Il0dxfwAtJ9LT9da8QMGlqFeNA1OHr386q+sHkkV1fgPJjua9HtoA43S5Okymcz7Iku9zFZgsqTE9WoylUBNLVRcZ0V3KgzPvb321ivbLXRDZfLoTmZqLJYxbdqaE7hbkmtIPaWCzbZ4jKQlc57YNkA5BJjEAHNaTQuw2gqnuTHEpCxhhHmYpwanTqwdfY31QF7HKJWlQkAZogmL2hqDJtcpoKD11Fvw/Yce+qM/m3nwsaWRzxn6y+eO/vPfrr74Mxuvqh4R3j6QSfdRNBYlrAfrEYUA6P9n773f5KqurOG197m3UndVJ7USQoFgMEGAA5KwxyZnG7DNzPt+P3x/3vfMjMH2jI1kjI3jGAccBxACOkgodFC3OlS+9+z9/XDOuVUizBgDllo6SzyiutVqqm/d4q679l5riWad7vw72eLpmuQQYW8G1uEIZSVX34tPrgnw4vel32kkgFhRtv2G9lozb2bLZwlWSVSl6P5QVRVvePH2XA6UNEp6EREfEZHqRVwJGExSFQDC2lGITXGEz62ga0ZZuz/zZnvh5CjlpHlYURKQ9X7IMNeKDtwrF+/b1VN3g+DHsezlNutomCMeFqRKQmxNknPao6SDcodLXZP2KM0oFU4svM+BlUo2H8k6a3/9g10+S5r7b+DzkklhCopGwfVNQWGDY2yVuu668cDjz1auu+VCppUEtY3FUy9+Z/P131PWkrynwR4UKKP7Wdj9NApSFcp7tLly5o+vjGq3pD0TfmR3GApRkGDJx/N9UncvAx8uAEAUBH9UhcU2SDfn3+6ceodsXzV3f+hkdSIiDslITmeP91YREX8v4q5exBWCoT1wwJdEhaEYimYAIenJ8ulzPz86srk8kndZrVtLB/lg2nBhiQTuCoUL0NbAQoKM61918qcNuY6ycBYIcc6JTdI+p01KN5G0TalTHu2URjulWi+p9krVtlJXkHNCSaI+/USTJF3fbJYbY5U9+2DKIAMa/FedifZ9JxsBIXOZDdhgpD6xc2drZbm5stxISLvtlXffrY6OVKa3KzOxCetwLmWPgeKnUM173N1c/c1Pmq/9YUKaJemz174pqGT+yYa3iW/W+CSO9fANkiNojIEsRwTtg/vg+r7rqFonY0J3hr9Tg9+BVL89G++tIiL+LiSX+glERHwCGEhtBLgNc3d1ISEwwKSigEIo6/ROvd06NzeumRFht23PFCI04nXkSkdYyfOdKeFsUVXAOP8sIBq4hgUJEUza5XTDom/KZmJ7f6RRnto+sX1XpTaqIDYkeb668G5r4Wx3Y2XtwmKD81EjlGWc98dSnv+vl2/ac6B0/UElZpNAvKWDgguoyAMC4D/lqzVUk5KCaOf1Bx771szR59bmj4+nzOuL8z/63n6m+m13iwJplYRBJEQEsKooMYnajGynd+rE4qu/HstbZZsbFVdXVqh37h3jfhu4XD8ZaBC/NUyQFEQQZ5VSFls39vRbr08vvFsd2y6mRGQUSspunkvgYr78CT6tiIirDZHqRVwJKDIZvFoRikGhhU2SiCwkR3fj3Gt/bNhuyfaJLAmUQf5awuGyH0Qfn0MR+d+VgyJj0fuyh84X+IAVz4SUyIKzpNTn0oVMbW2yes3e0d37d9zwWd59LUbHkQuYQAZQqFyjFr12f/7tpeN/3nz7jc0Li+MJV8RWJR9pXzj78xcPbNuh40Z5BKRQQ8yqQsTF6FZEmFmDP4MgCoYqm1TKDey6/vonnp1/4dsX5o+Pp5qvL8//8LsHFKMHjwgxmZLCkLI3NxBUcrUdbCye/uWLpbWlBvJELAvApHCeVgrbcOSzWhC0zU/iSF9MG/1xJ9/3ASYVaEn6Y9xffe1Pu/ffTOkI2JAyWEP1m99i/ASeTkTEVYw4wI24EjCs6oUVd/gRlVP3nPE2b+HMO4uvvDzeXa9KMGQQu+2gwrzheB8FkSNeZ64khDC5oBVRsZ7n7KEKghALJ32TdtLKCpK1cr1xx5HJe+7fcfi++u2HsW2PVhowNaQ1JBUkVSRlmKqaKtKKmd41dt0NlemdBG0uLxu1qWoK2dzcAJuRfdcqDLMhYgWgF59cfvnAR9CBwM5bBICJTKK1kfGdu5rnlzfPL46ljG57+fS7tXq9Mr1DiYgNfBaxQnO1XW6vrv7qpdZffjOFTiXrGgW7nGTyJbhwbwCfq+cNE5+QhlaYlVEstrq5si+RY0c2IaDVfr79xltodIJMSmTg2wk9A40LFRERHxOR6kVckVD4a7lL62cAKl3KWmd//kOcPFHXbklydiM0YLC9RYEWkhf2oqp3hWEoZbH4jMITIBKFJbactExpzYwsJ/XR2+7eff8Tk1/8SuW6W7U6oUmVkgpzGcwgJjLeqEsJwMSkgHJSmpwY2b6tajQ/v8T9bspqVJYXzhmikV17hFNwQgQCExc7aeTvUVTJa9J+r9A7UJmVEtRGJnbtbJ4/31w530hIu62Vd09VGvXK9HYBkXESY468zZ0Lzd/97OwvX5zMN2vSTUVIBUzFngP8GlzhP/bP5BPa1XP8bDi/L9Brl7gCwEnqZHoWpj5VvvYAOAVzeFr+3k3jDVdExMdDpHoRVySKuY8X66BC0sfS6cVf/7i6vjCCPFGLcImlsKYUknLDRG8gAkVcKQhLcUG7Ch14BIHJTZKZ8gWka5Ux2XvTgce+NXXo3tLu67U6AS6rKTOX1PseOJxmDBC7rjybMVlqr/WWzuRn5tL180mnheaGEWtISioLp941zCO7dysZmISKPj5PaiiQvuBDYE95mMlv8LHR6ujErp3t5eXNVe/SWH73VG10tLJ9h4IIFtLn7trm73526ic/mMo3G9ozNuPQAOKcDoP/GoIvRYuooU/qfB9e/aNwyHW494KUQNyzup7JtptvQ3kEJnXPKtDf+P6LiPi4iLt6EVcsfE+Ga7HSnDRbnXkTa8s1iJEcbvublYPrVoIHVxiu+cBtz8frzJUEouAVUBAgYUtPYHJO20npgia6a//0XfdM3XlI69uoVBUkjERJiBhObmInCxKIVJTIqrWwbepuNmePt97667nX/2o6ayPSH1VbZSJlI1JBZxo497OjpJg6cp/wJEyNOFViFw/k4vvCMiG8dxwgJlWBEshQUlYQdt6w//FnZ459+8Lcm+MpzPrS/Ivf3c+o3/w5IeZ+p/W7n7/7sxem+ht16bLkxi3IEbNCoI5uuY095TBq/YRlbPc9ZOix19pBQspCRMoKNZKPmDy7sLg5d2L0rmnVHJQSGFT83TjAjYj4WIiqXsSVgKJ1AMAgElaVmFUtSFT63FlbfuVlOfXWFOcsljVEbQwGS+H6P0jeiAPcLY+LzK1wr60OCbekRJaSflJdofKF8vjobXcfePSZ2m2HtNJAeYSoBCSAITYu4418YIv3FxBZtZnmLV49e+bnR8/9/Ift2TcaZGsEEPpKPSQZMUwCEEteIV189yQ6rfr0FFVq6jbWGACrOlanAJidXSMQPyVV8fuoTGoSVEcnd+5sLi1srizXDaPbunBqbnSkUqJ8+ZcvLrzy8mS2UdduKrkJewqDqGYUw9oBz/ukl1ML++0wVytiBMP2nvtleKOfZZXR8ZtuEZMy3FZh8VTi+y8i4mMhUr2IKwHDfQM+c9VxNXjJhmy/N3d84/e/GO2uVW3PqDJEicMQzhUcuAfqbIxxenRFwBdCFFB1+2GuEoOFTGaSrqks2RTXXLfj/q9v//IjOr1HTZXTmrrsXz/whDvFFAoVMEMVZCG5Zi1eOjl77Pm1P/16wnbqTH2RTYv+yHhlxzV2dDKvNVY7/b4SMaXQsti1M+9uLi2WU1NqjCm7LghQWBilcOqy8ye4SSfxwJFKBmS0Wp3YvbO9vNg9vzTGNuk2N0/P92beaJ3467htj0o31Zw1RA+57xGyZkK+oDN9+Mef6LlO73tM8EkyrGFoTmBHu/sg4fLongOmMQXylcHqukw+jWcXEXE1IQ5wI64EDKt6XkQAAaLKRCQqnHeaJ9/pLp+dMopcCeIkvKDYEQqpp7ioRz3vSkARWUehSsUVYwBkMnBmSpumtF6q1+/6/K7D9ybXXKelUXCJKAnjRmZi/1edlEcENVAFidg+ZW1empt/4fnWO69tSylXnNdS48abb7jlDpremVSrqlCb55vrvdm3zx//S2f1XJ1lCnlz5r9nz8xf8/l7xj7/JZ7YieqIUkkpARuAoQC7IjEVAP72w1XtAgQYRlrW7Xv2P/TY8tG2nDwxbri3toBV2ZZwKpkR62NUwtKqFip14XSgMLfFP4BJaWB7g31JN8xlwUhKiwun1+femrrmgHAZZEhpsEcZeV5ExMdApHoRVxrcvtNgigslVVlf6Z2eH0GW5H2CAKrgocBkrxwMRXh9ktvpEZcOgfVDSImMH1fmIMumm1RX1OTju6798oP1O+9BdUJNmThVSoLk5WqTQzIxJKzoqcKqzZE1sTg/d/S77Zn/nipT12p/ZHLflx8eve0LNDqGUgmUOHZZslntwC1jt961+MsfrZ348yT6E5pX2/2VV14688ZfrrnzUO2Gm8vTe1CfAlJVCAgy8ExAGSRKUPGVskRCZNHZ7Heao43RfmqSfrcEgJRy58BQHw4+CIukguEhEKhizvrpn+5ekiwikV0PISBGqaJSytv9M/O6sUZTNUiiZMLNVlT1IiI+FiLVi7gSEFbuXLuTWzcX97uqJcrbi2dWZt7ca9T0c1Il+Ozk8A2K68iwAhSvLFserlxMYV2GnLi0OsCatGmqq1Sh6275zAOPmWs/I2mdkooSQVmJVYWU3MKcT0GBf6gqIFXbR69FyzMnj36n8/YbE2Xq5tpq7Nj7wJP1g4c0rWtaBhOEXTgeWJDWaF9t18QEfpiu/Pk325HXpVfNsu5Kb+HHZ/D7bdM3387XXFeb3lWZmKL6GJIyiLy71/dNKEHQ72Jzo7u23F4+q6dn1974U6W5Ooac4MwdQv6Gh5UVMmgEed+hcWwW+AeSqfes1QpcPZwa2x8zyeqpmfGVhcrkbrASRJSVmCCR6kVEfBxEqhdxJcBfP0hd6xK7OnkXR2Zz6q7np+fKeTuVnFXYuQ51mM0NR0K850HEloNeNJF3STruNgBkyWQm2aDyeml88gtf2XHP/ZjapVwmLoGSQnfyKdqqSmC/0ibBJKtie5Q1aWn25NHvNGdenypxy3J3dHzfA0827vySJCMwJYKBGpdXp+oav4ykhDHa9cDX+usXWnOvTxBVbL9Eec2k3c2lC799uW9+VZ3aUZneIfUJro/V6mNISo2xcRVtNdc17zc3LujmBq9f6K0stZfOVZE1SGqaJ5KzaogLEvUrbgg/zPvuXugiJe8fMyL9IPuUz65mlQrZ3vlFe+4k7b9ZKAGzW64McmC8/4qI+DsRqV7E1sbwMGh4aKvEBHedsHZjbeXEa6MQkpyD49bloUVcifDngSM7KmDXckYkZHqmtIq0N7Zr74NfG731C1qdQFIhSh0vQuGv9fKwX/kEwKyiShCVPvVbtDQ3d/T59uzrUym1RbujE/seeaZ++2FJRiipKIyvvvCshkRAIOJUkxFM7t5x932zJ2dqlNdsnmqe2Lyk/YZJMmSdpbnO4lwHLKbUrI4om41KRUBZtwORvNPkvF+BjJBOMxLNKLcsYBKEFBUBO8U6aNSDIe2lRbEfMdTH4d+MBCXbH0vKK2/+d+3WL9BUVSlhn3+uYb/iUj3xiIitjUj1IrYq/OV8uA1dfUKKaHGhtrA9WV7onD87pn1WDRWnHNrdI64oFEIRVJXEUX8BCZE1pm0qq1Sx19x43cNPlQ/cIqZKaZXYqLDjY57dUejKpWL1M1Q85BmyJhbn5l94rj13fCLlVq6dxvS+h75eP3hY0jqZEsF9NxIR/6xIIe7vJ0QEUyvtOTB+/U2tE6/WGCREalmBXNhSSmaUjbK1sLbVEVbZUICMiyUhMomyWBZLuWXVoIupiwhSUWIK3o2iskIvB03s4hszT0YJpCogYtEq8tPvzuxaWShN7HRrlk6fB3Hc14uI+LsRqV7EVsXwNaMYCbkrHAMAKVlVoax7YfZ4NWuXxBoIu7ltSHuIuMIQwlDUx+9AFZwTWVNep/KaqY0fvHvnvU/wtj1iqmTKRFxMa0Pem0K98xMCIfHMSa2KRdaihbm5Y893Z96cLJm2lXZ9au/DTzXuuEfMCJkKket2haoye+uuqrIh97zArCbliW3VfTecP/5HMgxYWMfLxCiMKiRXqDBYgxyobmHNjYOVXYesKsBuzgyQ+lBo0NY5uxkQ16KhZCCp9Edsr3f2VLr/ZqQjIVWaKLrhIyI+BuIIK2KrwtE7DQDgl6uU1CkxCkiOrLM8d6Jms9RmJOK63hUUrxxXGIrzwYXTuaGrwlgy/aR6gSorlckd9z25+/F/oem9mo5wWiUkShw22aiohvXRjEEwgwpgVXNkG7wwe/LYd7ozr02UqCPaakzve/Qb43fco2md0yqBFWFrVIPJVDxfceemI2ZaqUqtkZNRBcRHJ4NImJSEVEBgVUCMKIsFhEUYQlAmJRLfM+bmthTYaojPG46yu7iy4lLiovzL4kP3J1AmKYmt2v7y7An029DMO2DCj3YZ/AQREVsSUdWL2Np4T3bDoCoDBBGyfVo5x5sXUrGJ28zn0HJw0cJQxBbDB77oABA8N1AIkLHpm/IKSr2J3fvue6Jx1xExI5xUwSmU1Y9qvZRX1OMitCKrOluFFcmp36KFufljzzVnXt+WcstqZ3R6/0NPN+44IskIm7L6uW2QojAojHDf3FfAujVRMmqMuopmcUEqGvywzkouYX3QG8s9L1INBX7ebO4moH4SCvi1tuBNGdrSu/Tjz/fbMlzAkbj5snKiUrbZ+tlTtLYio1NkUgVTUeTm5L9L/mNERGw1RKoXsVVREDWXiOHmZcUln0gUOdts6fhrSaeZkjjLLcNl7sU9vS2M907tC94QEnoJZIlyNu20dEEryf5bDtz7aOWG2yUZ5aSslPjMFUZxJlys8qpf+3R6nvSp16TFudmj3+k6H0au3cb0voefrh88IskoJWXVUORVSIFDicXue5LnoQQAeY+yLkMokDlhsBAgAmJSQJTYOWh9RZ+6bx/sxCEFUgG/fSr+CxQF6Ss+uIxsGcPmDPUUm0CO7qKkWul3N+bequ+8DhBfEeL8Gf6VioiI+GiIVC9iq6K43l8kEriwLhFAIVa7zQunZkv9dgJVCJOoFsGyUdXbqvhAKRfOLUsKsAXnJt005RWqVG+649qHnjK79ktSI1NWGL/wRspu3+0DNttcaA+BrEofvU1anJs9+u3O7JsTKXcs2o3tex96qn7HISmNUlIide1eg+eGIZ2wUAsJJBCCQDK0NszKUgohFYXbuPMsMUhwhlQVVkLuC4gEYJcPzuq7M8iRRWcyHopMCRrgPyhG5e8FeRoqpFBiqKYQ6m4uz73TuLsrplaQ1qFVysv454mIuCwRqV7E1sYwXXOtBm6MR6oEsecX0uZ6RXKjwsP5XBqvF5ce6r0QgH/gf8GPMN+7iT/4+rCW5z+v4Q9JSdkS51zaTKsLVNn+hX/ade9jMr5D0hohVWEQmCFCXDTphdsDb6SAFwYhmWqGbIMWZuePPt+ePT5Z5o7l7ujktY883Th4RNIacYnUwIfvBfWOCEPzYHW3F+QVN1WhvK/Li2uzb9WYRKwhgoqX57yPlpzp102SC87oRDy/fzB8WPx/ODha4ZW8EFBy+Z7tnrKrOoOyITUqFZt3zy/p+SXaPaYqTBxm25fpTxERcZkj2jIitiqGJ3fF724kRPD9UWtnT8r6+RpZ1pxI1G+EEwbqScQlg7t20+CBL/DyD4YojvvlZpE0RHOcputefIUqKCfuJel6Ulktj+269/Fdj3xTx3YhrROVQAbFGUIDQ8/FJ4/L4gYgQI6syQuzc0ef68y+MZVSJ9PW6PSeR78xdvCQpiOc1AiJhjwW58Bw2d3D3xn+XBWQAkK2S1lz7fifegunRkhYhnbW1H8rx9oIrGTY5yITKdiHt4ClGIUaBfvDo3BHwXFGKBT8XmJ4+aHQPB0pZrIjJGiubJ49SV71JAKxJ8GR7kVEfGREVS9ia+M9W/lhmYkEVvNu8+y72lovGTemo6FJ39Aif8QlwoeoegIgTCipYIEuCNh9tRP2GOQm8arkGrYsuJeU1rm0NrJt7wNfH/vcPVJqcFoDJRi6NxBRJhX1pWfFoqd/VqqkFuihv8kL807Pm0pNS9BuTO1/6OuNO48I1zgpfBgi4uJ7FACHpQJiDouArtoLgEjWZtvqvPHq+T/8eoLyNO8bH7nn/L6O6flms/Ah3MaeBtc4uXmm/yQC5/P/MQqfAUBufe8yZkf+PVjEmatCpJQINtc3zpysfy5TsqxGyUAFxHGAGxHxdyBSvYitjffQNRUhkJIlzWltNVk/ryTsE3LFiQbQIQNnxKXD/zjAfW9tqwu/ZoWwMyGQSmG3VSEWMj1TXtFUtu87cO+To7d8QcoNSqrKBkLE3k5b2DgpSIe+P9k/EQWsag+9Ji3NzR17vj17fKJsOhk6jW37H3m6cfthoSolZSXjVuf8maSenDmBseBmAEEFJApB3mXbbr726tmXvl/dXK5oRmqhzlKryqpQFhYWAshFzoEDVRsMYgsmN2RwQEEDwyErXLe4nKlRmN862VMZRIpEcqMZrZ6n5po0au5lK/zEMUg5IuKjIlK9iC2PoQ19IWKFqArBtpfPdJYXGkwk7ipuCDaIJDFW79KjGOACwYJJIGFlWAaBIBAGC4SFhQlQykmJ1SipMkhJoGooJ+6b8nmtyrU3XvPAE7Wb7hSuUlohNa7F1mtufsffVcR6xqCFTAZViEpG/SYW5+aPPteZeWOiRC2Lzti2fQ8+1Th4WNI6uAQYl2hHxWi0MAywK+YrzkkwiarVvMvdteZrr555+Qfl1YVRlsyCk5LYPFFrPEFkt24IhHa2QNicm7fYyRumO+9jzOHHupxiVj4M5N+0AmLAAMKAVa0YtC8s9JYWSmM7VC2cEZd0mMxGRET8jYi7ehFbHoUT013pVBViyfaaC++2zi9UXBQL4GvTiryzy3p/6arA+3b1QOTnj8OfDGkknqXDa3Nw6TlK3KekndbO2FJ64x03Pvv/Vj9zpyYjnNYAE7idFhuafqFueJHOr7Wpwqpk6DWxMDd37NutmTcmUupY6o5O7n34qbG77pFklEwJMMER6z0SXnIMhWwYyG1KyFUyzVrcWT3/m5dnXvj38tpSNeG1nqR7rjfX7OuIWoQfrfi7QbQrjlT40Ycef/hhLD6ND3h8mSGM1cPOpSoJoGVG+/xS6/w5SAZYnzKo4d0bERHxURCpXsSWR8hb0XChVSLV9jqtLo8wsWakSipKKuxLr3Rgvoy4ZCiSSMKD4D9AKBfzkzv19lVVJaNUWA0IxH1OumltwZZH7jiy94lndds+lOswZSf6FS/ysFWicGAAwQuBnMiq5Ohv8uLs/AvPt995fSKljqBVn973yDfGD96jZoSSCmCGIn48dXT5eShuKdTCrxAKNNesyc3zCz/+/tLPj411Nyokq5mM3vq5xj33dmuNTEmpyF527otwMl8NpKbYLCSQiltQhGqi1mQdu7xA3bYj0q68eii75io4OBERnxDiADdiy2OQROYfK6nadru7cr6qubGu91aZGH7CC3rvjl/EJcD7BriO6YiS29MPgSsu8xqkPtPYcSAWUM5JK60uamn8rnuuffQb2tgBUwUSVQYIaqDKTAo4KQ+As184MwURqVoXVKdZTlmTFmfmjz7fnn1jsmRaOXpj0/sf+nrj4BFJ6pyUoEZAzARARAFlZ4qlkAasykwAiyizaJ4hb/PK2YVfvLj0x19PUMZJstS32+44NH3fg9LZyNp9NibhnKxoWE70+ShXyTapn01r8F+rI/qJyigkO78orU0amVJ2B0YIPDhOERERfxuiqhex5VHoNf7fIAW6m2vrZ96tsZJYQLyKE8I8oBqvFJcf3BjTj2qp0MncS0suas4rtwLqJ6W1pLKS1Ke/8ti1Tzwr9e0wIzAlx7y8UBRedyJi5iGpzI10XWydiO2hv0kLMzNHn2/NvDFZ4k6mndHpax9+unHHETE1SsoKl9WCQBnJJ+D5oEY/KrZWoGBWlUyzJi3Nv/vD755/9Zfb2IJ4VZPtX35k96Pf0G27m2vNjQsrlcSQiN8uuDjq7xK9Cv9YhHm0hg0Mv2lh87Lq+rlT/c1VVxVC5JXO4Vu7iIiIvwVR1Yu4MkCA+GwLFdgerS6js5mqGhVH7HwDbhGefPmuqkcEuBeKQKR+OY4hSgruJ+kaV9Yrk5NH7t/5lUe1Mk6mDE5c9R0TqyrEuyWC69adByj6LAABido++i0szs0de647+8ZEidqirfEd+x5+euzgEUlH2JRV2Tl+AEDZJcARQ9UbgbyLxNtgrUqPs1Z26sTcj/6jO39iIkEftFka3XnkvunD90mtzlknO79sm5uJERIM6jKuUgZDxABUvF4nrKga5Btrdm1VbU+TBGrg9/X4auHBERGfECLVi9jyKNqSCFASsjl12/n5pQorZzZ8gQyVTkUX3+UJGvod3o7h0o6hCnGZe5YoS0oXqNJp7Nxz76ONz/+TVMY4qQoYSn5c69idy+8g1z2mbsDqqERQkBzPa/K52blj32nPvjFeprZFd3TbvoefHrvjiJoRMi4/z9tq4VLyApskX3Nb9DEriUjeY9tqvvHqwk+PZWdnxxPqCLq1sWvufWLy7q9KUiESu36hNXeiaoRsHjoyFKR8FZ6Zfn82TK4hBGYFqS1B7MqZEUfBAAAgAElEQVQi9dowVXV0nzG0qzfMjCnevUVEfBgi1YvY8ihmXm7axxDttlbPniqpJVhXjsDKAhqU28cG3MsBIUMEPkDEbWvx4EN/ASeAQRBVS9xPSysotRs79j701Ogdh7XcoLTq5ntFmp1jcuqCi5ULGY/Yma8ZsEQqeUb9Ji3Mzh17rjt3fDJFO9NOfce+h59uHDyiySiZsvh4PB3kp0CJnc+HwC7ZV1QYAKnVvMP9zY3//t38j75X2Tg/llAzt7Lt2mvvfXzs9kNSGkFikLWy5YWNM/O7WDkT70mBr1PzjOfqCZBza5pgJQaEQgkaq0012zx3ut5tUWUMpkREUAlv3PfcGODqOFgREX8PItWL2PJwVQe+wxSqKtLrbCwtTLsmXC08nIWrMYRZRFxaDOWGhC09T/2C/ZbCChyLwjJnSWVZS3b73gP3f6166+el1ICpkJJbOw7e2IHQK+L6KyBwXQuO9QmRy8/bpIW5+WPPt+eOTybUsujUp/c//HT94BFJRzkpq7Av6hB1mp4C7JgdsSvt8AnAJGpzydqcbZz/zU8Xfvmj0f5mOeHVTKt7bt7/wOOlmw5KUiVTguTotJuzb1WzbtnmrL4+V1WZBm6D9ySqXMkoUq1VdKj6jBUVouUzJ3d0224Nw58fFxlWFH5uzlHVi4j4MESqF7HlUSxre7pgM109z/12CsuuIIFVnS7kx3rDSbMRlw5hOY0QSl+BMIjHoBAWJAQL008qS5pi94EDj30r2X+rlupIywTWwXdx37cwN/gNPRV1EbwqyqQKK9Kn3iYtzs0cfb47d3yixO1cu41t+x75Rv22uyWtEZcAViIGnH7nVGNiV95GYN/RphCCiORkO9xePv9fL5955SdjWStNeDWjxo2373nw67znOk1GyJSgCptjfeXca3/armLEhifreCNwkcx5dVAX9WYbhsJtWsAP7RO11GlhY5Wm92oiUG+qKnINEbJ6/De6Ko5XRMRHRqR6EVcSBLCQrLeyWM27qWRFPC5A4ntVgUj1LhMolMAKJSh86RlLsMj6X6RElribVJck1T033vS1Z/XamyQd4aQMNd63Ch/LB4KTedR/zEW7LBHUFZRJRr0NXZidf+G53vyJyZTaOdpj2/c9+HTj9rslbVBSJmXVgd/WEU9iAiyUiIz3+qgQido+2R7Wzi3/4ujp3/xsm1EYOp9R445D+x74mozvRmkEnAKk0qd+Z/P1P5dbF2o2S8UtGIh3CwvkKqR6DIYrFYF3t4i6aXyqWUX62epysj93dgyoszfr0CLGpX7+ERGXPSLVi9jCKPpHdVgdkmzz/FKaZ6kIq7ivJD+3HU5xi7jUGGTpeV2LQpSekLKQkighJ+6ZygJK5rqbb3z0W7rnRpRHiVPnxHQTWoRFNyaIUBGVLKLMg6Q6qKj20d/kxbn5o8+3545PlrhltTM6tfehpxsH79GkxqakYFfdwGBRT8WcwAfiMBt2+SiieY/Qk8X5sz/9wdpff7c90Vx1g2sTXzy098Gvyeg0JTUiF/UnZHu4sHD2L7+v9zuJ5kUSDJwUOZho+5reS/ry/CPhgqNJoaw+S1qhiUqa562V5arkFMg81E/qycdjFpFhV8/hioj4aIhUL2ILI/wfnwKXIxVR0fNnT0/YjCFwkbyQIMNEC+7lhMBrnKcCcHW3fg6vpEKck+km1WUtpTfccd3X/xlT1yIdJVNWF6Tit/Ncl5gqCpIHIKzQAQADlqCi/cKH0Z47PpFyx2qnMb3vYddvO8JJWZVJ2TFNFU8ZofDRKn7orEpCULV9su3OqbfOvvSf/dnXpwx6ops8Mn34gZ33PSqVMUqqRIlbFZW8R9pf+surfGFhBH2jVklIVcFu+qzsVg7dsblqztGQouwOkhIUTAoGGdE0z9fOnZsSqyIgUTUAdJCkDSIO2t5VcrwiIj4yItWL2MIITabiBzouSbm1ifZmopZU3PBOYQpLZxzgXkZQb8VQUhdgUhhy3R9aTjumvEjl9Ka7Djz5rE5dQ2aUkpKGNX4/XKWQruKI0tAal6cQEEBUHM+bmX/h+c7s8YmU2kLBh3FY0lHikipTcXaQ3xsEufGyusxkKAgWKpJ32ba7s6+fPPYdLJwaT6mbSae+7Zp/enjyC1+W8gQlFSL2g0fJIRktnWm+9ddKt1lGTioUgpPh9wpFSUkZA33zEr00/0gQ/LKtAr7MBlAliIEmmnfXV6nX0aqEobwTaylUnhQ87yoZeEdEfGREqhextaEaEjlc+63mtLFWyXuGxBRpev4LhrafrpY1qEsGDXza4YO5tb/GDzoSXPmVKiuQm7SdlJe5lt5wx3VP/AumdlMyAlMWceRIilfQMz7vvUX4ZsEbq6qu37bXoqXZ2aPPd2ffmEipLeiMbtv7yDP1g4ckHYEpA4xgAA4k0u16ut0A9VxPrcJq3uP+RvP1V99+8Xv1zZWRBJuZlaldB+57snrwbklHKa0B7Ka8qqKSc9Ze/vPv8jOzU6wms66pwxPUIlYOw5bkT+/1uQzh2LlPtiFylloxsGnW1eYaje0ESmFbjwG4ajs/+r76jldExN+OSPUitjDclheFTkyRjCXvriyi1zUuhMUzCPXLT4EJ4Gpag7okcFfeQlv7sGmkk2lUSZlJ2LWcCnFO3E4rK1yr3XnP3ge+rmM7kI4QJxcJdsU3cWk7JFD4jTpv1hCoKqvmGfpNOjczd/Tb7bk3pkqmLWg3pvc99HTj4GFJRshUwl+5qHxWB/Vpzg9MBFHNNe9yd23zT6/Mvfz9enu9ZrCRQ3fuv/Hxb5n9N0s6ykkFMN5PSyI2Y8mys7Prx/9Yl15Z+qzK5CqZHU9xo2EeOkpX1xlK/sXzJlwALkiFSbjX7i6ere6+UTQHEsCEVJ2QdHiV9AVHRPy9iFQvYmuDSItJnQvZba6ep7zH6pQ+IhIBsRN5cNEEN14dPj1oIbb44/3eMLSg+XkvQli1hyplCbdNbZlr9Tu/fO1DX9fGdiRVUEnDsLNIUnRj1qGVTRQEQFWVhKGSW/Q3eWFm7th32rPHJ8vcEu3Wt+976KnGnUfUjHBSUhgXpfIeAuHtuz4KxrUs92Hb3Fxe+83P53714njeTRirmVT333L949/Qa26QdIRNSdUEbVABIc2kdeH8H1/pn53bYXIjGUF9mIyPFPTqnz8+4SbmH//CXSp40k/+dPHGHIJRkM16zY2KzckIimDtoRMqvpMjIv5nRKoXsYURqhGceVFUQSprq0uSdY1r1AoCT/E34Pe5ROPl4dOE+nUzx5DoPYtnTsJxptmgyjqaRzkn7aSyQtXRu76056GnHc8jStRvy5Ef2Ttu5NRCGXJhAoAQWFUIojajXosWZ2aPPtedPT5V4lZm242dBx55un77ITU1pBVVdl5fRkEd3b6fuspVn3jHqtpD3sPqubO/PLbyp19P2S4TNpGO3Hrn3ge/ptv3InXWYONOPiXXhCGcd7O5N9b++vvpRJOsz8FAAkKY3g6qQciFzxRx31cHBjIw4M4dVbBqkpL2umsry+OkomA/n3f3cIKLvFkREREfjEj1IrY+1Ns4VYX7XWlvGJsTq4ve8BeNsPsevpritt6nCm+jBZGyczYMj3ALCceTPAWTEUKfTctUl01t5K4vXfvgM1rfAVNlNiqsDJ9wQiFjuchgHoQnB/YX4u7Qb9Hi3Pyx5zuzxydL1LJoj233Pgw3t1WXwOw609yw30KZiNWXrBCRCiyyHtuOLp86/ZMfrL3+6rgRha5yZezWL+x9+Cmd2KWmxlSSYLEI82tB3tX1xblfvFTrblRtL1Efm+wPiCew8BaNgvvqVbxlUJjlRVkUmvU311Ry9Z56qCoxuY09RFUvIuJ/Q6R6EVsYRARIGLeBSbW1kXQ7KSm7S25oUneXcT8XCxfReH349PChu3ohrMQNLZVdeR3noCxJNrm8Vhqr33l4z4Nfx+g0kipROqgkc71kbp8uUD5rwewbJ5jJCT9KVm0P/RYtzM4e/U5n7vhEmds5uo1t+x95pnH7YTGjZMoKw86kG4jX8PQWRBAoWZIceZ9tx559Z+bYd+3JtybZ9nLbLo3u/tKDU0cewMgkJTWiEpQplK8BICLJ+9zdWPqvn+LMzJj2SjZjb+l1Kwe42DoapL33fv5KxvsdPOGzbslCShDbbVNzjSbrxYFVDYaWSPUiIv43RKoXsYXhw1bgFqmEVWxrg7udkorLUVNXnU4ggbLf82GBkOsbjfi0UAxwQeJ0qiIfuNhNg6u2JbZEmUnWubJRndj5lcfGv/gVHZlEWmVK/bCXaYgFKZi93cav5QHF1FVVSbwPY2Fm/thz3dk3J0vUydFubN/30NON2w5rOkpcDoktfinOJTAyM/wyoONjFiqS9dg2e7NvzBz7Li+eHDPo5Nqvb995+L5th+/DyJQkZYZRZbi1Ae8OydX2SbvdmdfW/vLbibxVzTOjlkgAFThDBofUviBwEpGzJZC5SqjeB90VkC88ARMkUdFuW1qbNGFVXbUdhVF+HOBGRPzviFQvYgsjjPLcXpUqab/dRL+XwLolMb+nNzTApaI146q4jF4yFANchOk6FcF0FEKTyQk61E/TDaqsOZ53+H6tjmtSZTJObQMBKkNGhYsu7YHqeW7AJCJ9yjZpcW7u2HPt2TcnU2pZ6o1O73/oqfodhzUZoZCrQgQRv/vlnnTxgJwT1IXnZRudN/848+L30rXF0YSaFtnY9hsfebp0691SapApAUaUAYKL9nVKslqVnpw/8+4vX0o3Fkc1Y83I68yhttn36BJpsajnY1euGuPQQLMNvSn+x3fvWVZKYbN+x3ZaKbs7B0P+Lm9go4lsLyLif0CkehFXALw/koBesyW9tiGQiBKxsEDYt28Nxeoh8rxPA8P02dG4gpeF9gdVcRIWFMqWKTPpBlfWy2O7vvroxKH7pTKBpAJiJXaOXGaIuP4zVh1s4odrPBRgn6arKhn1N2hhbvbo8925N8dL1M6105je/8gz9dsPSTLCpqIuP88ZO/zg1FNTdZySoSKARdbh/sbmn3598sf/WWpfGEl4M1M7vfeGJ76Z7rtJ0lFKywSGcjCPkooykZCF9rm7fuH3v9L5E5OUJzZzPFdoKFLFn400eIBg1bha6jIcsStEXyKFqDKRqHP1SErGdjqdZjOBV27DXd7Q60dX3eA7IuJvR6R6EVsbbstKXc0Acbu50e+2U3hipxTy9P7XON+ITwDDC2fBO0Hs3LV+Z5IY5IytEHBm0nUur1Umd3z1sYnDD0hljEwFZNzSW2g4Boi1GI0OnNcIcS6OoonaLvVbtDA798Jz3fk3J1JqWXTGdux/6Kn67YekVCfXbwt2oSyAmxCCiZQUgxpeVc1h29RZW/7li0u//dloZyNNeN1y6brPXn/f4+n+z2pa5aQMZSW/C0DkenGhJKQZZd3mW39dfPWX27RXsl1WS27izOoNIAPvRWiI8H5lt2Z6ldRluJ9TSAGwf0O71Vt3yrCmpJT1816bSMX5cEIc4YfMcK/4gxYR8dEQqV7EloYSAeK6TgWQfqeJfmYMkRKpCCv76+ZQQcZVcP38dFE0j7iPBse2IHmOtbirsfM9OBbl9FdVggXlJtng6lp1cudXH5088qCUR8lUQAx4a0OY0QICYhJRF4UiIkTsFvbcCaAkKj1km1iYm3nhue78m5MlbufaGZ3e9/A36gfvlrQGLouAKIxL3VNVrwm7Zw/XbCs5bFdXzy6+8vL53/2ikXWM4U0tla7/7HWPf4u3XyumykkJrvQM4e5BlVWVRVWo385Pv3P6Jy+MdC6MaC9xEYDQ4p5jyDSMIWpCH/ThFQ536Ifvx4a64oRUDaPX2myuX5g0BCtEif8LQNGxEkTkwQeX5oeJiLgsEalexJaGk3NYVUgVvXbS7RiA1A1tQSpO97mI6kV8TIRB44DZFfZaEMCA+NYvgBXiOJUGMwbIEnKTbnB1ozyx8yuPTh5+QMsNSstEiYiGUGS3WclQcbPViwbCwTSrqiCrto9+kxbmTx59rjd3fLLEbYt2Y8feh59q3H5I0lE2ZT+wJSKyAFwWn8/ucM8TyiSa9ZG39cK5ky99t/XaH8fZKuOCJpNf+NLurz6K8V2S1oiNKgMcOjngH7gc736LmucXfvVSsnRyXHpudOu1OlwsPdF7juvQfcjVckPixDhGEIEBv1wrPqxHmdTAUtZB3lOUvPdW/fEEWYAIBnAv69ViZ4mI+NsRqV7EloZCCSwQUe0j65vcJlCouCQGFSG/CX+1XDk/RQyJeZ6yOerlHRMI11cpymgJqiwuTdjN6ZRIlTJ2c9uJXV95dOLw/VppIKkQjCozwZXGuiGdX8MaeBQGcphzYxBUNKNskxZm549+uzV7fLLELYtOY3rfI0817jiiZtTNbcOY1cuFft6qruWWPGXMe8g7cnZ27sXv9k+9Oc42V900td2H75088oCO71BTJUqcfudZiQ7vDor2u5w1V3/7i/XXX92p3bLtG9WC43qPrcuaed/tx0XK1tWyZjCYWnvq7pRb9W5mAZGqIaZOB+0OjYwWrcRe9SUaWvZ7jywaEREBRKoXsaXh7u+dmsIgbTft5kbK5CI+lIoK0/i//k8ChZgnUAYLXK+XN0+Gr1JSIhKAFcrwBVfqXw4LY02yyZW18vjOrzw2cfgBqY5TUiYybhiqUJUiWIXCTl0w2nrBRghMKiBRyam3SUuzs0ef686+MZlyO9dOfce+R55u3H5ITI1Mxbs13dPzz847P10yIyAgizyjrGnnT8z8+D/ykycaCfet3SjVb7j/ydHPf0UrDeUKcUJkVMDs+SIGI0NF3of21o7/4cxvfjxt2xXbZ7UgJYW4ew/vIQ68OKp6oOKX+3AwtQcAJQEBrMJiIVZVDTOKaXigfSFjL1K9iIgPQKR6EVsV3oApSiAhkICyjPs9n9HrahCUMWTMi5eAj4Wg6hGGFT71dRIu6mTYNkFhuZ78MNeCc5OuU3mtOrnjK49PHrlfyg0yZbjeM4UyIE7ScxdvHXgviEWEBgkbAhK1feo3cW529thzrdk3Jssc+jCeadx+SNKC53E4C1y0SlGjpqpMLCq55n3qrtvZ199+4TlaPTOeUEfQGp3+zMPP1G7/gpQbxBXixGczelKmopacvsQK24ft5KdOLP/06FhrbVTzVKyBBklSFW5jj+OE8X/GUJC1X/RMDMnGhrZbPOK4v9t6ZAXIZ68Uddjx8EZEvBeR6kVsVVAx5nOXX1ERAVmCKJQd/cDA6nh1jMP+QXD2WqWhY1sUToTckDCK9Il6uVKeli6gtFmb2v3Vx8aP3C+lBiU1sAnqq7jXjck4k6pfrmNvmA1x2ernttai38TCzNzR5ztzxyfLpivoNqb2Pfx04+AhMaNkSiiSFR0XEKWwCejKy0itSA7b5u7G2h9+9e7PX6w2V6qGm1bttl03Pvx09aY7JGlQWgWMc4AwkaqKWOceCSEtGTTj9aWFn/2Qz52cNFkp6xotrBc6cK1E/G/wPA9guOgVZYCtUi4C9Zqu15RxsQoYERHxAYhUL2KrwuWiuZIsIhBzp93c2FwfN0S5r09y3AG4esZhnyaKAW6xTObqIQTCTBJ8qD4JwwszArCoBSRNL2jandi9574nG3d9ScsNSipERomLQSoxIABATCoaAug0bO8BAneBh2ToNWnhnbmjz3Xn3pwoUTuT9tjO/Y881bj1bjU1TioAO7IoIvCyLvl6WihUiVQ1Q9bi5srSb3+2+vtf1VorVUMbwrT3+v0Pfq164BZNR5nLIAPxs+ki0g8u04dVRCjrUmf1zE+Prr/+6h7TN/0OqzgBUEjZHzIzOJQRHw6fjwzfjuz6D0Uzlb5z55CKqiF2q5ZS2HScvSMe3oiI9yBSvYitClVlZncVh6qq1awPm3sNR5U9MwgSU3iAi/JBIv5mDA9wQx5aGLIVFJBCxgoGvWVENkkuiOlO7Nz35LOlW74gpkZJBWRUOYTmDsQ2n4fom018KB+BBEIAkxXpI2vxwjtzx55rzx2fSrmVo1OfPvDwM/WDh8TUOKmoMrmctqFa20G/LdTt+cF2uL1y7mcvLP/uV2PaM0znc2rcdMeeh55Mdl2npkamrOAgyFHQksmHuqlCLWyP+hvLr7y8+odf7EzyUtZLfcCeC4YrgvKKNYJ48n0YiiPjazNUCarG0GZzs9tpVdkT7VBx4gbidNHfioc3IuJiRKoXsVVxcW6qkuYMTf1IjUj8Kry4//MrlJ3IU9Q4XOLnv/UQVL3BR4XFAECRqqcKciuS4j6Vq/ZEaWJ6/6NfS2+8TU2VkioRi49FdtdsTyHV92OFUa1by3JOEJDLVaGsSedmZ489351z+XnojG3f9+jT9VvvFh4hz/O84guguCVwCp9CmAU2Q9ai1YXZF7/XOfHnSXSVcMEmu+/+p4kvPczbrtWkQqYMv+on/odytg4FVOAiVPI+95vt13+//MrL27RXtZ1UnQ9FlcDqC90klPL5gxfxwRiYXfzpRG6HkyS3kmc64HHk2vDCP8Nv6Xh4IyIuQqR6EVsV5Od57Haywabdbq2vrU+wgQ2JDapDlVwQAvvI3Mj2Pj6CgqLiqs+8nuc8uk6NA5gMG1IlkyRpve6X11z7xYeUlqoqYAF2EiwzRJxtVjTvUdbEuZm5o74Po22p25je/9Az9dsOSzJKpgRhBL/t4HkxqZKo+hy9rAvb0YW5Uz/6fufEXxoGAlqh8p5/emDbPQ/q2HY1VeZEnbzoct58vUZxq0AE1TyjrG3nj5/72bF6c3lUuyWbs1MNPRt2g2ewhulixP8EZ7u2RERgb2kBALArDw591gKwS9UO9myKb+mIiA9BpHoRWxLhshsyF9wU14qKUFL8KdT1ibqJoLhPIbSrR3xCcFzaDVnVuzEEpMTWJB23S5WW2hdWZn/4g/1P1mlvTTlhU1E1oJA+ctGMNVB0YjfbZVKFVcmp38K5mbkffrszf2Ii5bagW99+7SPP1A8ekmSUkjLAwYM5mPANTfsUEOQdytvZyROnXvqP7sk3J1PTsbKR1Pbf/8TE3fe6cjbiRGEG2R0atCbvFgGgajPkbVk8efLF/8DCyQnTS/o9VovgE0YRMAiE9MHIRd6H95WvFIyNQQIQMxH1u50863vK7WfzYPb0mSONjoj4cMT3R8SWhG89cHwgSHYEp9lIUPF8n6hfqQLYMcIo6X0cFOZY9RkXClZlBXsbhKoQ5UT9tLSqaXtyd298xybMqDH5mdmTx75tT59A1lSbKXKoaPieflHPm2VNCNVzqqGoZOhvYGF27thzndk3JhLqWG3Vd1z76DcaBw9JOspJOSSzBKeO51U2BLYIyGreYdtpv/mn+e/+f3b++GTCbautkak9j35z4vADUhnntAZOA79DuDnwC6DudAKpitW8QxfOzf/oe/n88WnOk6xrIOwzP9x6HsjX/1Kwk0S8D8N2H+92YRek4pi/iBimTrvV63XhKLQ/+xBek8HdXURExPsRqV7ElkSxy+VXoohAogSXh+u7D8Lolsj/49e9orD3ceAPqyqpG2K6hSoiARQQIbLgPCmvULo5tXvy4WcmHv1mc+KaDeFGmnROvj37/W/z2RnkTdiMYOFcDgWPcqF5LlUDwX2b96nf5HMzcy/8e2f++ESatASdxo4DDz/TuGOg5xGxpwpeQXO3AwbuGarVrMX9zfO/efnUC8+Z1TONNNnMtTu5+/qv/59th+6T8hiXaiBD5P6K1/Q8tSBfokYuWiVvc3v19Evf65/4845US1nHqLKzEYT9UZCzsbjCtGKqHHEx1Nfgkgy9sf0RE/WNKcrGuEwlb6J2R9dbqosXKyIi4gMQqV7ElgeFJgXSnP3E7OL/718kG3jaFxWWj4EwwnSKV9DkFKJElpLMVFa11Jm45sDX/m96692l2w7vffKfexO7mjlNloycnn3nP79N775DWUskI7Wu8cAVoBV6retVIxKRPvWbdHZm5ujz3ZNvTqbcsdqtb9/36DfqB78oXKOkTMq+/CKYdcKmphP0BNKXfou760uv/OTcT/6zsrZQNVjL1Fx74/VP/d/aLZ8XriGpeIVSQWQGZNH7bR0DEUWmWYc6K6de/kHztd9v116p3zauhdmlzITxsyOGQoJAYy/1C3dZoqB66kzLGLoVC5sYClULHfpkfP9GRPzNiFQvYksi3Mo7fUkBRdaljU1DyqqMsCHlcNG1xD+O+DuhIUdFQG60SsVqHOXgflI6T6X21DXXP/4vpc/cpdVpKU+N3PT5vU8+253a1VIzVuL83bdmvv+vevpt9FsqGWD95X1w/SaFCqxqn/rrOPv27NF/782/MZFSW9Aem97/yDP1W7/o9DyCUZ+jY33aoioGPM+qzSRrcnvlzI++e/al7431W6WELuRc/exd+5/+fyrXHRQeIVMBJVCjITkPhcaoqkqqFhCFoN/hbGPltz9t/eGX22y7Jp0EllSCuOTVP5/vqyCYwfka8X4Ud2I85PL28ds8tKjhp/Lx3RsR8VERqV7ElsTAeOGiU4lgLaxlN+Ipkt0ciusHvTcxJOLjwPedqQ/Py4mztLqCUmdy141P/Ety011SHue0RmlNkpHRmz934PFvdsZ2tCzGE87ffXv2+/+Kd99Cv6m2R7C+9cS/OALKIRm6mzg3N3/s+c7cibGUW0K9+vT+R79VP3hY0sDzXARbsb5JLnbNuTet5hmyllk9e/aH3zn/259NaZ9IVyxP3Hn3vq89Szuv16RKaRlsGBTmhqQqIqKhmYuU2G3v2T666xd+8/OlX7002V0ftd1UcvYuW/gGtPB0/L+U3tPzGnERLo7mHnwWPqXRm3TgnTvx3RsR8VERqV7ElkQwbGIwWvM2R7eu7UL1AYRQPUQt4G9F8En4f/zRK+BzbVnBSkTKLsvEqsmTyqqmvalrDjz2LN94p5bHKakAhtRwUt+bdk8AACAASURBVBEzMnLz5/Y98WxvYldLeaxs8jPvzL3wb3rmbcqaKhnBqk9pEYJCcvQ3eWFu/oXnO7PHJ1L0Mu2Mbt/z8DP1276oyQglFSi79ixSUgXUqJLCOhmOIGoz5B0szp958TvLv//5NuSqsiLJ9nse3PXIMzJxDaUjZEqkxkc3hy4NojAFptDDCtW8R/3N3vE/nH35++Pt1br2EpsPChtQ2EOBgX1FlbR4/A9/MbcCPlB0D7NaCjuS/oujMhoR8dERqV7EFQDP9kjBKKSdcPMflbyPCHes/OZ7eDyAeqeEY0GuAiIH+ml6AaXOxK4Dj/9z5bOf13KdkhLAzr6hYE7LYkbqn73rwOPf7EzsallqpCY7PTPz/X+jM++g31TbB6x6v22fek0+Nzv3wrfbc8fHS6Yj3GlMH3jkmUaRq6LsGpD9UyHXxqbOh02wLoQvn3/t5Pf/de21V6dLSV9oszx2zVcf23H/kzK+E0mNuKQwGu4cXDeDiKtiIQBhbGg173Lesm/95eSPv1/vXhiVnrEZeVst+4qQItK7sK8EU1BU9T4UHyi6U/HuHXxJRETE34dI9SK2BoYUusFjv7wfTLYE+GEZLv66qOr9PfCHb6BOhYPq4vOc8KeEnLiflFdR7kzsuv6Jfyl95g5NRyipKEIzKbn9Oaa0IqZau/lzBx77VndiZ9tiLCV7euad//w3/P/svfmfXNV57b3Ws8+poat6VEutAUlgDAgJ8ADCSe57c3PvJzZg4psgHPv94f37bmxsx5/YYOw4vomHxDGOMeCBSYDQPPYg9VDD2c/z/rD3PlUtBgMGo27tL7ZUKqmrq+uc7rPqGdY69QqG66YD0kMHGKzy/GuvPfmNjTdenCtdz6M3OX/g4WPdqPNaQZ8Zg+kGzWqtFhquXn2f1bXV3z7z+ne+PnjjpbmSfbXV9szu//U3O//qUZ2YQ9GhlKOl35TMhrqel5ZNAFUdil8bvvr88SefaF4+PWO9suqLBVfm2tMnn2F/NOOyL5PJfEhkqZfZGoxV6MZ8bS1W9MKfgzGDmuZr7h+DAlAo6AUKUqlpoTSI6vAPSARflUHZXLJWb2bfbY/+v+Vdn9XmNIsWKIBjDBOrH1ro2lp0Ond/5uAXv9LfsW/NZKYh1elX33jyCTv9EgbXrH+N/at29vgb3/vG4MTvZhtYN92Y3nngoccm73lQyy6LFszFnRyDGB1BKLR2YTYbrEtvafm5n7359DeKiycmS7taVf35vbf/76/uePCvtDnJskOUIYKBIUcjJKAxuPTUQsMAteGGDK/6M6+e+OF3WotndmDQqAYFzMVV0PHN4T/1wdpujBq4H/czyWS2EVnqZbYGb1vVG/vr0MeLMz1xyvtP/Ry3CalpG51/wxxc6m2GGXkDqUaFDIv2FTTW5/bc/qWvNg59RluTLBoQN4qKqJMqSANpIkXTXLt76FO3PnKsN71r1dtMyeGpV1//ztfs1IscXMaZl0+Gvm0pax7r3R37H3ps8lN/puUkXYNwIQ8j2NSZady6BRDM8wbrMri29B8/ev07X2uvXmkVWOxruf/O2774+MQ9D1hzikWb5kAXIjAs/D/W8KIvn8HUPFHBBtCN6szx1/7pH+TM8VkMg86jqcU3HpZGBZnfY/yxvENVrx4bzWQyH4AcjJbZGlgq46UMpagjYqQ9g1ktNPiuhqzbuFNA5ISM98OY1COoSog6pUazOEXwsa3MVUVjEWVvZu9tj37F3flpa0zStZOHcB19YSIS1BgJM4GBZVOhnUP3HrTh2ae/0b98Zt7J0ulXzz35tYXP3H/xNy/0Txzf0SjWKt2YWzj4hWNTRx60MJ+nYsI4t28a/Y0NhCNV1WO4LmuXL//Hj87+x7/s0I2CXPEycee9tz30t9jzCSs7dE2EhRKGlV+r7Y2DnJWUaSZUM8/hmj91/LUnv+5Ov7qTw0bVc9AUcWYhBg10oRiay3ofBVZrP26+N5PJvDey1MtsDWLTlrUQST/5Nd10Ds7F0Ia4BmmgjD48X4XfG6FEloYeJaqhqIcUhJIKVmVzEY31md2f+JuvNg59SsuOuKZBgg6P+WAp03ZszE9j9cwV6t3kHXfdOnzoyj//k12+uMtx/eQrKxdP2mAwW7hr3vemd9321491733QXAfSsOCyZmYUxo6EkQIzwKsfwG9w+cKlH3/v7C9/POc8jZc9Zu79s4Nf+JLO7kHZFdeIxswS8tsEqftv0dwDaW4PUC+64S+ePP7dfyhOvbqTVbPacKaEol63DbkacXc3n2EfDvG0ScOPMa4k7OimRWYSpnkfN5N5T2Spl9kaRKkXi3sYZZuFrqA3FiUmJ9UMjhRCFSk4AVnqvR9Gr9cow0IBCXYmRvGUyrUuW9Gb2/PJv/lqceenrdGhaxtCzoSG8DmzUCtTBHthM1DDpB+qIQYb7F+rVi81nMzt3rt28WypOk3T9X67cGu+5PT8wc9/qXvv/eo6cQ+jPgtiJkpdp1XzPdF+de6Nkz/6zuDl5+bFe2/Xyvauo3+x+y8f1qndLNsoGsFWObpuY3R6xGKxGWNUhsIG8D27fObkD77NM8d3sd8cbjhoWLk1g3Bs3TZv136oxNc1DmSoxdQ8F45SHKW0rPMymfdKlnqZrUHdwEVdJCIRWrVqEAJU55TOUAGIM1SIjZ7cwH2/GExCCS6JNxJK502GrrmEZn9uz+2PfqW469PanKI0EIxuoKDCaKYwmFaxywmFVli76tevDdZW/MoSlxbXz5+6ePK1YvXKlA66Anovak5Ygb7y84cOd+84pCzpClCCL3I68GmAkEqD+p749f6bL5354Xf7r/9upsDAuNqamnngL/f81UPWmmE5QSlgYvERkrYLj4Pg0JvUHtR0gOG6Lp998/vfql5+YacNyqpXQGmxey0QQ5Ctox2hfHp9WGyu6jG5dCOmZViwdrSk+UeSPZPJvC1Z6mW2BnUDN/0heduGuAZjmLIPrZ2YahW6e6OP+Die95alVkLJXs8U4k2GRXPRGr25Pbd/6e+LOz+rja64BihQb+ah3lARJqoQgQ6wulItXVm7cnG4dMUWL2xcvrBx5eLw6nIDVRM6R5Q6bOrAwQNQERMxo3NcevnFcv+d7U/PaDVg6WiEsFZlZmEtQ23Yl2p147XfvP79b7uLJ2dKrg99v7vjwF8/Ovnp/6atsA7sjI4moEGFQhhMwz6GxY51bAiq2RC6oUtnTj71jcHLz++09Xa13lAfpvGC3gg7KpvXB/Lp9VFgFtwT1doT7WazCQPFaIYQXxJb6fnFz2TejSz1MluKJPWSkZlEj40Y0SXeTMMbfVVKatRt8s7g5huZt4eAmomE8SiFOKWA5Yq6wdzCrY9+2d3xKWu0WTgzhVXwQ+oQVrHqY2W5WlxcvHB67dL5cmN1eOXSxuJlv7Y8QWux2kUp4Z1VBoU3x5Cly6GUPXGDSgvnChFbunjqX767t2h07/2cknBtmMAkxGSRPsRXyPDa1d/98s1//nZ75VLH6bWhyu6Dt/zlI90j91trBq4FEVOJReGwW2KEmYjErxOprxt0XrVhl0+/+f0nei89u6CDll8vRzov9HYZHiU7GHxE1A1cRP9qqmqzPdFoNKBqjkAsG49rvCz4Mpl3Iku9zJaibuDGJU8TTVcFFXEFXQEbhoZOuBRs/vHPtLmXrwp/gGhEEqpY4mAwsQ0zm5m59a8fKu84ZCL0PQzW4YfQIZavVBfPXzp7avXSOV5dLjbWhldXbOMaoS3hlLAorNChWOV86KR6pYkJzCrKUJrLUlbTO+ePfOryKy/hytlOIbZy+dT3/+mASee+zylA10Ic1lIzj8GGbCyvPvfzkz/+3sTqlbbDspdi3+23fuFvi09+Sl1LXAt1MS/1aeN8Z0r9CFsYAgHUbMhqwy6ffPN73xq89OxODJrVemlVOGnSZq5LA2PIbxg+IuoGbhTopiC9qgeMQkNYxQlv5EREVaNwz2Qyb0eWepktRarqxSqMKRgu0gZDuz3RnZyqltdS8zEM7Fmu6n0Akl0KECcijUZvWk52y107dOWyVtSVpWrx0tXzZy+fOcmNa41hn711qfoN1SZ8m9YojOpphir0XI2m0chFTAwweJFB0Vpha21m1y2f/9/dO+8uPnHkxNP/aEsXu6K2cuHNH3z7FrOp+/5MDSyapCg8fQ+rF6/96mcn/u37U9V64bhcWXnr4dsfPSYLt44ScoPLi5hqNDnW5PEXk5IBAIYK5jHcsMsnTzz9zcFLz+3UQataK2EOqI1jNq/45PPno2J8LUNNIWaA0dEJJfTcjZQUf215XC+TeXey1MtsSYKjh8Uf9gRpJKQAXYh2MOjb/eCvm26aL9V/EEbDQhMFYGLWFFYXL6z+6Om+NC+cO6cba00/aHk/r0MHc6icWQFxMIGHepoJgtkwJBRoGASWBodmFQ6K1oprXpvatf+hY917j6o02nfv2O8abz71TSye7boKK2fP/vM/OrJz71GlhzipBli5ePpHTy7++ufT6Dty2crW4ftu//zfYdd+LSeEjRBwFnPd1MXyUPzKrC4P00Ax80MMN3TpzMnvf2v40q/ntdeu1kv1Enc4GPZyo8MykPcw/jQEExtSvNdud6rdnjRfO6yQYvWsXk6ly2TehSz1MluS8AMe0LAnqmZipBQQh9TYJVUNki7yqSKTG7jXk4z04h/HVlJZG+wF95TCfGu4tvb757wUc44N00K1UB9m6GhqNGcMStqgjONWcXkGEkIpFAhO164vjWXXvja9sP+hxybv+zNzbXFN02H3zk/fajjxvW9i6WzXVavL59/85388aL5z+DNWFMPzZy/+2w9WXv71DAZqslK0pu85esvnv2Qzu+HaIqUhPWkw+sREE2eBatjvSEvG3vwAfkMXT5/83jcGLz83r72Jar1UH7z2LAi9lKIx9rLlU+hDYuSLDoyW5S0OaSBs4VCKgq5QcSHJLhXywqxlLullMu9GlnqZrUps3MRLAs2s1Wl3Jyf1ksZOnQWDPcQrQjJPQ92azFcHAKN4jFEuATffr4gvmTPf8toUR3gbGgzBUjiuOjPl3QY3DK0lImIr2JBG7eghfddcYfPa1K79Dz82eeRz6ibomgaBo5p2Dn36VtjJp77BpdOTVFk6d+4H/7i/Wm/MzJ798f9de+3lmRJDw9WivfvP/9euv/hrm5xHMUFpmFrIsrXUrAVDiVdinZLR8g9UQwW/YZdPv/n0Nwcv/Xqn9do+6DxNEXvZNe8jJpmgb07FGLnYmJkSImLOkc6MQjEoKaPMvaz2Mpl3Jku9zFbFzAAx01gIECdFSSl9NOIyIsaUht1LhjyDWA/MBqwj6qpeKObVVb2auAFjJMzRVL2kj6QBAoZeeqx7mSUBbml/IZRU1TSUCT2l75pLbK3OLBx8+Fj3ngc1Ttelz+icquvccfjWR750+vvf1MvnpjnsrZy79INvsShx7epMIRtDbEzNfeKvHune9xc6OUdpEQ2LwRUh2yw+S6Kuy8Wqbmgiqw2l2rClMyee/ubgxWd3Wr9dbTjzcUeXwvjmoP46Mh8BqaoXh2vHqnqh0U8HVWNnkp1JNRKMe9ghFDFLvUzmD5G3ljJbFTKW5qK1LmnNjrQmNKiWMBYGIFWaYlaqjd3IvDdC79JiUAElvYIMdnRhVjKoREuehlFxxQE5s2iIY0QF1y+ay0V7bWbXgYcf697zoMoEWUArswGsR98jvRRENWzv3HXrZz7bbDWlGs5Yv7tyqXX5zKT2qmo4mJq965Fj3fv/u07uoGtRyvApw54tSRGREKWWREA4E0xhUNM+h+t6+fSJ7z7R//2vd9pGe7jW8EMxtVHZL5gqW9Z5HyGWJiJtdHv0VzSAHrSiAVfE6VGjhQ1qxh5u1nmZzLuQq3qZrQpJMxWKRV8QsmhYo6VGMaE5o4pRBQBEwwwfGBI0cnjGGHWjlpsbuDWbR6dYl+oQP3DspWS94Bxj1cLdIWXCRBT0rriKYn1q5y0P/e3kPQ94V5KA9kkjKqyv2epy79pK/+oyly4WF8/0Tr7m1zYmCJo2RQzsqS92LNzx6LHijk9Ze5KuQRQWBvOioEyJtOn5UAShpyxB5w1Z9XTx9Mmnvzl48dld2mv7jdIqWsrCTedHyvDNfGSMNXBHt2OFmTQoqCa+2UajFWJbaIbR3wNZ6mUy70qWepmtSpizN6QCjBFlQxsNTxotJmelcW9LsiSVprLOGzFaywgyeGQRjHpsqo4cHn3MmMlhMpqrw2mDSBrPrUpJZMIBWczuOPBXfz1x+B6YOQyxtoSV5bXLF65ePs/FK/7q4urlC/3lRVcNJ8QasIYreyzMvFMtqKraKFxROKML5V3TMJMXRwVJM7PREk4cGgxi1cNX1DW9cubNJ78+fPm5ndZvVRsNVAIoTeKkP2Ic11vNGTMfNQYKNFTn4UCnoDVaaLTNmKIy4hY+kIqv+TBlMu9AlnqZrUpq3CopgCoFExO+3fIGY3D2oIQILFMGh1XDSObl60JifC0j9DppaYEiCKbx6UaFSnCupooBFIUiRRsQBgWCXgqHJthZh+u3Gk3VduzdW+7aYW+8urK4tHT+vK5cKdfXNq4ubqysFOZbtI5gSojSFBgor6LoGXfMzaDX48bVttOrFy6s/ss/H3x0BvsPGRsUp6YwEQmmyIzJZYSEPe2o+bzpEL6HS6dP/eBbw1ee22nrE1W/UA/CoMm1I7wpQGxD53PlI2VsVi+8ZQuzluGUVJpXKycmJqamoUaQQo2jepBolBhOUNRvSZjdcDKZMbLUy2xVkpNWKLzEfk5jotsvG16HgpSLlppDlvq2zA3cdyKOucEgDMaEo0oJ69dbNLXB4wsaJF2wZknVtSSYUuWPDPFnJoXI8uuvrJ2/CIX2Br637qxSQZNsFqWi8OC6yFCKIV05PTu7+8DO3Xs5M9eYnhpeuXDqX79fLZ7vNLhy6rXXn/rW7X/zVbvlLm0YpWGAau0Nkxp8ZlE5iJofyHDDzr528kf/NHj5+Z3Wa/teYUpqOI/EJJ0VHPva87nyUVI3bWPpvdZroRwsFcWKVtFsxeHJ1FSv49PGWvXjb+LyIctkIlnqZbYwYVwvaTeYWqszudacGK6tFY4WKjXGTdYqdVMvXwjeSqyvxBLJeFWvHnRkXe9Lda+4CgnE8by610uqWhDcFiuHEqt/vQ03qJTOKRy8wSoVtCa0OVGVbU7NzO87MLPvgMwvoDstZZPlBBoNQMtbbt/fnnzzqW/55QtTDa6cPv7qd75++998hQfutLIjRdPqn2lRbEKjv0plg4HoenXq+PHvfs2dOT5vGxNVv1SfHJUZ+sup4z9ux5PPlY+St5qtGECqqUCU0jcU7Ynu1AxH9fn6n40S72xcJeaqXiYzRpZ6ma3KaPNO4w95mrU6k9KeGK6zQQAmFEkNnndZO8hELEaAJe8VZfSedgjt2SjaQnkFRg+QcGoqQlVYLAimKy7DQ4inQBzEeXJgWDe35mUormh329MzfqKLyZm5vfumdu4pZnZiag5FE2UTrgFXhKwKgKBCWhN3P7Cf7sTT38LimamSV88eP/G9Jw48+hW55Q6jwBEGioRyb+oMqvk+qvXhmeOvf+dr5enj8+g1fa9QH+qPRoQObwjxQBSy+UT5k2CjcjuQZkYtvp0wSkXRRhOtiVTVC2dnLLza9VJPDSRclnqZTE2WepmtSsq+jK0bM4GinOiy1R6AndHIT6w/pbWDt/GNy0TqBi4JhIS5elKNyQgjRRWAMKktzYJkkmhpF+yKaZSBiC/KDXM9k77Jhkd7Zkdn956p7pzMzE3s2D29azd27ER3GgZAjAXgIEIpARf7enHbw8GJgd1Dn70N9sb3vmWLp6cKXj11/LWnnrjzb76C/XcauuKaMcAsdvvUtA/d8GeOv/GdrxWnX5nHoDXccFBhMl4krPbtqReL8ynyp2Fsnzv8roBYNM8zcECiNVF0uiPPG8Zd+rFtjLqBK+MW4JlMBlnqZbYudSaSiKgqaEZxE5PabFd0BmEc2jaQprAQw4pc1XtnmHRPSDHD+OWSdRO3XmqmpUJMHVNFqiqFRlaQQdFYZ3MFZTG/MLmwd2bhluHkTHtux8TMPLvTaHXhGgYxcTDSuVBBtDBtRwnNeZoqY1kWRpaiYOfQZ24DT3zvibXFc1Mll88cf+3Jr3/i0a/KgUMG0jWSdFPTisM1f/Kl408+UZw+vhODhl931JTjIVH5jzqCQF7c+VhJIwOhTCfe3LDZsu6UGcO5xijNx1ViLfU4JhozmQyQpV5mq5NSVsOaAG1yqmq2FTQWtGH6YT/yWcu8Gyk7jqMW2ujCmxq40ZCaZmHTORVPo38y6WBWQfplawWtjemFvX/1+db+24vONDtTaHUgRWj0mjJ0WkXEICluNvWHNc3p09WtZUDMwKKhnAjJaW9875tYPDtTcuX0a68/+cTtobZXduAaMFM/kME1PfHSa09/qzzz2jyGjarnYv8v9PySTg2qcsydJy/ufKzEaVGDmRStqTk22gZJY6S1UzeA9FMgz+plMu9AlnqZrUpdRjLTWAKgY7NZdKYqaXgbxIAGWtzNyF3bP8hYihmudx+Mg3qjWHpEd4xoehOFIgDx5KBsr0hrbXrhloeOTd5zP1wbUpo4QACBFDBjQVLM1ChxRxZ1iSZ2bYN+TEcxDtHBhG5CIZ27Pnsb+ObT38TiuemGrZw9fvy7X7/9S3/PA3eatQGTamP46vOvPvlE+8q5OfZbw54zpSlSGi5G3mzpl1zVuwGIG9O0yoCy2Z2ZMxNSACFEVUMQSrhhI/PDvIGbybwNORgts1WpHVPD8HYIXDVzM/ML0mykvUsagtlG8grJfGDirB6phIlFgxWahdRbI6gGFfaL5jKb16Z33/LIscl7P2eNKWt0rZiAa4INgwNokPiBoMWIYsbF3dQOlqTmQ+0t9I7NAHNmpGtp0ekc+uz+R7/an9u36jFdUs+99sZTT+jJl9BbZG+l/9KvX//u19uXT+9kr1X1nCnh4zpwik/F2LmUuUGIp4DRE2g0p3bMh2Zu3KJJGj2n32Yy74Us9TJblRSuakYgyAARStGamjZXqsFiUL0QkuziYspDVn0fhOi9YjoKI7FAiqcQda4njSWZWJ3effDhY5P3fs7KNl0LKM2EcJaCKOruWzRsiY8TDJDrIxs/QbjyhzhUQxjWD7OZTZP25F2fuu3Rx9d37Fv1nCpkePrVE9/5Bzn5O//SMye++39aV07Pc1hWPadKaKjlkRCR8dbzx/i6Zsaj5wzxrQONBnpQG81yetakICWMbIZKXn3U8uHLZN6d3MDNbFXGL9IiUDNSjK61sFcbE1q7v3GUXV87d+UiwAcheRMbTCiqJqDGehwNVJG+ay1L89r0wsFHv9w9/IDKhBRNU0l1tFCAUQCkAHhLVSYW8ACoqpBqm0QA09BlWBIxCsuWVpi489OfJE48+fW1K2dmCts4/8b5f/o/fjCYWL4yJyZVz5nGuC2jwBsQ3ujmstCNQdzvGduthTHUYGVYNjmzQ8WJ0SAGmGn4sHorKx/BTOZdyFIvs1UZb72ZBV8uqjiZmasaTW+iEAdvpmFz09L6RjZb+YBYFFuodXY0HoYZlNIvymU2Vmd2H3j4WPfIA1p2KU0zlzz2YApKcOmrc2rfXmaN9+ZMUxqKAhJG8JFydWkqLFtKdO749G0PVyeffmJ45eQsDBdOAtYk3LByceVCzYSwOjcvy4MbhvAmTCzOfBpApSjEU6zVsXaHItHxEFSNnX1s8lvJZDJvT27gZrYqo1m9urtHUJw126477aUwioaNgZD5kK8HfyThxRxvlqUEMk/pl60ltten9xx4+NjkvQ9q0aU0YS4a3aZAq7hME8fnGRLtw9CejT10aLLGX0VqWRn+Nq7jhqVZCiEiDYWbuO2OO//7/2w2mq4aduG7pg2tBFqnd3BUF4w6AXlQ70aCdXQJaCaernLl7J59dGUY0LRkiC6Sj1om817JUi+zVRlNdCX1YAyX8GJ2775B6QakmSQ3XYOZWC0xMu8Pu26JIeTdmhnpKf2isSzNtZm9+x5+vHvkqBUT4pq0IlZe4koFY0bdmLQLwfXpbziSYKN/Eub4kEb0xgp+oZdsHuZNK2iFa0tXTrxuXgUKNUZfvricE0RnPSmYgtPypNeNQPiOrB2tGUp1FWVYlDO79oJFeMMQXFRImo3e6X2MzzuT2RJkqZfZqtTiQ1URdwYII1wxvXtf3zWHIkFkwGqzNMtrGR+M63YeYclXRdzAtZalfW1694GH/m7y3s9pOcmindZsLaqzsPVqmx7ETGv1FgYpNc3nW52sW2/dRGFn9SG00BI2b36IwVW5fOrNp7+9+Nx/loMNZxq8nhkO/ehpjxnsctOXlvlYCXaKycrQwrI1K3F9aTRmZs05SHjDEBZr4puHvECdybwX8qxeZqtSiw+RkJEa3T9MimJmvucanqWxGl8HiEIiV/XeP9G6LK3ECqlGFfZcc0VaazO7Dzx8rHPkc9ro0LXMhFGlxTh6jjLq47Bd3IMFGCJzafVSLtOWbOrXBrXOOgnBTEmBKeDNBhxctVOvHv/Bt+2Nl3ayP6HDwjRGtyGm5yJbIt/QxLWM6NtIo8IID9eXBud2UIrUvbUU1JzK+XmxJpP5Q2Spl9mq1G/oyTT3bzAK2eDkLFtTw95VjZH3ChMDCGdUZEPl98y4n4WkfWeSRvEiA2kuS2ttdu/+z/9t98hRLbt0TarEeKp3SKiKBy7daykDgWlDOvyj8Q3r+kbU9KDRQyurNmRw9drzz5z58dPFpVO7ZNgc9pz55PMcxgPFqFCTUOAbHfss/W4Aki93XKuKS1YSWrV9YHbPXmlPWYw6jAs6loYAkHeoM5n3QJZ6ma3K5vf0AGhqJoCItDqzu/f2l84Cgmi4EksBH/ez3nqMNmHTdRmQEjHi0QAAIABJREFUitIvmktsr80s7H/4se6RB63oSNGACTCeWWBvLaJeZ2UXb6esg3qkTtMs5pgmi766BrVqAN+XtcuXf/Gj8z//t8m1xVn2m8OBqJfQzSdgGkM2Uhs5a7sbk6T3rB7EM8AoA5NdB26TZkfpahee8DYghmQg3JEPaybzbuRZvcxW5brpsWCeR4OJY6s7e8vBISRmnJoYHY2gZ8q2zxeHEZYSYeO6Qty4wHUlk1AjAytKX5pLaK7O7d7/yJcnjzxorgvXMnMGifvOlqJkgetGIzftdoS+LU3hDWrwKZLD6gVcbFKHRpr5Aat1ufzmuR9++9y/fm/H2qVZ7ZXVwGnFumGb9jBIjZ9L0pGn5ZLejUJahzYJo7Zp3wdQKfos3dyCtSbIgtFUT8aNePKsXibzXshVvczWZuxnvUFJIVSs1bYdu9aNKoX6gUNaxrSwpZsbuJtJrsSpolaLpU1pBKSp0ZP9olyW5ur07lsfOta590F1HZGGGkEIoAa5rh2bXuhaNY72eS0dQLggOZOkC/Xa2Ac2C/N5BjMbbIht6MmXT/7oyY3XXliwQafqleqFSgQb7TRZiBS8Fnd20sR/buDeOMRSXtR4aR2HXtgzaKvFmTkWrbClEVfpx9QecgM3k3kPZKmX2R4QUFDMCDpK6WZ3lNNz/ZWNkgJoMF0dZaJnnfcWLOWPhfZnPfxOjqyHPaVfNJdda3Vm98GHv9y553MqHbpmkGRxwM4YxeNbpFR9Pa5N7dLcngECWFRglJSLlmzWDKCaVqj6HFxb+f0vz//b98uLby6g1xr2nJqDIs7zW9q9SYOGo3iN9Kf6ZuZjJ50p8WClYp2J60Omdt/SmJoziJkIUbufX1fMyzovk3l3stTLbG3G3t+TNCiMBKQ9Obtj3/6NpbNtJ+IhMdNBkqrIjKFQgQD0MLnecC7EjXgDxA1ca0maa7N79n/hWPdI8EluwASkMS1BkBpDx67/PNdV9UK9TklAGPrDlop4qH8HYCYefshqA1cvXfrFj8/++w93DFenbKOs+oUpU4e4/pAsArYo9Xsx79y65/TCnqIzFavMSlAhAs3fwZnM+yNLvczWZtP7e1NCQDVvMjFVzC8sm8y4wvyQoAJiY3ZqmRqmlIKUckZBHT5Go5IVZeiay9Jan1nY//CxySNH1XXoSkKsrs2NhuvTksVmaqkXQktl1Hozjp5LLO/AxGAwL/BaDUQ3hmdev/yzf7n03H/uQa+tvaavnClpOjKCqd1Ysg3H1iCUbNPGlMUKX/DllkJ27LaJSUBiFZhMv2YymfdBlnqZrc31UzuhG0hau8Mde6pGe6jajMM9cegbtX9XvmQECJqpEWKmTLNx8ZpqFCWHrrnM5rWZhYOPPN49fNRcB2ULagYzCQ1eSNpyTcLvHRu4IoLYMk6GegwyvX4GQTJ62FCrngzWVl969uxPfoAzx2/hsDXsFeYlrI9gvFDozIITM5DTUbcCyWXHaFAhVEkxQ1+lnJ5vze9m0dTY3BdQ3yEzOZPJvBtZ6mW2NpukHkL3kUYnLCbn91zbsXtw4bgRRhHT2N3Nw3rXEYfmlCagRqM7xu0GFfZdc0kmVmcWDj70ePfIg1pMSNEKfVsgre6OBHfSeG95hd+hrxpuu7hDHUpxwVilGlDXuXrp8s//7cIvfjKxvjiHQTncKM1oSoBUS/3fOK859phZFNz4xJiUuHERE8/MSU8xMb9nYn6PsiCFJrGet8l9MZPJvCey1MtsbTY3cC0uWlIURWPXnmJ+oXfuVVKIKgY3WG3glusDiVSNs9g9i1VPT1FKv2wto7U+u3Dwi1/uHj6qRYdFyyAENRkap4XWVFhNqRfXXZWvn9Ub/aM6iQNAKDFW8EMZrA7Pv3HqX5/qv/LCnN+YsmFZ9cR8XAJRUAwW9V1cKYmaIR/crYHBQrEOpCiNwRrTDbw0puc5s1PNxfZuPFPykc1k3jdZ6mW2EUJokCliEJvd4ed396QcSlVoJWZMHVwFJVcG3q7FaXQ0C/1c72RYNJaltTqz98AX/q57+AEtu5CmmWwypQ7ehWaOMfR29JBv0XmbnZM1/AoC5pI+VLOBDHtYW9x4+bkT//fpxtKZBeu1dSh+6EKnj15AExocSEmBaqMktawGtggS3w6EiQFnNKX1TazVbi4sWKstlNTNz8c0k/mAZKmX2UakGpIREKFi54Fbz83u2Fg+2xEnlYJmJoDmgf3xxYX6zjimBzM47ziU1iKb6zN79j98rHvPg+YmxLXMBLQwXjXucRydVmrzDFxf1Xur2y3To4ThfKqBlQ42BAO7ePLyL35y6dl/n+xfnbZ+ww9K9aN2n9Vjl+Ej61riZh+/zBaBgKbUOhW3AXGzO3fs/wQgoWkb1oRIvv0QaCaTeVey1MtsbcYFhKlRDCpGJaDG9sJe686sL15oowCDVkgLpvXFIqUyxT/dHBsb4ykU4R5VRZy7o6V82/XZPfsfOta956gVXbpWrNjFXdc4VBderZhlYXX+nI1bn1iUZRh90vojw2OYByoMe1JdW3vx12f//Ud28vhO67X9oNRhYUozFUjwP1anKTjVaEaJFtlZBNwgvO33FN7mTqtjCw2gqUFZbEAG7ali5x4F09atmCKeLjfxO7RM5oORpV5mazM+/rXJIJliKDizS2Z3DU+/rlYZAaVIbbpSl5tQ2/jyHfYJth/JM29TSc/MSOfJgWssSWttbs+BLzzWueeoFpNSNExJ0qgwCTsbaeV5VMUDxofsEaswMJKqJiKqGj6pUNSCnZ8aPPwA1TqvXT730x+uvPCLxvK5eYeG74tWEqJsYyIKUvHQQDMKQEKzAceNxTt8T731zhDKYhQxKGBEZfBle3r/rdadBhwpYZiU1Hg7C/pM5n2SpV5mazOu88zMVNN9QhbmmrtuP3T+td/6tQ1ASLV42dgU7RoKDFGp3BxVvRAYH2+HcTsISC8ycK0lNldndh945PHO3fdr0aVrmAkJxFSxmKCWPnws0CwlbSTpiPqvxj1xxiqCFczD97mxMnzzpZM/+9Hg9d/NVOvTHMpgUMSjBYv6Pa1dhOs962euYG2qu92P3Jbgbb+n8LbfaLGBH+PqyCGoE1O77zwCNESKdMqowdLE3k3w/ZnJfKhkqZfZZsRhPQImhblm9+Ad/VZ3sLbYDm3Hun9b14Hqy5LBeLNIPZHkNZjWKNSoZN81F6W5Nrt3/8PHuoePatmlawJCSOqyJcOU0a/UaIaHlHBGMwUUoJkwXtJV1cjoqEcxQHXYczawK+euPP/zi//54/bqlQXrt3y/1IEwlQ2jfqxn8giDUZJoCA1cxE5f5kbgbb+n8DZ3hvcFoWJrpEIGlF67w/m96so4gEmzm6Xansl8JGSpl9kOpIm9MMCtdQoqXGFzO1u79vaXznkbCDQ0IDEerTDWbKpvbxPs+qssuGkTNlTWCPNGTw6K5qK01md3H3jkWPeeB006lIYqSVLMNPTZ3iqEUw+dMYYWjKH1IkkXsp7QC7U/pVZa9Vy1vv7yby4/869XX/3dvPU7vlf6obMq2COnEuH4iBdinRCpOlQ7NgPb6Mhtcd7he+qtdzLYIoeFDKAS13etHbfeYd1pigtxyiBNVURG37GZTOb9kKVeZjsQdYRZSssI5QIBBUVj9x13nzn+u64OHD2NNBvzYBu7LHHbzepF2RUciZMoYpqpo5hRCDUoZVA0ll1zbWb3wUe+3D3yoLqOFM06wCyEU42pPFODEJoqfYw9OJjG9QyAZoRp+ryAhlQMNV/B92TpwqVf//uVX/6kXLqwTwbNKqxfeIERojAxaDg8CpM6Vzev2d7wvMP31FvvDKMAFmfx3EAaa661947DLJsmjhAYjWG/m++YuJfJZN6VLPUy24FUVQq7fGJmAtKgpBTtxv5P9pvdod9Q7Uk0blDeDJHpVpfYrq/qpfUGU6OJG0hzybXWZnbf+tDjnSNHtejSlcE/D7U6jIsRaVIvxRzU9ioCh3q7FuEjzGIhL1Tl1PyQVY/D1f7x3537+f/tn3hlqlqdlKqshs68RKsXxus/ohAIy7U3SW99O/CeZ/XSPVSaJzboODMvO/dCWmZC1AtAwre18MlkMu+BLPUy24jQNgxdxBjk4Ewabmbnjk/csfbbKx0W5DBlaoQpoPhx23QtI3RpkfzyRlssweZCSaX0XWtZWuvTCwceebxz5Ki6DqUBCIyUFHuGWDu1ZGwn8TqdLr31KzqebBBWNmBmnlDTgQw29Mq5xV/97MwvfzK9cXUX+i3tO19JnBvUICLTdBaQvHPzIN5WYvMgxHVVvUg9JUo1CECVYs1k7+F73cy8SYMSU44lBB6O78xnMpn3Q5Z6me0Dk9YgadBQclIR6U5N3n7Xid8+M+8K1YrwQVYIABqU23Ytg6ET6kFAJdZR6qpZvW8rrfW5PfsfPtY9/IAWXXHNaINHDTFVIdaCpAcYk6zUYISEot2oDBfkWJR4Fuasgshj1eP68uqrL1z4j3/Vs2/sqdYndFhaRfM0E1MDKYQG8xQNNcWwL/02QiGzxQk7NmYQEDQP51lsuKbsu53taaOkU4jprMrVvEzmA5KlXmb7YHV8a92jVAUdmhPl3oON+d3rV044SmmeZgilAqR+4/Zcy4iGdARiCy2uRsBAFRlIc1FaazMLBx56rHvkqLkJcU1DYdDgeweDCExRRwcnu5VgmBIdleMnG6++xUVnhVbqe6IDf+rVC8/8dOXFX7XWlnayKvygtErC1T5NWYbHMRAQxk1b3mzu1tueejEoft8ZzKji1kym9h1s79ptzhkZQm0oNDVKOoXz0c9k3j9Z6mW2D2F5wNRoNEkGewYztnbsnv3EoZULJ7vSoKmZwiwa7WGsqrfN9ARJqFnwVfGqUa8pqJSea61Ic312762PHOscflDdhJRhQIqgqAanvRShFh4PSdhRou1JclIOr3TqshqoUA8bYrAma8uXnv35ynP/OTzz+nyhE9YrqqHQhDBTBNsUok5bG8ntlLMb9OW2OjQ3MZuyig0GVYp35dUhZ2/5RDm3U4P3IjhaGA99/Hz4M5kPRJZ6mW1EvTzAWuWRFDVBd1p27x82OgO/Vni6kUxJH0eM397qpLqmmTH550ko6KnRUwZFY0WaazN7Dn7h7+o9DFUCpBg0RBgAlOhzUS8s16N/MfSAo7k6Cw4rMPXQPm2I9avVmy+f/OkPB6denexfWyisGPbFhmIm0RCHGFXuatlt9YBeEJfb6dDctFxnox39EWFKMbIHFjt2dg9+0hqTRBkXb2Eh2yZ5JzOfAJnMByBLvcw2YpMLRywzGUkpzTd23H5obf9tV197oU0x8/XgT12w2h7BaLEIF9cvELQY65wQiCcHRWtJmuuze/c/cqxz91F1bboGzBlCpQ0gJa48GmXkTFP7FUapHFZsQViYjDRQzQ9hFYdr1fk3F3/1H5de+GVnbXFBe20dumEVZvGs7p0bQHj10buPShsLv4pSbyxibSsfmpucepvb6lHOYLEIqhSrysaeA51bP6lskA7htGOKTgPy7m0m84HJUi+zjdgUyBpKREoQEGPJ+b3cs79/4qXKvFhVz+al9dJtsoE7nhQXw+IslswMtEIG0lyRifXZ3fsfeqx75HNWTNC1aBJ3KBBMqOMOc7IwDv3auOoiSGsacc3WCEOoBPoN8T2sXFr87bOLz/7Mnzu5wGHDDxp+4EzF6uwLMPhYYxSVRo5CTBhiN8KWcKrxbfVDc5MzSi80YwwpjGEoQ3F9mejuuw2zu8CidvUhBQbQEwRcPvyZzAcjS73MNuItVb0wqwaArjA0F+6659Tvn19bOi1kGcWEjXIZ6rLRVr6ajLfJMOrkgpQK6KOxwvbq7ML+LzzWvfdBKzp0DTUBJawiczScx9FyrUV7vGBFGDu48W8BmMHDD+H74tc2Xnz+yrM/X37p+Wn0u+i3hsPCzJkGl0Mkz7XRgwMQ0qL5RrRyiXkYNpoO3PqH5qbkLeJsLBNZSTM1catGzO3ceecRQ0EpYohLKifTJGWn5QZuJvNByFIvs33YVNQDAAaXkLjlCWnecgd33rKxfHFCBs77oCtEoQKJi6VbQExY2qaNE2w2fgW0WuSF0NlQMjPQU/rSXGZzdXb3wS8+3jl0v0pHXNMgRBp8R3ylYKZmBOurcnjI9ATqNWeDKujhe+yt6vkTp/7rZ72XftNYvnjAqat6hQ4FKpbc+Ii4eKGmAtHgdRP3b1PLjqlzWx/JG/6QZN6ReoozLYKDGrJQYISBUpn0XKtY2N/Yc1DhJE4KhB0dAQCO8vU+pq8ik9naZKmX2T5s0iPj9xlJB5TWnt59931nTr4y7G2UCM5dpjE7zNJo2I1OXdximi4ce9Zh3n3UwwVghooycM0laa/O7r714WOdu49qOUnXgAmieR3q5pqIqOp4XbC+ka7WMCjNzFe0Aao1Xb5w9Te/OvOLnzavXpr2Gx1WxWAg8C7G2adJ/HCrtlCJbi1vq6/H79wKAjzz9oRjJ6h3tWmjHBRSwQGKQWvq9vsesLJLlgaJFXaOnwDIs3qZzAcmS73M9uEtVb2wKpD6hkUD8J1PHu7/+2yvv9JkJVaRyhQBUac/3OC1vU1VveQ5l/aNEd2PU7qAD3kYRXOJrbXZhVu/+Hjn8FF1XUgZ1483p1CISPjVxqVzbKOmiGEzwKvvCzyWL6y+8sK5Z35SnX1zptroWtXUAW0oGJumDzW6ui88enVTxlr67By7OfakbuCDkXnPjB9mgwrEG4bi+q5hszvLA5+0sgnnUA9emIy37jffyGQy74Ms9TLbh1rqGeDqe8KItxqEJiWm5vbe8+nFn52dsGFZVQRpShPQlEKtVz1vXGqppwICotBochca1gJ40MhCDZ4ycI1l11qd2Xvw4cc7h49a8FWJ+bYKCkxIrQt74bOM+2KYafrcalTzA8GQayurr7+4/Px/Lv/uVzPW6+qwoZXzVQFfF2BiNLGNFi4sFfJCDziKwLHPyNyk21aEo6mjRnw4r4JdTzT9aSzc91nrTpuIkFAins+ZTObDIUu9zPahrkKNLhIWdJEGyxGIsN2ZvuveM8/8ZGCDlh/QPBjSvSDJv/8Gr+rVZTGJSbYWC5NMG47hKmlQuoE0l1xzbXrPwYce7x55wIoOXGlwEvddpU4uCMIuLkjWXi0xSQ0wpSl0aNqXasOfef3Cf/3HtZdecFcv7nXWqDYKHRYW9lwQF59tfOGlLrPGDduxfYu3repltgfBkSeY5MWF7pDXojQV9Fno5PzU7YfZmDBKLf4JMWTdn8l8OGSpl9k+vHVWj3Uv02jBWs41ZOGWPfd8ZvmZf51wDt47i2sJNAVEMTJewQ1p8BGkXpB2MAsRZuFpWhRmVIhShkVzGc21mT0HH3m8c+QBLTpSNE0lGqUYUc/KxYIL4ggV4s4FYTQ1kuapA/RXuXjmwnO/WP7tc3Lp9CwGXXo3GIgpQo6VhfUONZqYUyrz5fqmJp1TSAVeQzq7qFKueFk48lk3v9dcI5qrjDRhHs3LZD4cstTLbB/eZlYvbgMoUi3JWMrUXPvQfeeff6ZfVaKVg49WrsnYLWmpVCC8wa42odYWl2ZrR1oBTFIQrWj0SW6vz+05+NCxoPPoGrWhiaXCSSi8xdLbyOmMME8CqqYVWLG35lcu9l589tQzP3XLFyf761OiRdV36hlMa+LiZPLmsyQaMzc3yT3HANJEaVQ10uh6bPiJudYnD3NiRlGQRcrFRdosz2QyHwJZ6mW2D2+3gRurXABUIULSGcuJvbdN33Fk8YWf7SkaVvVCPS+IndhhuoEdlaMSrfcv4vRbVLkGKmVQNJekvTa7e//Dj3cOP6CuLa6p5kQsVP6ifTFHPbV6qyNueJiaefNDsSGXL6698sLpZ37qL5yYHqx34Rs2dFXl1MMIRjeVtxodJ7PCzE1KMMarC3TRQwU0Y1U0FivO3HXvxP7bFQXpakfIUVJeiEm5wb4BM5ktR5Z6mZuClAMbTOaczO3q3HbX6ivP9/xaQSFMYu4qY7irxarCDSj1akZ7DOEGoKCnDFxzma21HXsPPHyse+h+KyfEtQ1CSgzPGHOxiC4zYcDPUsSIevUDqXpcXVw5/ttrv3v22qu/nRiuzcKXOnDqacq0w0JTDQOPwYIFyRy5trDJ3KxwbDIABqWKmdIpZQPOT85N3HE3u7NGIRmiUYSigMEEVIzPeWYymQ9IlnqZ7UztEocojGCmpFOUs4c/s/T7Z68ef67tnKiGrAjjaAM3GhTjRtd5ZqlkYqJkv2gsSWt9Zs+tDx+bOHJUpSOuAYiZCE3HViUAwEwoFpVZqL0MMRyY78tgffD6i+ef+en6Gy831hcXCmv4fqm+qEuHsX8Mq438xuyPASBfpW966oVuAKmEDKV5V1w1NA7eMX3HEWVBKc0EaX0jTFLUftq5qpfJ/JFkqZfZltRu+2P+HdEqWAwGacjcwszhzyyeO9HfWCyoBqXGJdZ6Zo2I82sf95cDpKtmbVmS7oQBIWbCk72yueJa69N7Djzy9xN3369ugkXTlIgud7HUVjucJEcVo5l5D/H0G7i2PDz7+sln/n345vFi+dxO0Y4MZTAkPEOdM+yujELUAGDsFcsX5sxobjZuhQNiDKea0q1TfHduz5HP2OQOSCNMIFgIronGjdf3fbPgy2Q+MFnqZbYltbYLRMsVQmEOFEqp1pi/54Erz/1y9fS1Jn2pPmnB1NAEAKZch4/tK4lfwMgAZZPgC9dDVZhzqZ6370C9hyENmhjr+qQJxMQwNtdo0OiH7AdYvTq4eOrif/505eUXOv1rnarXEV/6YWEVQ/BtPc9X/0Zo8vlDMnCmBafCG0UlZ/7kJPlfvxuILj4wSCVunQ0/s6f7yXuMDZEijFfUkq4u7I1mZvHxfw9mMluXLPUy2xKrNxfSTm5IwqivKCSbmNyx9/6/OHXhVHfoC/NUn0K86gVX1I7FY/ldH530G98hxngpY9zQGHVVjzSogSquX5TLbK9P797/yLHO4Qe16NA1CUk5oqnbqzYKBKGa92ZDwZC9q/1Tr199+fmLz/9X89riTuu3ddiwSryKKWKZM/bAoxNG2FS2WMmz9GRvBGWc+ZNz3akb77PRb+H9ARUyoFsrJ2+5/89tcg7SqCNuo9t5VIijrfBNnyGTybx/stTLbEtSA1cUKoRA1FQIF+yUAZoULCcmD93HZ3++dublUgdNejGDiYkKJJjJbc5pHTdy+SiuPG/rDJiyzsJnHUuz0CBDSS/uGsr12YVbHj7WvfsBKybomjAxGX14fJAggGmgmXnohgzWeiePL73467UXXxhePr1LfMsPSqvEvItfbuqmxbHAWKiJNZfQEQ993djBjcIvl/RuJq47dYPq11TzpYFUmshQ3IZry8Itk4fuQ9FS5wDEs8di0AtMYKCYaVrizg3cTOaPIEu9zLak3vuToDzi2F64NxjtkeYamNyx//4/P3H6tY40SvWM00Thvxg7EfcPrq/qfRSXnfFot9H1LUZJpXpe2DUxs5g3RVYGmZw++D+/0Dp0n7oWpUmIEWYmNFVSBObNKCJxF1kram949vi5Z37af/33w/OnZpzvSuWqXmHewcTqSSsmvcvanhDjTdvUH049b4suK7mBexMxfuqGPwqMRkGsI6sRCgxc84oWt332L2xyHkWDkBSKEU4rAWo/IaTMZKQ7M5nMByFLvcy2pJZ6tToZ/RqDYk2Ujo2JiU/c3T1417UTv2vKUNSiXT9SL5ejYIp4HYqBnvaWz/jHlx3q66UCgrg9Mb7jmpYgzAymFFA8nacMB8MGBd6DEst4cfui3lAxjDRvBT/onTp+/Olv6hu/nbfepPPO952qWErIgKQtX4wX6EYX5dHeyuZtDKabWefdRIyduumdEkxCtS6Mu3qykmJZ3Y677+vedR/KtrEghKRBkYKSUzTfWzKR89mUyXxQ5ON+ApnMR0EyYA3bfCEuzGBmqqESpkaSApayc9/0fUdXpNEvmkoBQuJ6+E8JjzgxFBSYAS59Fo79Dx/Gtah+HBem69JdDqmHG+5UiEcxcM11aa4alQV7vdd++P3q9Zekd426DlZxysnisyWdpe93U6UNL/zmVxvHf79b/LTvN4brZeVFvcCgICTarxDcLNmicTMQxC8sJLLVTzBzczJ26lIIBzKsAKlAQ8Q03MA111uTU586yrkFk0byLNf6bI++j5H4nmtUKMxkMh+ILPUy25Lxqh7TgBpUNXjsWSghGCClFe3JO+/p3H73SkXvGoYwemaIuV7j4V62+YJjY//Dh3EtitdLs/B5aaGNDDNCDSDCNFNF9l1rWSbW5vbZrUdWXKsoS65cevWpfxwef56DVat6pA8iVCQ2yGihrWoU2sYG11c71Kbvl35QKAQqCNPzobqSLJBHMi5JT44p3HRrVNXL3BSMC7K3bmMED8uwwB6K01a58vJQJz9xuPuJu801KMW4aV46R0lS4inL2MD9sN5JZTI3K1nqZW4K4oVEGByDNZbpxAiDK+b3LHzqc8Pu7LqJZxG99cybkTFHo76e1VeeUORTwH94Ui8+zsibgqGmpsmoAt6olL5rLhet1bl9sw8d2/W3/1/z7vuX1U2Urlw699pT3xy8/Dz716waGjRoxfrRwkKFqaHRsLL0WsULaDQUjBYqMEtRF2HSyrKUy2zmuqHSWo6lcEEjzUzDyCi9yDodZnbPffoopnealKDYWJZKOD/DOzHUa0SWS3mZzIdAntXL3BSMagYyilEPU3hgoWh0Dt0nv/mvlReXW4Wy8jQlXNg3hdKSHwQAQONHXy99PrQG7vhlL5REQIiZQbzIoGgsS3ttdvfBLz42cdenlcWehyYrKZZ/9+vpAuvL548/9Y27KO7OT2nDpGibgQIL01BRtZFl2d25a6M94fv9sKZBxOBRNZNQiQlqb7RjkXcgMzW1yNN0T5zVC5Uy99N/AAAgAElEQVQ8Rm8gM1BZDF25grL45KHu4c94NoVF2AQXiirqybz40GNr5h/DV5bJbDtyVS9zUxDn3oJ4SasNAEABibKhnZn9D/6PwfSuVRaeRRhrS6unYTeBces05EsERzmrfeXwIcig1CodlfTC5FJ8ElS6QdFaZnttds/BR7/SOfyANqbRnOH8/lseOjZ15P7lCm1huXLxlaeeGL76nAxXtdogqvHqCEEKTTm7sK89s2OgBiEItVHTOsRTheT5+DXmWbzMJsaXxMdnGCwuAdGMMNJIT3cNZTW9sO/+/6ZlV4oWTGJyc1wIH2m7+l0ZclUvk/mQyFIvc1OQstGURpgCGrKXAKgRdHTtxiePTN31qWtsVSx187dGMGGp7eIY5+lSc/PDauCmiTeKxM9DAULwGb24ftFckvbajlsOPvL3nbvv13KSRVukoWVH5vfvfeix7j0PXFU3Ubhi+fxrT35j+Mrz0r9mVR/mEWz4QhmGVClkfqfvTg+NgBCO9fpJXHu0VLPxgAeQf1xkxpB0bsh1J4alurSKgVRIJcWKtGbu+Wx58BBdC5T4PUNHCmDj1bvcus1kPnTyz+7MTYQFNcM6Uj2WsQiBK6zZ2fvnfzmY2bVWlJUURgklu2ATl3yHY+xsMi8ZpUV8iFW9en8ibJUopSL7ZWtR2muze/d/8e879xzVcpLSIsRMxDXMtTi378BDxybveWDFs+2cW7rw6ne/Pnz1BQ5XzfcJBTWt5QopNjnDqbmBOB+z38yYrPSCR0sais9zepk/RF3YFguBtnHS0yq6Vde0hf0LR//SmlNwZVo5qonVvFjTSyA3cDOZD4ks9TI3EXWDVIOsIc1UCEAMDq6B+b17jv4/S9LoF6UPF61oSRf6UUgSLPhHMJq4fFhG/paKaho6txacT5TSLxrL0lyf27v/i1/uHrrf3ASlAROjA2kmkAbKCezYt/fzfzd5+LNXvbSdlEvnX3/qG/1Xfs3BqvmBwUcDM4LiIOXUnr1odoZ0oBhDtzrtaQTP6XoFOTrpZTKB+pyvz38DaJCRA7lZRekVzUWU+x78H5zfC1cCjhDSQuna4lxfRFXHBGCu7WUyHw5Z6mVuIkYNUjiG3Yx0UYIRUqI1NXvPAxMHDy1b6YvCU+q1Va2zwUgCMrI2lnSd+zCeX1jIGNXSzFzRl+aytNdm9h54+PHu4fu1mGDRJIR0MKSwXlIKuP+fvff+kuO67n2/332qOk0AMACIRDApUGKQxKBIWZRE2ZR1na/v/+O/5q31fL3eW35P12k9B11bT5KvLFGSlSlSzASRBpO7u87e94dzTnX1DMCEwMFgfxbWoKenu+KpOt/acSDHzt797H9dePjJKyqDXiWX3/jNN/9Kn/8Rx6todmhayqgIEZZOnNHR0raFyDYyfparm8quIDdDg1v2nA6dlNvZ61SmKPfGM4qG/kWEIw99avHBR6wegVUar6kRjYjATMhSttxFnuPcFFzqOXcQrdTLbluAzGVGyEBWJgMcO334yac2B8sb7DVS2sAmcxvaLuw5KQNFMN6w7SOTsiJpJg1lJ/RWZbB95PQ93/hvCw89qdUCQw8QSyUtUs29VL/MhFXfqiGP3n322T9ZfvjxVeWwruq1t371//7l9Fc/ksmGNjuwmBzSRvaOn5wOlyYMEdSs50oupLXO6hu3g85tT9FkuTh5zhtK5cpzkjaTfVqi9DZZT5eOHX7yi7JyxqRHhlm3vPRQgfx4062o5w5cx7mxuNRz7iAMmn4amvSaBCCpep2BEmqT4aEHP3n0kSevsDepepFiKS0ipfAKqaZAFCgUqppbaNyAOak1aZA0MIqMw/AS+5tHz5z9xp8vfPxJrRcZ+kAwKxoz9ecl1WAUM1JqrQZy7O7TX/+zpYeevBI5EKkuv/nrb/7V5Pkfc7puzdgQU51kWzrUP3p8yqCUsnIxk3y0oKUThrnYcwCgFCdnKU6eM3gYAaMZEGFqoIqMQ30l9I8++unRfQ9F6UmoARGUIVtKe2O+6d9Vq644jnM9uNRz7iBKwdbsdU1lTHI+QlZPZKh1dOT4Z7/cHL93TatGas0fS9HmuQgKDTQpNSGuS+e1Hqu2rIuBDTiphpdluHnkzNnf/68LDz1p9QihR4qBqorkA0OxjpScWUIofZOhHDt777N/uvTQE6sRwzpUq28+/9f/Z/PrH7PZtGYHNDKA1bHTd8e6ryUkPtVYzu7cdjpvj5xzp9Na9RRmqbY3Sn8XYwqApZKTUK9ajdMfOvG5L1t/SULP0uME81iy+X/w3FvHuWm41HPuKLIDFxBCZikHTFmDSJY9hEG4+/7Tn/3S1nB5m3WUYJTiospdJcRACih7msS+923qGjNIkNE4Df0r7G8dOXXvN/588eNPWDVk1aOJQUjkzlFWHF3ZoYysWwGGPmSAlTNnnv3TQw8/uRplVEl15dzz3/zL8S9+wMmGNduAoddbPHPvNPS0bQZSouRJMUjKMHap5xRah35rzE4PGMFSiRUTY4gMW+ytD5ZPfuZ3bOU0qj4opqqc6TkzS3Z1LRm4Np+CC3fgOs4NwqWec0eRM3CTaNNueROSuZOESKiN/UOf/MzoI59YleE09GL+U4qNgyU9pdZOXNe1TR1IKhiFa1JvHzl577N/uvDxx7UaUnqWMzByikjy8ZppNsalvrWwlD5iANhDGMqxu89+/c+WHv70qsqoDuHym7/5H/9df/1jjjdNp6TYkaPWHxnEZpbF4lBD2wPXHbhOIlmxSQvGYtc2M0SaCgxkQ05D74oM73rsc0uPfNrCiGGQHq4k1+8pvW6Rn7pSrXDOC0G4hc9xbhAu9Zw7irlOnUBKGURbRCUJHQNZDW3h6Kkv/e545eQ660Zqy30B2uoquxZ4fZvVBi2ZAWyA/sLSfV/7vdFDD6ukPMUGOlGdmE60mWjc0WbHdAqdWpyYNsDUtCkFYEioAZAaYcCV0/f83p8sP/TEauRCFXqr5371zb9sfvmcjNctjkNfjq4sR41CUlJpaSvOXBRToVv1nETJW09tBVE8ugCgIBSIobdhvcnhk0ef+JIND6MepMuNkrulIT1ItDkZ5UkrmfWwp2eG4zjXSfiLv/iLD3obHOeW0sbrMUWEE6VYXqodZwQRxIhqOFyoqree/9WAVmkMqZG7RMmZu6UM3fXNRyUOna3QbAyycKg6dVYp1XhsG6vc3mCccLrDuEOJREM01CkxpTaIU1gE1HQKi2YpNN6ASIoR7PeXz5yZrK1tnnttKRg31y++8tuFUb+2ZvzSr9Z/9sPh9nqtkTnXWFq1d/1H2zlYpIFq5fLJr0ghEMGG1U41XB0cuu9rf9L7yKPWX6TUWRTmSNAk4BS5N7OVHjSYJec6jnNDoVvInTuNHGFUAo2ImXtylnRBI6aI27b65qvf/Mvt5759Rsb1dKsyLcFJuTIJcl+A2ddnWbQlqfAdtqdtAJr8ymAM4Qqr6fAQD5+QpcPGYL1+NRyZVLGusTAypfR7i4vLCvb6w+HiAhBQ1VhaAgPqHgYDhB5Ui3N5gskmLr556R/+n62f/3CIuG20hUPLd53aeOs12Vw9FMe9qKCSMIXIXFKk4yQ6yUO0VF/cCEJpNJsyjOvRmzY4/NmvnHj2v9niMVRDIpQ5poRAgISagRQrS7hRHWccx9lL9UFvgOPcato8hlnlYynCLUfDpVpfotLH8vETX/jKy2++eunN51dCLc1YIGCuL5xnpzI/7fI6vUudxFJsom3LEbQ5LDbevjzeWpsYo4gibBkiJdIiYBYkhI3FRQVD1esPBhBGhjBcUJGmqtAbRLDXHywuH1YJEuTQ8mKIOytnzyxcen3ntZeOEHHjwnj13GJgDa00ipTigT7dOtdgNsJTHWQAVDMQomBT9S9rkLMPHPns07pwiNLLjQhFS7BQ23hFSsxCJzbAB57j3Bxc6jl3Kp0oOxrVVETMtPUxmZGsTXr9uz9y6gtffeXvVkc7lysq0AiSLU5AS6HkrVx7H1Y9zOxnlvsMQMU4gPVgFqAGMFigWTDCRKkSwbi+ZTRTRIURIadAWskoliiyVadC0LLT7yE2tdhwul3TQpzWwmEQqAI62+pO73k36Tm76HZSYf6BVIyoYbWB3tbyXfc99bXeyftVBgyVaWqESyC2fTVyhpOh/C1dhG7Vc5ybhUs9506lI/XaCcys9GgiLHXqDH2tbPGTn118+aXLP/hWXfUGjVIjAQhyR9nrlkRl+sSssF5OD5kipoVPLUpq2AEoISmWPfdmQ8rEzd3LUlKkUsyo4y2lqCHuwAxiJlSBikBMU/IGmL+XW9QXheoOXOdasO3XTEawAXeq/pUwPPToZ0ePfFqrgYSeqZRKRDmtO0XklVT3vKTOQm/5bjjOnYFLPedOpePAbUsHAwKkgidCiBmAINVAR0fOfuXrL1x4dfXlXxyTSDOB0mJJK5wFvHbl0XvSSW0xZhqA0Jobs7PYzBhBmAKksNRmgc0KOJuCgEkShGRjlMrE2BhpFgxK0aCkqSUHtkWKZKWLOZ33XrffuRNobdWWLXtqBqNMQu+C9YYfevTMU89ob0mqoWU3bxuKml23VmpAorViO45zk/FiK86dSrfuSimzQpqkoiNGMhWWE2MF6dvRk/d+7Q83lu7arAaNVCzFk1t37dws+L6qglnK8GXywpql19nMV0LgkcQlAQiTSdFymT3kz5FmUIJiJogCDRornVaIdczBfqVicqlkVupmuLxz3oauAzcNHSUbqdfDMB4/e/bL37AjpxEGZsFM0tWh2qkb2VaRROmhOyt16TjOzcKlnuN0bRXpnxTlV/I0pEI14n0fu+vzX3kLg3E9bBg0t9DYE6j3fquClVpl1NxgKvm5mD3KCKXOM0rFilThuHTKKLFQZdXC1KQqF6211JcqeXjTla9Mxj3mWi837pA6tyE2k/xzTwBFmXVCUWGpO4Y0Um2G3lpv6fRTz+DuB1APKTVKWAFJEclXBJnaYzA9o5R30c1schznJuBSz3GAMjWRKaUhWm6MUerdgZA+quVjTz595LGnzjX1pBpMITkyPdkp7Hojy9tJT2xuAmwdtMz1amNrHKEZ1WhqiDluL1cIJFWLYRAgc/hficazsm/FMOl1lxyWZ4c21ba0tsghqW3cAM1S3k/YDoOLMjr6xBeXPvkZ9BYhdWmfnBfSrYcs7WOVwWBq0a16jnMLcKnnOFehlFlu6+cFUFANsbBy5svPjj78yAXrNXU/Skjd0VI+rnbqtxTanqHWeX3tlTLb8a5h67iqjJxZ8qxjiizTdrL+GZOuSzmPGWQzJucSb507FWvbYMysepbNea3Ig2QDtko1DoNL7I8+/OiJLzxjoxWrB2SViiIrgNQoN8UjtIMwpR/NP8Q4jnNTcannOC3t/BNyVQjLJf4NZiYMwXpDO3b22Je+tnP09BXpTapac7cAJDHFEpC0Z5kE3mF+mzXo5ex1axHpvAjlDYI0AShESN07OlGHORe3dAUBWgsliovX8hvuQXOSUxYmVly5VkoeG02ZH2nSw4iS01CtSX969MyJLz1rK6cpA6aQhvLEgTaGtfzMTfdyUUsKgjtwHecW4FLPcVp2W+CSxiOpmqLaQKlQDUYf/uSZL/7ulWppg4MpQ4SU7IhsHGsdqYY2QUORLR3vwqrXed1meMy/KC5YM5bOvLRc1iJXs8gzNrsrnGnQtJSOpnTueNIgVuYwujSgcwZGiVWAmShlzLBe9S/3l05/+ev9Bx6yasRQw8Ta7+bKPyWvKJn0stk7ZRp5Wobj3CJc6jlOy7wFrrQrKxoLgJgFVgOtR8uf+tzpp756Ab1xNVAJEVl9FZWXa5bkXFkmj9Y7OHCvvk1Xseqxa9UrkVVtZF9py8s21mr30tpXXU3p3PHMgjhLflIbscfZ4CKnDDt1/5z1zzz99UOf/JyGAape+2DTBpEiJ2bsTlFqLXll+PoAdJybi0s9x7kGzL4mCkUkzVVCMSOrno6OHPncV4498YUL1pvU/QhqCobTnJhBNQNUUgA6DaHbG8px9h/WeU4wIKZLwErxyfS4EynjenABg1Of/fLRzzyt/SVUQ5oQIT98lKcI+Fh3nP2BSz3HuQZtuoK1ZomUOihgxapvyyfvevob9YceeUt703qoDFoapRXfqCG7WLOFA4BPf85+hSyFVHL9nmygK2GkZEPZCYNLMlz8+JN3PfW7NjoC9oRELsmd3bMsntq9aUqO49x6XOo5zjUorizTNkwOqTaxmZA9C0OeuO+ur/1xPPXAqgzGVU8pbWuy1BRKtKS7wooLy6c+Z7+SRFsarRqsfU2YITKMq95Fq3H6wye/9sd29G6TAaU2kxyakOtyl4jQ6yw+5DjODcKlnuNcg1IfjNIJmEOq/woYGXpAb+HeB+9/9k+uLN11hYNJ6ClDVntJK4IwNVPzwnXOvsfMwFJhRXLcKQg1RHIc6ssy2Dpx9tTX/jCcvAfVkKFfYkVtFpOXHmreubiQ4zi3CJd6jnMNmIuSpNqxs4wIyzNbUnsaBv0PPfrAs3+6vnh0Q/pTqRSSKypzFuHUCTx3K4ezPykNoZGykiyV21aYUqahvxaG64vHH/i9Pxk9+AkLA4SaKXSVc71xZ35bd+A6zv7ApZ7jXINO6ZUUo1cK5uXyJkpGkPVQ+8sLDz959neevdhb3pBeI7WZzPrKUkiYNW7lcPY3KdBASSElxZmCNEhT9dalvzpceeD3/3z0scdUBlINYQEgJHfzI2laCnGnskLuwHWc/YFLPce5Brn3bOkohrbnGEqJWCOFEFY9HRxaevJL9zz99Uv18mYYTUMdU42xoviKQdCVnrNvyY8muUwjSUOkTKveFRlc6h06+6VnRx9/TOtlsGcgJVuv2864zB2aAbybkuGO49wiqg96Axxn39L6n5SQ3ARAxLSUiVVYLk0RGIY2Orr8mad3NjbOf+9fgDg0JSJhVDUQkLbP7p65b5ejy40hzk2h+FiBHFmQEi7SME7BpEIGs8YMZIhiDat16a32l89++b8sf+ZLOjosoW8QMwGznTt12CsV9ACUwWs+lh1nX+BSz3GuRWuUkNzKqY1IygHsLEmHwQBUfVu+69jTz8ZmeuEH3z5Gk2abGpP7NsXqpeAn7BZ7e60fPjc6N57yrIEkwUoI6qyJMszMIkga1GwawqYMLoTFY098cflzX479QyEMjEIEoFwSANrOejYv7FznOc7+wKWe41yLmSOqlEVOL2xWQqz0IQMCKCBw+PTJZ/7AzC4/9+0AUrdqi0LQWGq2oCQodudAr07h3HTM2i7N6Dy2ACUjAzSoARLJRmQzDC7JaOWxLx5/+vd1eFiqoaGiBQMpChXOIoDms24F0I4P13GcDxSP1XOcazHLy2DJyUhllFO5Fdgs6zBF7oGVVQMcPnX6q3+4+InPn8NwUo0iK6UorbTfKNNq6UNbZkUATVm13vKdde4E0rhKt/0SOKpQAGZMrfsoCkwlbNajC2Fh+fEvnnrmD+TwSVYjsJdGckrA6PRRA0qeOcRD9Bxn3+G1vhznuuhcQamMnsIi4lZz7qXf/vX/wRd/egyT/mSjVhVRK62nrG0vCszl+s5ZQny2dK6fvSVPBLAUoWfoRBWY0dAIm1BvVcMLMlz+1FOnfvePcfg0ZECpDDnTiK2d23Gc2wGXeo5zfWh2VxmMktuEmjZsNuMbL774N/9dn//JceyMmnHQKc0Ig0guTWsCGJkMewYEd+A6N4tZwbtOsmxqAzMrlSxNqDbD4EK1sPypp04980c4cgrVgKwBKfEF+cP5dVm4ZxY5zr7FpZ7jXB+5022a9jTVqgCVOkHcbl578fz//NuNn37/aLMxjDt1bMTUhMw5HdrWYJmfLd0H5two0rhqK92l32lmhBoljVhJdVWCbIXR+bB4+LGnTj7zhzhywsIIDETIA5wCK/kcH+xuOY7zrnGp5zg3gFmrgLbwnqjFhs0OLr/+xj/99doPv7MSNxfiuNJpKB9nTuRt4/ZAprgpIc1DaZ0bQTI7RxgMgSVcT2nUaJQ01hTSSL0hvUth4fATXzrxzB/g0CnUA7CCCViMeOlBpuTwut5znNsCz8B1nBtAtzGUwUhJTQe0JldOn/rqHxvk/HPfAWWhAeOUVDOjicmsJjOAFNbeCeNznOskPTAQJhCBgjClwQAJVEJNKU3orcngcn/50GOfP/H0N7hyWqUvqAEpTxwpilTJlEXkwQaOc9vgUs9xro9cf6X148KMkFxzggyoRnb0zOmv/hFFzv/Ht63mIrYkTmrOPL/dEhiYU36Oc73k4cQUMIBsRzaF0UilTEPuh3HvV76+9Jkv6+goZCAM1pbLS43+cl8MKWPTh6jj3B64A9dxro+SlgGDEiIwhdICUa4tM4ucbnPtzUvf+6c3/u3vj07WFuO41mkAaJrj3PcoPFd7zvujHUi7Er1NLbWsBUBCTZQykd5aNVgdHL77K/9l+cnficPDUo/ICgZIengJJcbPIwoc57bEpZ7jXB+ztMbSIBfJoYvUUBSa6o411mzL9sX17/3LC//8zaPTtUM67jdNgBKqaiKyS+q5bc+5IWTBZ1BASDUlaGCUMAn9VfQvLx3/yO//2fChx3V0hNUAFggxKNlG6Ykn2TrO7YtLPce5Dua7fJZeGkweL4BqJq0EtKlNt2V8ZfNn33/h7/5qaf3Sik76cSdoBI0poyMFUQFwq57zfun2w+i8PaujB+NUwrgaXrLe+NiZe5/9s9GDj2l/iVUfIsgmaSPFJZ3jHABc6jnO9XHteTDlKuZuuWqAElGbsUzXNn/13It/938vvPXqCid1s1WZCVSMmprHz4fuOc57QlVFpH1RfjVTmEApEdW4HlziYHrmw/c8+6fDBx5SGbIeEJK9tLMcW3QKfftodJzbEpd6jnMd7O1EQEvtB9qpsVV6hMEUiIgT6vbOb/7ztX/8ZvztL45hZzDdqSwGKNT2ZGnkSrdpwd01zP3q/rUDwtXOozGPqfSJd+pWUYr+UPMYaWEUaRi269E57S0//PiZZ/6IJ++zsICqR4gZIQQsWZn9QcNxDgYu9RznOujkZCDNwaKmAlFCgZSuaGY0s2RfAZQ0NGPG7fjWK+f/+X9c/vF3jmE8anYqnYpZ6Pjd3qFWrWu5O4w2UiD1MbOSckEzgKlrWQrxVFURmuYieGZmEiI5ld5WGLyJ/pnPfWXlC8/w2FlUQ0gNhtTxJX1emIe2PzM4zgHApZ7jXAfXtuq1lWa71ZXLt5Q01TGbMVffOP+v//DWf3z78OTKctzuxaYyAyIoaTnsBl7lJWa7jqaGpLutelp6zvsMfTtytfPYWvVSNGhpWtv5/Ny3y2BLMaM0U1CmIuPQvxKGl3tLd3/x2aOf/7ItHIUMILVRBKJpQJHeD8NxDhgu9RznJlJ0npZOA2YGghRVU8YGcYdbq1d++O1XvvW3ixsXVmzaa3aCNgQJghGWGlm9k9SzkvxBpYm17Q2yEHRuF64l9YyW29aWYin5RcrpyS5bdIaJpt62VKIJ1XbVv4z+zsrpM1/9g8Of+IxWC6yGlMpMwLYNho8UxzmAuNRznOvgnax6qqlgilm2xyhVUj1bpHq2cWo2lZ317V//6PV//Yf4218cw3QQtyqNwQiqQdkWrU2Ou1a8XcWg0/kFbpa53dmVPztz4CogaioKBICiCohKKoTXGZTKKJxW9Yb0LodB/4FPnH766/0HPqbVAmVAEVMphrySDORWPcc5cLjUc5ybwqxPWonSMzMKCCGpZjBL86lpQ51St/DGi6996+8v/fjfj9vOoo7rOBUzQWyXSc6SPspqwFw+o0RqdTI2gNKv7VbvvfO+6T49ELPzXbJzYLNzDiR519WEJFOpZDM0lGndv8L+an/p2GNfOPnU79nKadRDSm2oWntzu0YfKY5zIHGp5zg3l/YSS6IrhcwjR99BhGZKqsUJptvcuPjWv3/r4nf+eWHz0iHb6cVJpVGQO1TZXiGXDYUmyuTSNUFqUpo+JAoV73JwO5ItdgAAM0Tm06hQqgTRCECFgIqKSiRICwYoFSZTkUk1vGh1PHr6ri8+c/iTn9fhCuqRSDCT0pDP/baOc/Bxqec4N4XWqtfOo7vzM9gaaJKpRqGNxbFM17d/9aNX/+lv8epvVjge6rhu4sy2xxTElf1rLJm/sBy6b1RqStOQNnTLZ/LbEAUCjEal5V7JbVBmlvy5x1nK/VYYYcHEGpiG3pr0LstocP/DZ778bO/+j2k1YjUEBQgGmmqReqlTCzot1BzHOVC41HOcm0tX83V7kqqpUNTUAMm2OoNF6JiTDb3w2sv/+Dfbv/zh4mTtiMW6mYg1AiRdp4ARUkqyZKGnwiT1jEakWhmEx1zdphhAKFVUFOmcqkBSrbzSXsVaqx9gEAMbkWnVv2xha7Ry5JOfP/HUM1w5bXUf0ieDAWTo3PYNMFLMmIeKp247zoHDpZ7j3CLa+hh5Xp6937X/mSFSJ5iOuXnx4g///4v/63/KW68ek6bf7ASNYkaqJRue0IrzzmghVgaYGNEJqvcM3NsYg0KFotk6m0qnwKgCqolRBYaUaSuRjFLvhP4F1Hbq/jNPfW3x4U/bcBnSZ6hAMSVzM1sfEY5zB+FSz3FuGVb8rzkQ3jpTbjL4mQGmEEOM0DGnW/rbX7z0r/+w9fxPjujOok7qOKlMBUrLZVhaq56YtGkZYErYcKve7Yt10jJyvRUk0xuKQc8MAiMiRBmmoX8F9Xp/cemRJ8988Xd54h4LC6x6xgCT1mC3O2cc6UmjRO1xflw6jnP741LPcW4Zc8mV2ZiHXBQtpUOaQVhUIFWn22x2bO382o++e+67/1itXThkk2EzrjUKTFSNyf0GYK5PGmZhfG7Uuy1pE27RqZyjli15AGhGQxQqpWG9LfVl9pqV02ee/r3lhx63hWOoRgwVQFBK7wu2XXHT8BPmQILS9UXcgavUKMAAACAASURBVOs4Bw+Xeo7zwdDWPAZS59tZVysSqpAc0TeFTjm5Mn3ply//2/83fuHnh8dri2j6cSoaSc3hWimhN5lo0CoF+KR929MmcAOtVc9KO7RGZCKDDfYu95cOP/LEXZ/+nd49H7F6CPYhvVKbpWRsp6UIcg80QISamvcViedKz3EOHi71HOeWsduql5JwyxSeZlxglqhbLDvWmI4lbtnaxSv/8W9vfP/f6ktvHsZkaDHESaXK1u5TtGPSBKVxPQG0jt33sK02Zyn06f+azFc7vMah3lVuu9hur3GQ8/FHqWmcM2zzYtXYSGiq/kbkRj2y4/ec+eJXFz7+OBaOWOhDepQUmSep2s8sGLRtvZHatsysy3n73IHrOAcPl3qO88GgxWcGQGAKclYXxYqHt0hBqNkUzZjjzcmrz7/x7/+y/cufDLevHJGmmo4rawRGBMBSFQ2jhRgAU4leVu+WcQPtYcV4lyrnALkqspkQkIZhJ/QvopouH1v8+ON3f+ZpHj+rvQXWAwMxq68jJcG2tfaW0oxKCKDlDWFaxQ3afMdx9hEu9Rzng6G16gHItdFK1b254iwAmJSgAmpxjDjh1uUrP/73S899b+O3P70rYNiMezoNagI1U+QgLLQWxJl5z616N4PWqpfb313Fqtda03L8ZO5cy05njHyQczoGkOV+su7BTCSCEWES6g3pXUL/0EcfOf7pL40+8qjWi6z6CDUYTNPaSUHuhVGYjYNO19y87WXF7sB1nIOHSz3H2W+UIL4kBbVMxKl0LtViY82OxO144dWLz33vwve/09u4eAiTUZzW2tAaoRCmqgKm2n0A8otk4CvzfV5fcT52vZCaXIYCGGgwtw2+DZor3uWGJekwSlciJxmYrLfJnitIAZnlIIuZkmz7JxNmZgYRmFENMYSJVFuhfxkVVk6d+MzTRx55jCunVQYIfZGQHxNMzIypyHaKzHMc587GpZ7jfDDM9zrdY0qZ/TkpvgiUcD5TM4NNYVOO1ycvP//Gd7+1+cJPR5tXljAd2rTWCIucdVFLpjnda9d7G/uNW/XeA+8iVi+nWs+So7NlrdvnDpy1uEUK2gSVZpQYepsW1sJga+noysOPH3/8s/XJ+9BbMKkhPVgoq5f2rLYm42Ijnh9lVwkddGue4xxMXOo5zn6jBOrNCUFL7wlEzUgjoNYwjqkT7Kxt/eyHb3z/283rv602rxyt0YuTqpkKTJI1MLfWKrkAXYFRPMdtu63yZn7hOu/dU9yueyVyycAAjCZKAKlzMVCKH6aPlMQaAwFGspF6Wg8uTTBZPNK//8F7v/BVuecB9BdNepQ+RMykpF+Xkiqdity7Sjm6mnOcOxCXeo6z30gTdoQm751AFSLZCMRUkCW5+8zMgIg4YbOFtUsXf/Ifl3/yg+lrzy8328uIdRyLqjCm61yQo/FNYWKikrRIcj4CsxfpdVJ+KfOTrvbeho5VT1upR0hy7Ja3gQA1lShKgCpKDSakQsyM0SgljE6U0ohMw2C1ka3h4uj+h5Yf+tSRRx7D6IhWA4YA1MV6x+5dfK7zsks7x3Fc6jnOfqLjtbXWl1esMUYwN00o5c+SpjAgmk2tmQqmOP/qhZ/8x/kf/a/4xktHQxzppBcnARpMYdm2J5Bi5Eur6Np7ivGvLcY2Ew7OO3MNx/fMqjdf6zp5elN4nqbTbSINwzj0N1lf1GrhvgePPPLEyqOfxuFjiorVAAwAkXogl9yeNqGnrZbSsepdM0zAcZw7AZd6jrMfmZViUYhANTn4QKFp8caWFN1i1jHEidlEptvjN17e/OWPzv/gu3L53KJNRjatdFppE0jTRpK8owrUIAoK9gTw5zgv7BEHLhfmmNd2rSZHe6DawnVoS9kBJaLPkls+ZVpHMoZqgrAlvVWp+6fuO/b4Uwsffrg6dlqlz6pPqZK7FmYQwmCae66kpFvkED3OdUHOuNRznDsUl3qOs39oI6tMQTEqDSYpb1MwK6ibeqImq5wAEJoazUgoFDoRixivN+deW/3pD8795D/qK28NJ5sLaAZogjbBtDTORVZ4VDPQmDy4VJq0ybrWidVzoXBtSpWUXBGxlYA5OjLXVrG2KHJRfWaiwijVDsIawrh/eHr0xNlPf2Hhww+HY6dRL6gJQw9MBfNSvZZcUQWzmE4W576fI8dx5nCp5zj7h9bdlqrZlu648+7V4rsFUrC9mYFmmkw6ZgYzMNKUzRjTDVw69+YPvrv+m5/H86/UW1cO1zLQicSmUmXOBQWQTHtt9gYNlNR2NS+3bOLMg+wAM6teyX6ZZbfk1yiO8pyWAWXqS2tUmlKa0NtmtRqpC4dw9PTxT3z6yKNPYukw6gUNPUoNo1GE1KwhoUYSYqagtLX4SipGaXfhVj3HcQCXeo6z3+lEWxk6dZVbciyYkmLadkJTownNYknauHzu3E9+uPWbn45ffqG/s75cxb5OgkaxJlgu7NHWA8l1OgjAmIvApd8j9rp672wUOf3CiBDVQJMg0Fln49z2BCmtVpM5lRJBDdW29K6oNAuHB/c9uPzRR1YefATLx6w3QujDAimp+0WOrmRuaJaUOTQHVaaT1RbeLv5/KRs4q+Tn585x7kBc6jnO/qFbTA9vb9XrfCkZ5LS49drCaYbc8jRCG9OpoMHF16/8+mebz//84vP/2R9vHELT152exspUspFPcvm9bB1MLkiWdI2UIupNUme0Vj0FghKEJsNncdDmdBqFUoxqkIbVjoRt9tcQ4uLKykcfWXzw0eX7PoYjxxRC1Ay1ieT0XUvimgoAs9Ra7k7bwbzNl50h0/7qVj3HuRNxqec4tzdtCzUggoSJmYmIqpWSeVrcelM2E+rYrlzcfvOVzZ//6NwvftTfujyMW4MYB7DKoqhmtWgqKSxQgJTtaQBEBdRIkZmwmLXWQq4Hl8yPbdsPsHT6Qnm9S3bcagky6wl7zeC2zibNEiuArHtnXexAJsueQWgB0FStOqlsyzZXGiWGqoGMwZ3Q35BePHzi7k8+2bv/Y8MTZ7G0oqEH1iLBTHILs9LhTEvWRzLKeaE8x3HeEy71HOd2Z87FC84uajOjpCLKUDOhEqqqRENtsLEaL725/sLP3vjPH1SXLnDr8iCOF4mBgTqmqpCAlhgwBQgTEIQmgyHn7HtzlqVrbeW7fXtfkDuUpUwLtEmt6XUrFlvBCxY/q5aIR1EzBplSdlivKSehb8srPH7mxEOfWrj/o2HlJAaHTCpQIFUxyjLpyK4MJc0smfbSiQikmsk1rHr5S2kvOr/u56PtOM7NwqWe49zelIxOANiVgznTfDBQaAZTy3YipTbQCZptbK9PX/jFaz9/rnnr1fjWW9XO+mKFPrWOTdBk54sQE2Ny4MK0qBwSVmLR2qK9AOYabMyb7+atetkiOAsMbIuEzBcxea8dO3aZDLHLgpiyikt6LNvyJ4nkkGVbKiVbR8tBbcuZlFJ2Zla8qdKmxzaUGCoN9VbEhkFHR7Byon/6njOPPhHufgCDBVRDkwrsgaSIWQq+kzahdl6YzVJ2AHYboDmO47w9LvUc53Znty3H9ggRZFFQivjCslcXMGsQJ4wTNlv61usXXvjV5PWXNl/81fTyW4uIi2J9ayqLZjEoAhRmrVbLfllN7TtgRlBFVFVMhFmeaaoMmGyBipSyIPO5AprLxJVdeG/u3Wu2oN0j8nJiSy5bw/LG7mMJAAqEZM40zcXrBFDO95TLoZRiKfWZYhQlG1ZjqTaMW6wHx073775vcPbDKw98lEdPWm8E1gg1RcxCKXksBstp0NrJkGFJxJk5kN065zjOe8OlnuMcZPYEpZX4OSuZmzCYAtF0SoukYf3y5msvjl9/aeflFy/89tf19sYCm741/TjtWVOZiUXNvRoiKSkYkKqtdQypUnDy8xZNUiTSNax6OXkhJ6W0eiwtqizynXZ2LrwOpKQ9RZa8uSYdknExxdKBtJlSLqa8VIGGpsVWaSYUAMZoShGqAhQkZy1pIg2kYT2WaodhE1UzXF65/8Ojez48OvtA/8QZLB42E2MQ6akEmiT/t5QmGnk/81mxVPumk/6y1znres9xnHeFSz3HObC05r2u2utIH2UrZHLr1QhVMxWbYrqt65cma5fiyy+++Yv/3D73ymC83Z9u13HcQ+yJBIuiERZFTUiDphAzBcnk0FQaAQEtKcO8MhTLWK4HSBokJbESkjWdqVGAlN4gRi1S7yrO3F1WvfQltjVicupqLhzICJt5P1OuLJWEqWSNKbnt7+67Y1alpFlQ0hA0hIYYm01RTUI9rUfb1XDx9N0nHnxEztzbO3Jclo6gGqlUzNF4wVDaZOSayFClwJA1sxiUMCB4bRTHcW4ILvUc5yDTlXd7/jazE5XabFbSOxpAaQaLGG/q9jouX9h85YVzz/+iuXiu3lqPG6s9nS6gGdIqRKoCJgCTrzMlc2QDXkkbLU0j0AlCK9kOOeeAKJ3eCEAsW/jUTPg2ZiyFCkSzCjRBtid2YUkOTvY9S2VQ8hKzpbGY1/LRyb+UTGaIpo4UEJV6atyBbEKmoZbFw9Phkhw9fuqjDy/c8yEuH+FoGf0RGMxgrIWhFNlLbeiiMos7oRgiAEOAqVDUIHCzneM4NwyXeo5zYOmm4rZvMgXFtV1SSzybajYpITVaU6FEGGCRcQqdIk4QJ1i/vP3yC2+++DwunsPa+cmlC5xsD2iDID2iilHQVKrUSKZqwRTNljlj1lPMJUvagtDJ0Ji30wwU6QYfQgEpZUuSouu0GGu/zFz0DwKqqYgAUE17JMlmpjSqzXy7kmuZlOWieFOTCqXRFCGKRKmiVI1yO9qOUfvD3spdunS4On7y1AMf7Z0+i8PHITVCH1JpqMlUmhqEkFJcssWBXs4EWzUJKVvhAs9xnBuJSz3HObCoqogkrTMr21Gi3iyb2roGNnQ1IaBmJmJmhEbQLCptSjTQKa5cGp8/t/rmK/HSW7x8/sqbr+5cujQSG6IZwSprKjRUa9UMzSRZDQ2is7TbXLclFe7T7HQlg6XAQWQrlxYdRIXJnCDaHc52DRNm3jtpPddSQvHMUnETwigwUUqqTqikURrIJmTbwhar4fLRpZOnuXKXHD1x+OSp/l0nsXwUrEwqsEaokgnTjITkpnWg5bI12Y0u6ZiWqMWrVUKGm/Ucx7lRuNRznAPLnDGP1NwxVWHItVdSsZTiwUzKglkjUtXMVISdunKgqSFaVNIIBRXbm1i7tHnp3HT1sl08t3X+zdXXX44ba32LtTW1xgoaLNY2FYs9UGBQE6rBRKW04DWxEoeXyw+DEIMWzdOWPtlt1WvzYNEtg1ISOwRiVDMDRIiYAgJBS+qXyW1MA6ZkwyoyTClThggZUyZSy2hp6dTpQyfvxpHj9ZG7Fo4cxZFjGCzC0soDQ0UEpHRZSM55SVY7K91GNJ+FNjslGTDn3OtlT13fOY5zA3Gp5zgHn+IWTW1ZVYBO0ZNS+6TIqNwPN8u7ZBEMyeZVerAqIFCCERrNjGgIRWyws6GTzenWBtavYPXy2usvn3/jlebKaq8ZV812aKbSTKomCk0sVkIBKAjI5YaJBgYxg0UmT7OZWMlEZSv10CbLZsFHVRgt5IQH0GBWvMDGlHchCBKpQFBjNDOwMVMwmqhI7PUbqad1r6mG9aEjx8+cXTx2wo4f59JK3RvJaAmDEaQ2BJMASpKMJUmWuQBN9lO3BtJ02PJpMFgW27xWlw7HcZwbjEs9xzmwzDJwsbckb/djOeatlDwxMFV4m/MhZrlCEFFNLAWgZTeswjT/3SIEiA2aCcZb1oyxs2mrl8erF7avXL547o3p+lo13g7TiU22dDJGnDTjncpQMdZqgVaZ1Uy9eLUSEUCMSjVosFkGMYrZkjn/16CSxSnEiAhp1EBOzBrAGCbGKRkBhl7oD6XqSW/Y1P2m168Wlo+ePl0vLi8cOyGHVmy0yGqAuo+6Quglm2PqOwcKOdOfpTRgbmI2M+QZk4JOtfuygVJmCdHdE5SPMOf+6jiOc0Nwqec4B5f5xAt0r/WrR4LlT2hKBdXcmysF/Ikki5sK1BBShmrq1cWcapF6cqjBACMiVGERplCFNdAGFNgUV9awsbqzdml7fW28tbmxerma7nBnm9MxxmNMJ5PtTWgTYJvra1AVIxBJC0AoayrqNRkboxGANIbIkNyg9XBU9ftTw3Bh0araql4YjmLVj4N+PRwtLh8dLi0OjxzDaAnLh1ANQAMDWEMEDAaBhFQ8D4RpkOR1VhVKMRcWHTw7krOSgfll6xffc8DbYMr54+wFVhzHuZG41HOcg09RHfn/Nq4tZwF0CvfOcjRklqNRrE25JxdNQZYgNMm2wJRPkAv0pSopqXacGCJNDZri1UAgRqAhAG1gCgHG29jZxnRbt8c6nWxvrsGUsPW1VVUVCKHY3pLxmJYsiJLj83KgngLBQqWjkUllJCDD0bDuDxrjwtJSCDWqnowW0OthOAQCzCDBEIwCEbIykMLkk2VK9oW0ecJzZQGL7Y2kqSVbXToYzJX68o7O1J11fp8tzK16juPcdFzqOc7BZa9Vr33dlSGdAiCl+pzs7hiWF2i5EElOaihBgJ3UXUNSibusiJqzEFDi2JhMfQbCVAEDjbldG1MNOqiiCmXzFJMxJuNS+a+kYrT7RoFU6PURwkyW5ZRegxogitaRTRohIS9CQqqh3DYUsdwTDYAld23Wc4DMCv110kRacYc9qg6d4+8qznGcW45LPcc5uLxLqTf3aUUpgNLSWvVMSxHk1p7GvVWaizbKEWtKE8uyC8wdLHJIYMqkzcXxDGAs30sJtFrKp5BUM7Ddgrzxxc6ItrBJ2jZJUi51ujUQqmSbQtG2iSNTww7hfGBiW2IvSdu2HkonEWQWJri7ecd7OD9u1XMc5+bjUs9x7njeg/1pr3i86ues7Ss7Z/TataTZf+wITRYxNasDYyCTXfDaC2xtfa2zNRsI81eusqG5odqcP/tqftbubqGzRVc9JHibo+c4jvMB4FLPcQ4u7y0tY+7TexrmlpK/e767t/faXOPd3DnWdm1JtxpJ6qDRrSV8Nf/y3K9ZdM1tdN6Msj0gQKGqkiU19lqHYbbkOQeuXU3buSfWcZzbC5d6juPsB+ZkWDf+r1ssGbt1V5eZPms1H4Ck89wx6jjOHYtn9TuOsx9g+cnWCVvkWicBds8nu19p7XBmliqYtILPn2kdx7ljcannOM6+oy1l0r5ofyZijKm3b/qZ6Oo8kiGEVKxu13cdx3HuKFzqOY6zv9gV/LfLIZvYpQIxHyDY9tLohhve4r1wHMfZJ3isnuM4+45doXXXirTbmxGy60/d0D1Xe47j3Jm41HMcZ3/xNnkV77UQnSs8x3Gc6oPeAMdxnDn2emxbSbfLafs2Vr1dX7wFm+04jrM/cannOM7+YldORvfNXXRFYcrAUNWUh/H2X3Qcx7lzcKnnOM7+Ym++7d5f937yqt9yHMdxPFbPcZz9xdu333Acx3HeEy71HMe5XXmvWRqO4zh3IC71HMdxHMdxDixeQtlxHMdxHOfA4lLPcRzHcRznwOJSz3Ecx3Ec58DiUs9xHMdxHOfA4lLPcRzHcRznwOJSz3Ecx3Ec58DiUs9xHMdxHOfA4lLPcRzHcRznwOJSz3Ecx3Ec58DiUs9xHMdxHOfA4lLPcRzHcRznwOJSz3Ecx3Ec58DiUs9xHMdxHOfA4lLPcRzHcRznwOJSz3Ecx3Ec58DiUs9xHMdxHOfA4lLPcRzHcRznwOJSz3Ecx3Ec58DiUs9xHMdxHOfA4lLPcRzHcRznwOJSz3Ecx3Ec58DiUs9xHMdxHOfA4lLPcRzHcRznwOJSz3Ecx3Ec58DiUs9xHMdxHOfA4lLPcRzHcRznwOJSz3Ecx3Ec58DiUs9xHMdxHOfA4lLPcRzHcRznwOJSz3Ecx3Ec58DiUs9xHMe5zTCz9LN98UFvkePsX+hXiOM4juM4zkHFrXqO4zjObYZb9Rzn3eNS7zbDb3DOPmfXEHWca+F3M8e5NbgD1zngmBk5G+fpNckPdqtabvHm7VrdLVhpWle70v12/J3bhb1D94MdS29zKXVf+4B39gMu9W4zuvcXv4k4+5BdQ7T75ge6Xc7+4kY9b9yxcurWP7Y5ty/uwL0NMFj6aZh5OmYuD0P+hz0/d71/reV3lplWYentm7M778j8Pl7Ds1P2Kx2B9sPtV9p9bv+gqvvQYbRr89p9ePuvYO9ezA6D7fpM981dq+sekxu2O3Pkd9IMdJMO+57xXo7I3gug+9HO2+9npW87lnYd/70fuF7y9qfLv/3vqut6h31+j3eL976N7ZLnj1jX6LXnYO7dotnFoardcZtkza0XN7tOcdoq7LnVlJ/v/+he6wS1O97FXOc5V6P6oDfAeWcItj+NZigXs4EgCAOYbigkLL9rtPSVtIi3W/6ueyXL2zdlb94ZksDcDesqNy/mn92Dg85GpztenlQAaxdiZYH2AUwPezEzIdUMZVPVTABc+67dPV/tZ/Lpzrt4dTsHSVNlWZ3Ne1ev82ikJXQXZWYkVGeau/vJ61nXLvJYKOO/vQzyCbd0fYBsdcH8N9/fSuevmr2HuvvmjZ+A8z7P/ku73V1XeZFet5dDvrhs/mBwz7Jv2DbOfqftOSa7RmBnw3ZvkZmSYqbtQPoAlc0uVd3uSFfck9w9Fsu+vCeucoLMsMuex9mdzdWesxd34N4GGIygIRvwSKopAArNTCDpMZjlplKkX/l+VjrXXnq7/NmH22V9AMzPAdlEs/sWVvaxu/GdjZ7b57xA5Bkvj3nmg3kD5c7746qnq7Op+WSkveE15kgYrD2HHXvJ7pXxKqPh7QfIe9uX3WukwcxUQIqoqoi0VokbtdrZAbSk+udEX+fo5gehNFjANHbe70rnxtLc5bLrHGFudN2gI10e7/J/LL/tCovErifBq2zAe7pbvJ9tbJc8L1C6khSAiJhpslJZOk15e9J5uuqm2dzJvWEb/i72Cu9ybTfg6F5rEekAqmq7yM6DBz6AI+PsY9yqdxswmzaogqo11+X/1cxISW6cLH+yOGiF3/yVbh2JkwVTubtauSt80LeH1jtjZDDTdpvzzzy5tZtbJB80hSV051pr7XtZeoDJ7JkF4tUNM7dyV9ONO21xuzFd6bl307rOr/RCGQnSxGhld/N0YIAwaLbqUNrDVLj+PZ+dmjJ/i4haMUJb94xkC1NRHte/6jzg8xAoDlxSASYj6W65Bcweiq4btpbDIvj2yvH2szdgfehIvbTPVLM0iAQAzChiZmw3Dsb0YIjZJuUzhZt14V91yYm5ay2NhtkhNICEwhQUMxARpJlw7kZmezb2lly/HdNpcRqUZ6xdH5wbcOmCe7dHd+72VRY1u3LmBX2r6LIsvooF0XXenY5b9W4Dula9fIUbKDTNvlo1K74bmBkFAlGopNl873zKrr8n66TkbrNi7CoGkluyf+XBPU1J7eaamQj3WPWyqcK6xhmWL+YlUU2TY9TMKCKAmlGExbphahQCUNVbHuZirYVp5mGeaTeAc3NhfjvN6UBXMZkZYAQVlv5CE4USTEdPFaTNphi7ikXnevZ9NidZNjPnUdpa2NQoNFUAIqJqIumPMrNVXh/t5VGMeREQkoAS1PwHCqGAlBFyfVa9OZ1xVbHeQtJMSQByXYbEq6y/XDs0VaTTnSb72ePLzJZm7Q1fZhbWm2TVm7+o88ibs6zPhpwZKKqRTBsGkSJi83nS9HJ+tpo9+gEGyK206lkblkAjmX7tHtWyX0ibzXxTLUf3vRzlq5wgm90l81HI1uxdGVEK4NYdGWcf41a924H2lmmtwkn+GIPBJPlosnIrWshoMGrHwTcz5idlmO+25Sk1q7u8olmMyU3bp/b+lQJzssuhuN/Kbd1opvkrcy7L7LLo3N2M+a4KQNtgqZnpgrNYIUuSpPXzXZ/cee+0p6rr9EPrcst6W5ismcn1VYyw+awR2dKp5Vkg7VOK0mSeY5gsWzQzKNP3YAoRM82mYpYR8a4moN0TT9YSZRQVFU4h1LINyfIjhJklKzRAWOwogFYA7TLVvLtfs1xWmlC03S7VtFsCKJjEpQIKFvvK+z/dcy7y9mikXROYkmXC113S98ZMumkZ+ayxY1FVgMnAJxC18lBRvlPOFGbXxZ6TfqO2b3ZRA+0R005MG7Lf1tKAIdSKJc8As2QJS4opP+N0VpEuWyuCBu9i8N4I2icxRZGi7U10l4rNvhW2oYdzx+Paa+go2lbM5i+Vkzmn89pnrdlNLJ15K+OuE9jj3JG4VW//Y6YGSTO7gYQqOIvELhd+V5p1p2Ne41ei3EdQDIft+7s8cTdZALUGADVIa7OiJc2CZJlLRiASgvTYL8Vpku5iWm5jcSZn02N0mvgghBmUEGtDEUGwtertip6+qbRWvZSDwTJvob0ky1HoGGRmbqK0szqT7ACRxTooOXCLJEhLZt900mc+23b5uL77/5zUpiQxV0abAe1OtCtNjx/tpL9LZL8vqQd03m8tGbMA/3Su8yeS95rv36qX7d959OV9mClnINtvOu7G9NlkZpYbMsZmVj20B9gASYreFCU0Dlnfdx4puhuw59B3X1zn9pWLOg28bNVjWa2VdztBhNqKFMLSIwmUZskAn7KVWB5M0lra030rrXrpiVKLZTrmAJqO1kN+yCQg6ekn/V/CR95uY9tJuV1kFsRmOTEFoICqswQ9IygwAJauQjKgVaOu8u54XOrtN+aNJjkiLWk9g0WzBqaEIseytAIvmTdmaXhzqu8qK2Fy2poQKeMzVMaQX+/xHgK7puQbtZ/ZIGNAK/VmOmFuVckkp4CZsmStRiEVERqzdrPINIurgSGblYxkAEGKZSUkRSOi1QCzbbtq3sON2NvZrmR3c9KZKSAdTI6rq37ZGiBCzVQRIOnsA2VHWkNsmigk61gGILnxxSDJzGMGXiB5TAAAIABJREFUkZmI50yh4N3In1270kqeNiSPiBobocFiVt5529KmtkH2dhMnoBSylrz/UpGVQZBynZPAuM7TmgxOVJiZRrNY9heGFFVWQQSQLAIkSeqbYie37NvXYkZqTKdMhu10ahkoNUyyzqV0nvE6gxFXvRre50aVYaIA84NW+0A6e9JIg1BgCouIjUnMgsXKcwtrMADIkYezXN0cywsA7RV9KwRNfk4rciyCitiOAQNEQUogBQgmQjVQ8oFuH7TfdmOTI9jMtEQ+ZDexIB0r0waIUk6xqknoAQFMBkem51hakdeu9+5sXOrte8odEhot7tAmWF+dXjovpukBj4JUgoU0o1KZniDTTRxSBF9y9SqA7PNVtWq4hIVFDBchAVKp1azqIobYxrbNm/duzA1DAYEpiOxg213jMcfStXpGi2EOMChoULXY0CIYqRE6xcY6JjtxvA1tYIZQhcECBkOMFsEABoNAaoSQ74lmRil6erbqm+7M7RzCroloNtciObJgpslsYDqlNoQiNtjZ0NXLNtmejHcmWzsUJFMIpRqOFqWqw8IIgyEWliB9IJgQUkMCEJKxRyhqSAa27CZOZhPmw/w2aDlfxZKQrKwl3BONTXeoE738hm6sJWlO0tLgMyYLGPK7JakgaXu28VxIJt0czlicxHkL5k/WDLazcLaymYRq5SiWDpsMKQNAyuG9Tjtma0dW6BRxzOlOvPiW7mwwsFo6guUVYw/SQ9UDJblw0Srp93sRdZ9AMPcMlhIYFGYWp4wT6BZWL04310GpDx/F0hGTAaRPhOLny27+ZGWcXWQ3s9TqzOaF4vAsli7oBM2ENsX2uq1faibjqj/g4iH0F7UasOqBtRlI6bgstViRI2dJGze/Umy+sRYRa43FMeMEO2vx8nmdNhJ6YeUYRodUegw1KdYmZLRj2IC2NtLVDtSuF0B6ZKAgwhqbTqg72LjUrF2xGKvhAleOojcy9FD1QTEVg1JENMfKIkeq3txj4+xbPFZvv9E+DWenHGhUMYvQKXfWrvzs+28+97/C+uXKGkINudhK61cQQoyx+D+7/tvsOkkP80YlpT/SwbBZWF48duyuex+QE/dgsITQg/TAiqxyXMi8feuGyKBk2GkrQbSJwjMHbtcflhwmSRlqQ53Cpog7bKZYvTx+67Xzr7y4c+VytbXJONGdbTEFolGkt6C9QTNaXDp618qpM/XJ01g8jN4Q0jPWJjVySoeUEK68vzfHqmddLZNOSStjLDuhLXuvCdNIbRDH0Al3NnD+jbdeemHz/DluXMHGFZlO4nTc7OwkZZa0Xm84sqrmYKj9oS4ujw4fW7nrVP/03Th0FKEPqSE9C5Uh5Lt+mvUBYfb1zCc5XuvEJcNE+wBQRghM41jG669/95+u/Py5/nQrxIaSR7IkjzUhaaIs/rxsXEInY8RghBjEEFv917641gZ2xrnBlBKr3s5w+ewXv7r8sU9pFEoPDNmA+v5PK3PpQ6pZI3EcL77+2rf/aeuV5+tmQgGGi9WJM3c/8QW56x7FolS1Jc8au5ma72c4teGnZX/bqCwhDRotbnO6PXnpl6899z27dMF2NowhLhw+89jnFh96TPvLqAZAsBItl6MWWvdpxz1w46x66RemcLG2mEpSmTQlTeNU4hYuvfH6D7+7/eqLYWcj7oyl34/Dhfro6Xs++zs8fsaqEaWXovfmL0wkZ/2tCr1AtoEaSLUkUjcuvvXc9648/xPZWJWoFuq4sHT0o4+ufOLTWFixasDQg7I4sQFc5fBeVcczOSJSdESKx9XIZmwXX33pu99q3npJNjdM1QbDuLxy9vHPjz70sIqI9NDe+vOB4VVX6tw5uNTbb3QdH1KmQDMFbXLph9958R/+r4Xt1V4cVxYFMdkM2ng7UGmkoSK7gbhdp0FrNFEyUiaGqYQrg4WNhaWdhSOnP/7JIx99mMfOYLCsVY9W5XoHszyJG2PuSo/1xeSoBJJRqZ1t0qyYEyuRDDUNLTJOsLNul89tvfT867/8aXPhrWpnPW6vczwmTSz2YGJGxEiJFhQSIVf6o42Fpclw2Dt68tTHPzm890NcPobBokltrMtk1MZT736wvl61lzIVLCfOZtcfZ5F2ZT8JmpiqNrSGzRg76825V8///Eerv/11vXklbqzJzlawaR9aWayAkGO287KnaxbJKYJCppS1erA5XGoWFrh89NSHH166/yM4clwWDqEeAoESYAYBkaK7ZCY83+HEdWaNZFMygqY2JePFX/7wjX/7+6X1C31MRLU1apXhVyYtKk3mI7i6ByyP2KqYUZRZ/72Nj3k2zs1UwlSqdat/O9558PBK7+QDhlpopteXAptGgppRiajr51/9l7+5/P1/PWQ7fZtGcGrceOFnP/7VTx/82h8OP/YpHf5v9t60WZLjuhK853pEZObLt9Srqld7YSlshYUgBJKQSI1ELd2tNknTNtbW1tPf52dN94eZsbFudbc11TbitCRS4ojgBgLEVtgKte/L27dcIsLvmQ/uHpmvUGAtKBQAMq/BHrLyvcxw9/BwP/fcc6/PqevERJDxbI37ufIO1T8Qwv8iQoqxHmh/de2tn5378d+1NhfbVVWAhPSk+PjSuSd8Pfv1bzPLIQhtCCkiiBgsQT15MFAvfSXSPyU4osEt0BR0FpD08IP6yun3/+Y/u6tni8FGActEKFpSesX0O+dOPv+X/y57/FkWOUQbaiytRpLQ4+dFw49Aa/BMgkNNowp9hXqw/sGvzvzge/ODtZZVGcQLaurVC6eWzn385J/9a+w+RHVxMZYdVVlu0cmMv7MzlhKWQxUxscqv3Xzv//mr6ux7s9Vmy2onOlTdRuujyxee/PN/M/Pid0iKBu58J3M4gXq/xTaBel82a3ZSJ5KCeQKosd9f++iduf7KAspcSg3id3qKB6B0JhbSDiAweBCgEkZQzXFsc6V6EYBKgalSqrrfLwcrraUry9fOXnv9xwe//sr0cy8X+4+ymJasDZeBZCrd8kBX1bCK6tg/ZTw+h8TksB4qS+ltDK9f6J96/8qJ17ONlXbZm66rHD5XZGCgxkJhMaEJnMEoMBE/HNbDtUpkeP3CxVMn6l27j770e+2nnmvtO8r2DKWAy1OiX8qChYyjns9E8iFmgsBBjGIpaNwI0i243xSj+VJtwM3l4aWzi++8vn76w065NV1ut1jnigyWiYlZ0Foi5Zs2lKEHRJxBCdTV0Jcb5boMr2aLFz48n3XnHn9y30u/23n0acztpWsDech1IUWgO4NMt7cxusYiOqcJHMOY97bWP3x3enP5oCu1HrqQhCEmIrHgHwK/IaGCBkTHfmuMeSSR6ARh4bZKnMkwhzSTQZiO5jmEIk6EBEE18zWqTuEuXjozPPtxa+8Rtto016Qo3OccBmkqSnpTq7YufLz41k8fxWCKA7WKAjod0tZunj/z/b96EtZ+7luWq7pWvPejFITPGkuLnDcF8FYOtNrY+tVPLv7ge3uGGzNS5TBnZuCss5X+8ulXf/DSk89oZ4YiSh/km5LudaBkR67hZ364P0ldjb0DwlKKvJkvdbB+7sd/7y6e3G+9jlZqHiKkzjsd2OaNqyc//tH3nz90mK4F15IgywsYES76SWlIPg84M2p5hJgpCYYEjVvrN997a77cOoA659BRBFpDtwbLK++/fqPdPvjn/8bUIe8Incinuhm3j86nNHyhBpCvVlU3Lg4unDrI4ZxUOUuF1nQzGa4vX9n4+L3ZZ19m0W4CvyNB7IMhayf2VbUJ1PuyWbOwBJ+MYoQKTKweYnt9msO8HmTmdVRaiaCQ5oSxhjAh9EKkMhOBMAqUiheRxCCpCM3HAOoUYJINynqwOrjxT9+/+s4bB7/x7T2/8x3Ze8QshyuaOIyEr/hsy0bqXlRPpa+LLwETatDkQWhVX23gr59ffvMXN959Pd9Y2o267ctCfM5ajAj/7czmI2vGOhSIUE1d6etyUPYXt6784Gr9y1cPfvPbe154RfcdNbY0awWEHQthcXQMyTi8ux+IkOqZkIm8S9J4SiOcJq2Suq9lf3Dho5u/enXto3emy94+8S0rCyszMVYWEiqQUvwoKctBKEYRgQnEBx6lAAgRUa9V2Su7urn1wcqp0x/ufuFbC9/+bnHoSeZdBBUUU7jnHm5rnKtJfUZAuLooK4sdVnk91LpyceCSGCxOQgufE8qoEgrTCwllLExCbjKMErnOkEcEoQaNmYD0YMSLgTUVIWESiRT4atCFGywvzVRDtEZDhbvwWMZjkGmKBq0djQTJ4aC+fLHry47v536opAjNRFFnWb6yfv3jv/3rZ6Z35Y+9QM0AlVjS5j4fnIb4Se4BARUY6xK+3//orTP/8Dd7h+u7bJD7KoWLTY2zTpfWl21r3e2x8EBEnk1SYFlGj9/Y/+7fdoRvx55qkeRJpTI1YGlL1wbnT+3hsOsHua9DaIIQGhS6N+ssLV3yl87qk7PUfNTG8So/94vb760v6VWcEiSEVg900GuxblWD3EqIQKDADJw6W373tfaBw/Pf+WdmucYEuB1akdFVPkHZktQgxA4aRBho9N7Vwy7rTj0o6n5mplBIJfTT6LhyQF8hUPWplWlgbk+fT+y3xCZQ78tmzcKS4hMB9FAAg9XOvDPTHQHQQH3Z6A1Q6NILjQGwtGWNUJ8YEDT4UbFlUk95K1h1tNxeK6/+8NrW5fN7/6d/2X38eTPTvC1wKV0grn4YUQH33s8Ef5qdYMy1hYT0OtZW9XWwtvzOa2tv/GR44eQ+tSmWmdUqpmJBY4ao8LYofgtZawiYlkigTaxqwwrxUyazWba1Xt744fc2Tp9c+N0/mn32ZSu62uqG4SQ1lTVIDW4k8KMSJXfd8zj4iIGrtKY3XyigWMm6p1vLN19/dfX1H2Pp8tGcuS8z8y7mGoc7pxEhMbr9kJ20jIzSEimmFKFXQwZrs5risJT66us/2t7aeOpf/TvMH2WugkySLPKOSaLj9Ex6qSO8nhV5lvvxngcYF1rJ5qNjtSJlRzpGuPESapKEhJFIATLw0BCRmNFK0En0dRQhyE8RqgQUFBg8JhEDw70N2Ul3VnfdQk2lLlssmwHAm1RlId7RNHgHMCeA1Vrb7lyrpSs3fv6jRxYO22xL1AlcgPSfPsK3g5fN73YG9RhzQ2qxisvXrr76g7n+8qyVua9czK4nRJ2Y0hewseyfkJ4cIAd2XPM2l703G2en2CC8JvloRD9DxIvUoF+/eLpTbrZ9qTSIhRsWnLNM2DJfbK0vnf1o3xPPihXi2hLuvOiIBtvBkD9gODNakSmAKBjKJMfjyMUAE3oEl8csLb7s0vV669de/8nsk8ex/xihsfspvSyGV0MPRkU/R6/HD7YWQIwAaQRNw2GDABlLvahSxBO39P+T1OrEfhttAvW+bIYdP+M2CcAibxHFIiagiphBQ4p/wDOC0WYZIFDcoGJ0M3jwPl3AQKVohH9UCqRWgzPL1NpZe/nkm2du3njsT//V7IuvGKBZK5ITYw5ic/SqfIIAu0M/08I26nAjtTYReLJm1dfNpcWf/uDKz/9h13DzSFZnVT8zUwmV9yIlSREYKRqyVAwIErRQVRdGptoTQu9gzoDK5uDbRWv1wvvnb147vHxzz+/9EeEk6wAQ6Hhl1FAHXySwcY3i6q6XzlTMvlnKzZpT25XwarXVfd1YvPT3f73+zmvz9dasq/KyVPMaaD+NerWYqxK1mDFLVUJ6ddwzIpAXBOo3FXCBd0L1lhH7C3f59PvX3nzt8J8cMCvUuRH4uNO9G/NFmNBlPKDBTHR2vpqd74tWmmfOi0mUZEXBgEgKOccZMArXStzWLGSlpIqDKTknVJBJ6s6YJZwoi3ivVGIcFyBFjeo126Ye3LOAomNAQ17ezU27PauHkKUcnAivMJCJmzVQQIRNN6+Hux0WT7+3efrEzMvzER/QIR5RIbebP7eDlwk/jQf4yFhqhL5SG1x/82f1lXN7WBW+BE0CcY/AkxIwCqQoAKSU8yDNlNFoPCBIMKIex/sTCe2YdB9ztwHzhrpcOnvK9Tc74tWoQZIAqJFKFeQi2bC3dfXS/kHPulMqJuJ20OQ7CxY+cDjTdCRpBGMANywRNEF0JS1o5ESEYkrLfLkrzwY3Ly2/8/q+PzlgyDTLAim8g9VLS3QcqdGTKPFORaFeaEGcCClEYBqbFLhmApbcpmC81zPZJvYbaROo9+U07nwyEZcaxudbQ2lhEQBexMPVUC/qNercx9P6m7RFEYIaNVAQiOQQx9r5Whi2MYoISCcUXznzed5ZW7l89vt/9YTT6RdeoYjEKOc4uBsF/RrH9K4WlR10QuRkIh4LxVerbd1cXvzx31776d8fksG0lFlZqliEspQICiAGZ5kzQU2ahc0WIqZOHNQp1WqlF3oXnWjNSBWv5XaWtzqDlcs/+j683/2df27dBWl1AotHYTw8aqzQ7Bh3cA9L53iARsbdd5iYt6qH7aULf//X22++elAGHRtkvlZJlUrEQK1FKCouM81Ko6fUgbwKmzqgIlBxwgzixGBexRoeLMWGmFndtrIwDBdvsuxLPkXG7xGRO0Z5xqBecicC5hAAjq2p+eMvbJx9/+bGzW6GzNdqiBuxJK1eBE07+D1QVHwulqk4sRQnDd+uFFSilTivmpjAyBMiPh3WRGUj8KNWqqvMsXC4OPwYsxaiHjKhgjvdvU8J4MZyegIvCIgrZTcYEeoYUSDixE9Z1eqtL73586kjx3Tfo4SDaFIm6O2otNuzemNkHoLLEd+kh1X1lbO9k293616blaOFu9JQzxYaGdn3tBiggbwPeO+PqJQcje7I/WOAn/EPWIt5Wb6O5cWWeUfvhIxLUEjeERJK34bvLd8YXr1UPL0nJOEC0bNJU2g0WA8cztyCviWSqRqrGZJMLniYHyJxfXK0wsqu6cbJd3c991L+yHOhvNFYGcMRqxcJ+pHIrhGjcHTLRjh/BObYkIORwx6fVpKo1c9pbCb2lbEJ1Pty2vhjyfF3A20gCCfc0gAv2dBlw/Z0lXUqzYwaHvsgAQOj8CURDxrlXaBVJXubbeq0urYQVioYinMBzEJooOrPO7Pe8uUf/vWTs/PZo8/S5YiiE8TIqIyxeqly2L3RJowi9bBBkIR48aUONld+/o/Xf/qDgzLs1oPMV044Ok5U4Sl0+UCynsmAmWUFWh3NclJEHCD0pQ16Wg276rpqzpfhlFDQBxIIZiiHMxnV4fKP/xZ5a/47/5yZE9cilKFSP0JB08SE4h685FvU1nGgwtKtIafB0wYy3Ljx6g+33vrZfimn6kHmK5WAn8KZGJmJmGalZtuefSus1UG7w9YUxTWnuop5Vw7hS9/fdNVwSl0XKMzAWug1XZcwITNBFs8uC9xcHciSuw/gjqinhJvgMjKbf+brmzevLp94oyx7Ob1as9eHzMsRUkm4LNJwbSnzwVZ7uF34ygVumiKqBh0iG7amqqJbIvdwY5gujG+T58GQ/AEBgUqyXmf2se/+WfvAY6GCtEgis+TOu97tGLamyHQcgAgfJWATjYexCIRUo7GeL+zSqfd6pz+Ymd9HbdEJ4uHLKYS34/vHHwnXTLCdodvmIyZWsbe+8u7r1dVzC2pa1Q1wgKA5FSREAiSCjAZq3Kf04m6MYz8lop/g4TAuSACNYLV+/jTXl9tKqb1I0gGE8QiMnfnp3G+sLC5fOH3wqRfjGcriISSViTBkjNZ/jgHcUbMwIrPD9A/MLthoDDWkFDlfzxV26fKZjY/e2bP/qLQcMydEXENSmSWhAKEOEUzjFUO9Q+woDR1xW3L9AUHUKKd3ogc0MsQMv/h6Yr+lNoF6X067xbmPm07yHTFSwotU0C3tHPrWd3HkCY82VRs9XrPwNbvHGOFmvbXV5Svn/erS6s1rtrE0X+QtX+WsnQRZjwV6D7XtLlgvX7n20x8+snBAXA50ovgveOmJqUpKlp3x3V9jCVikSiMhCBgYOy9Vb+ujty/9/B8PsD/t+461wiS60mKKSl3lOusVq85svv+Azu5tz+/t7lmYnplLin4Z9rfWFq8PF6/3V66v3bg847IZ57O6dATEqwQxk5dqOEOa48Wf/qCz/0Dr+DdEs0SoSMKfgbJs8jzkrrqY2Lvmn0iKOiFFSTNltXX6/Ztv/HifDbp+kPnShcIvIgRM4DUrXbHhMcyn84P73d6DMwcOzy0cKHbvlawYMTR1JRsb22tLy9cu1esrvbXltRvXWjaYyYs2a+cHTowhT0fVWyadLlptI3X8dt2jgi0YExDSrLCp+Uf++C+PPPdSub7i6EPMtSEvECLtCfdFfgeiZk76W2+/NvzgzcJMhCIeCiNNdZtu+onn9774Ta9TdEU8jyoQ2KTE2hIMFcNDrouJiGb5wkHZfZDFFFzOkH7CVMf4TnP0dlBvvCsyYqQZdQehCks4tA9gJlbU5W7VG++8Nv3089jbNc0EGnJQkE6waqj3HVXXmO7F+MaduD8ozXu1qrx2fvHdN/apz+qhisUyyDvyddJtDVrP8V59Dlv/LRPezFTUYmwx4RMGJs6j6m9evsDttZYSie8ORHHMVQaVVtBcuSVLN9DfRKcQZAnZjQD359en0dc2y3ATiB6tzdA4uUI6OUWEoKPk9XA+c0tv/mL+iefcY8+b5tqsACNuddSHsV6MR9bHfYC4LzQ5HCMkSI4+vaP5n3w9sd8um0C9L6d9gu8SkSC1jsukCrwQQq1d1nOFP3zMPfMNLWYAl8j/cZjX7E8pzCU2Sz9LL6s3Ny6c2fjw7Zsfn5i2rbnMFfXQMVTQEECcMK8H85leO/nO2jtP7fr2P6PmyFphZ4qqQIlhNBupVe6wrqSiXnGxM6OkNAWArEpdX7zyk3/cNdyYttL5UlM1OlGhuFLdprY3MNV57tk9z7646+jjmD8gna7ACSFw4dumxKbEpL9ZXr+0eur93vtv9W5enM9cqx5kZoLAfsIJ4asZGZbbq9d/+qPHjhwz10bmYol6SYQElVRAG9HdnW/kGKuHuAHHe6mipMBqW1tae+e19ubStCszq5xAaABMWBF13tpCsY727DPPTx3/2vwjx9zeQ9KeEjgilG/QNGcoxq6VXXoZbJc3r65eOOsvn188837WW9uVudxqFU/N1s1hfmHP8RfMFapKIjQn3pm7m5rj7wFqZkEhJ67NdoajM+1HKGZJhj/6a5fEd3FzYzjsztNvVZculfoeUVJqxPmqpnnfu2J+P596Saf2QrOA6IQSzwYUJ/SijaTJRNQJBEpx4VgwUiOvHRUOY5jvLnp6G7pobAJE+ZRRCWo44C+ASsutnIauXjzTP/NhZ3YBmsEVMYYc+PNADcbvbzb6HWmxKUCX/irQWFJze3X9xOvFxuIUy9zi6c87kxV23KWHsNnvuDQi5ZXaH0PQgIh4wPzKDbt5dYqV+jryUTH3qAGMpuLM11OaV1culdcu5U/MkYUgquOQkpzCeY7yufYwTojmLiTtgAhEDGJI5KuIiIAmqs581+rNlavLJ361cOARuDadIla+j4tobPmOf4mM4rvN1MOY5x88zpR1FH59m8k8RkdOAri/xTaBel9Ou62DCokJ/il3FaTAFLVmkrWQtSzvCLIxqCdjR0Na3B1FYrxJjPSyMDW79/DsU89vnTpx9dUfDm5c2JNLpx5mJmBQ+JqjtHw1h+0bb/187unnZKFFzQPCCJEhIiRDCMYiKb/eGjYvtBaR0rOgNIdUi+++IYuXZmyY+SqTkIspAnjRyuXr2tqc3X/49/90+oVvYO8BsjDNESXno0oDQop4Zu1ies/+R5+qnn5+7c1f3Hj7F7shMzWcVbGPoIZdWXTpytnVD97e9Xt7hR4aiT+MCexkhA/uLYCLJumEkXiimtb98vyptY9PHMokqyqJSb8QSi1a5+2bUnDh6OHf+9OZp16UvQfpcpMMovEg2yi0Zwp3CdkSM85MF9ML+594UdZuzJ0/vXXq/asn33G9zZaYh9tA69BL3+keO27IEGDxqADXHTp1m6nZiLGaIj6AOEdSnI2QDBGRWdIhRV468MNWqtQVilrUwvkSISynQmiljsiQtS2fEleMcjklfUngeBp2OfaDoBN1TIJ2ac6QSXVT7r6nd5rSMfMptomUSEFbzmqOg6u/fPXJp16wvB3aIyEDgTE5OUyOBO9CxDPyNbTw3WCTEgAjPeohr11YOvHmArzWNVIicjPbAud+a38+Z8No8CNKaZaEAFUjbW+m4Oa1y73rlw6quNoDTDXk4vIU3VqaElOql25cnL1+ef7x4wKD0pIaMGb7YjR2n1dHx/m9xl1JDG8UnMZ0+jgQIBVW+MHuLLvx3hsLv/MtmZolVSQLWeRJlCiSqN1PFEf5tN7cZS8nrN7ERCZQ7ytlFBiCKkRiYRFqyLkCxYnLRB2QhaTOEFJI4C6sIaQgKEWaF2Ke9Jwvpl+aO7Zw8PLf//fVM+86J+DAJZJAKWp118re8tXlk+/t2XeErBRF3KYb/VIsOnZXGY5NgTJJNIXEzdiTpa7fXPvo3fZgqyOV0otISBr0girLVtDa3nXg2J//29Yzv2PhJDfJFC4lH4cd3VKcKIs0CLP82NcW9hyc2r330j/9D9jaLCW3CvFkVCqtgzrvr69++M788y/bbEvgUrit0SMSDbK5i6VzPJ4VPxV5TDExWM3BxurHJ7rDrYIDZ5a8e3qicvkyWu7o00f+7F9njxxn0aUU0DwxokrxIkBUnxlCaVlx4gJlQFqFXQe7X9vbfeLZXb/7B8MLp869d8JEH33u63tf/rZlU3CtWKPiE0zdXdzBgGkkcR0xUTiiFMmarTHiXUuSqoBtRscrW/wyHRIQaOS6GPGKiZGgc6IZNBfkERYhiFZDqC/E+5TCeBSMguJDseqk59IGM4URvMts8bsfkuASWEgED2FkmKN1WW5dv3D9zZ8f+OPCgQyBAAAgAElEQVS/NJ/DucQWN1K/2MqGzEtskURlfghwMgw1WQ0x2Lz4+k8622stGzr6dNJMvI3JqXhwnbv7UWAzvFEsGCKN0gh5QTGTartausbeZuG80gdtZih/LQDFhzzz4PbkrDsmfumK9DZlZqrxL5vZ1nT8ocKZtAbE6crkSkhUe9Aowpy+7YedrZXrr//s4L6j7LgwAdKZFs0andJRRmhvYhN7MDaBel9OG6frx1brANDCxhAKtBGkKAFRiYWmQIm1QlLkjCI+FKOIAiUq4kGeagKBqjpr59mjzx75i/zC9warlz5acAYrnXmaAJYRLVa6tbZ18fTewRanOgyy6EijhUO1x2Ivd+phEB+rNlqrpnqCV1Ybpz/kzcvTUme+hoSUYQrhkW2h1Zvb//hf/NvW8W9ZPg3Xgrjo0xPRKSbENIxfUlEBmVIyzmr3d//kiPDK//f9YigQy1iLmQAqdL7qunzt+oWtC2e6X1ugec0gJiai6nbWW7mrdXic1QsVW0I1GIIwg1W2tnT95IlDqDNfOZiQNFLVZ9m2tqs9h5/6F/+LPPoci2lxLRVlqKoSkXE2UkkG8TUbaksEAgdhQa1lV6c1t9A6dOzFl/8QVGlPS1bQFVAXtyn6eHjXXdMiTTgrlOmJPEwSDqVZm1SHksi2RoCU9JlR7ymAIt6qiM/AGJ1Kgdc4ogzJvCHNVkSgIpb4EYDWPDVO4uVjuRcGH+eWXJkHZLH2DVKitcYgsZq1re5WW5vv/2rh+Zdw4AloIUEGoA0Hd0vKxSjozWYEEIpLk1aLDcszJ/pn3tvDYWFlPNcWpnRshm3nzXqopum2x7kQgLiFB02EUO9XF/tnT02rqPex40aDo4ZBFJduKsWcH844WT338ezGcjG7z8QUEu9+JKQfJGa/V4tLHgBxplSqmhjCwmZiKOi7dW/j9ImFq6/o489TCxHEg3GNUI2DpOEWf3E9mdhvqH3Ww3km9vAs+PQhL5OhXpbEVNuwPyItrCkkMMoegIZNlGn7jJrnwCrAUXKgZW4qO3Ts8Hf/rJzdt625VxfDxICKOLKbCW9eKa9dAr3QB6HMeKIC72GRatoYWh9DWCI1qv7a+Y9tY6mtFpJgEeuqaJ0VaygOfPMP2k//jmVdzVqAEyiQih3En4E9SiZJ/45csg6ndk+//Ptzx39nxbLKFZaIByGV1gVtfXnz4hlUfQlnso8xeYjx17vtZ8PqNd8wklLTWA+ry+c71SAUm2AsgyYGlCg2tHX4O38ijxy3YgZZS0QJhY46NkYTMv4n3HFRUahCC6BFbbOYk5kFzuyVfJraBrIU4gtw/ZaI5d3dP0qst0KQNDPSk5Y046nKSxq90T1BIqGi3CjQOk2ZDsYvZ5zbyb9BGtgwnZOpBmgIjK45PviNjd3HBwwPQtoHm6eKDKe3BRdiVoTXL668+4ZWA6vLWAAlieslpTnFcCRHWe0JqqaMYxr9UPtrV9/8eWtztS2lM994WLH4BxIj1tysh4j1RsOuGuL1EbjHLOzQyGq4dG39yrmOM0odOm5AKdp3rXp6bpC16pDNrAJQzdrk1rUrfuUm60poqUg0UkrMF8FgcsdVo6vLMBOsqeIoIOin4HV98fo7v9R6aL6KqzTH52v0Y76YvkzsN9omUO/LaUw/OXoDoSxZlKxFkTYI0EKcNh2X1RwTEPXcgIgyRvcQl8VQ7yAV24rZnpob2u0nnp85/tIaXe0yS+omwpS+A9m8cXXt0gXQk56wQDGFcsAca/Edl6qwpKVEh7RLwiDk6k23ujStolYRFtx2o5i6dS+tI8e6z79srWnkLaqLYqfE+qDRyShHsApJwiwKZOIKm12Yf/k7unBom0p1hIZ6gyp0Vk5ZZYtXuL4M8UYbxVOQgOlngXoIYwURwqrr58+6aqjhgK9QAw3qVXtw+f6jrWPHpdWFy41KUZKWUJREwirpecbgPhm5K4swIkwaJ5qLtoAWkUGyhMTCbzWhqDt0rbm/SHGrmO0cdvIwjsnMDIAmHMaEa5jSmQMOUEScJmhgtDFUp6XGkioS/ZyEbiNADwNitDilGcrz6ggKj3Gro8Z8HsReylsPTQ6kO6hCU2PL6k7VWz95orxxEahpPowI0tBIlOQ3EyZ+qyZpI4OP52ug3vz4RHnx9LSUWSwSGCsXpqnAJp0o3rWHSBQ1uD/UHxGLT3egOkkRMwx6dvNKVm7nLDVm4NMgwzzfanXz33llBXmluSFWf1KRjDYDG148h/4WzCdKmJZYVCbZ3sPrKnY8LqEXagHWplOqBUI6sm2+6wf9U+8Pzp9UqcU8Y7njyHPfwnpPbGIP0CZQ78tp4wHc9JJIJbKirIUJ2SgtFHTFyLtN1bMYaqcxytDjmh+3SUQxH4BGmJ9be3bPS69k+45s1ULRRh5kNCe+8BXWlmSwLU0OY4r8YazFd1yq0ro2AmQhjAjY9sri9uLVKTFnjJ2FElppNiym2k8+lx94VFDEgF/aCKNHHSRBoZwt0ez9SCUJAIW26DqtJ54tjj27pXkNx6aiigDmu2pbi1d7GyvQMNxIgvgx0uXubITJOAIiCJmX5qUuNxavZVZp6IdEMsfgNkx3H/+a7t5PbYd6rU1sUETGvqphU0dzpuGBIleAxBuFIzihomBQxAHhFsQZInLHnbK5TBPANWlQZjDX0Lw72DVrWODmt+F6YVjHK2ZIUCOIeAFBA3wQJsRbEKhtRjqzsTgsCWpy7K7dYuNA8MFYnMMqEp64pNdHfE6dlfPK4ZWz26ffQ7UtNhT4OEJNuBpjE2Zs8qQrBFK+xNri5gdvZxvLXdZaVyn1c7xrunMwHyrUQ2LJAxT35pMTGmSHBpr1txZPn5wWn5t3tEBVG1wfeXHwUffEc/nBx7aRGxwtjAxVrGP1tZMnbLAOVqmcTAoqRB9M7mLteXD2CVYvlS8F6KKWRiSJSusuvF++tv7+m9hep6+lyUpK0zXGbB6wCzKxiU2g3lfFkHiwWKI11BiQlPk/2qTHt2umgK40UEjQbNKSVseUyxb0UploO3/kSRx6bIDCI0uZZqoU5+sp+HJ1idsb6ZiGxOKkZt6lpW0s6vopMfOUwt7aarm22oKIWWg6DUTWY6bz+/c+8Sw1h8vJWF1tvE87QHIKEUvD6wR9IUQ1Y9beffwFmdvbF+fFRaqOoiJtlf7S4mBjNW2+sQrw/dy3MVavaR4lhCONm6s67DsxWJSRBdBtoiWc7DssU3MCR4GGWJhIIKV2fpns3HNGgUtVjfdYFemeMwZ5LW40KX66s+Ta7W+aSIo0xqEP4VeJJSJIs5ALSe9tHKMwHAS3cxhTL8Y5rNEvb/lfSqpOUd/02TAgO7i6tF0274zZ6GIPEueJSAofh7yPsN2bqEHCMXpKy305j/rKL/5pePmcsmLKNwoo/5ZcS4xuFpNj5sUq9cOND99Z/fCdXWqZr1wY2sCHJh4/ougvDjCQ1JR245wTRqeUYiBhJdeXNq6c69A7s5hsQpi6bbrOE8+6/Y90Hzu+Ja52OVRFA6dtLVb12pLdvEYrQ+WlyCxHwJy4vbGV8HPu547LcAzmMlH5zROqZO7rXVKunnxvcPUcUIl4oReQZmZpkcEXKzuc2G+mTaDeV8QaBi9IfGLBziDeC8dHxNXBmvUn7sGj4xaRoEGi+ySmIkag50LsV1xOLRaePM7puSEyQzyGTYXOfEus3tzwg37wX4O2vnFD72t5bTLojEJUZdbfdPQwU5CgiRBKZAM6353P9x8hMiC0VsfKB4qMIT3dyS8G8i9yShSoEq5z5PF6elcfjuoiUQQKqeZzq7OtDZTDlE+cyKjPpvEK/dTYXY+qatGcNekkCDkqnjI1t7vozgoyagShjFH20EoDPDWV1AnZyTvHc4RuQqhL4xikeeAo4cw33PW9G3kOjBmHQPx3M7yC5kXTABEBJMi0mltyBwu31QWNJulG7knskSDkF+1EcgKBQna8He4XMXpMHuxWyhgwZZM4TE/UonSZhXwpEdDg/QyrfHVx/cSvrL8J8anSxtiPsQkW+D4J0dk4abxfvbH63ptT5XbLVxrObkmTW6DNgV2QNNpR2/FAe3xnQ0rKSA9PZJZF6FkP/PXLU3WZ06vF3G1CPbKBFtx/iPMHcfBoL2uXmnmJcE7FCqu6VW/1/MfwpdAk1lQXmpE+VqNJ5UseBlzCjssg3bKGpCMF9KRBVIXO1zPiZenq5gdvsb8hUgms4cOF4RTyAFsnNrEHaROo9xUxjn4EfBV3bcZUixFV16w/idNLYTJJwq4o74o/Y0w4hVADRabaPfhIPTU9FCfimswPFSnIcmutqgZM+8do80xXHCOYPrVD43AkbmkAWHPQ8+trhcCFlIjAVYjUoHd5Preb7S5StV9p4tQ7L8hbqM50ydh/KENZ3U539uCRSgtDFBRBqGJKy5V+Y53lMFATARvfRwB35zgwxZcD5yR1fxu+crSmACxT2USnGVyRylRoTLvgSDsZFGGjjOPRs4xREDCFRtkMZQqjNuH+FAO+m62x8SAMMWYcwUjUjyYo1tBsiYNML+KWdjdDFulqQ6o0glGnBDLmZLAJdzIK+JLkPY7DKJr4yUlxF7ftTp9q7kLi0TwwdM46U31xNVwSIYqIOSt3YXjjxK90+arUw3A6WPzomHyQo+C0caTcN6kG5fmP189+NK+WWRk/JCTgoaVIDbUgYwhZXHEk8ZCh3ohhjbM2xiQgQlYoty6//3Ze9V08c4Kk0Lkepbv/cHvPIRRTnX1HphcODUwIWPwLy8XyarB87hSHPbE6di5pQ4NwOUwXeWisnow93ZK41OT7UkhEoaoASmZVuSfzN9/6hb94ClU/AODofIVckzHPeWITe1A2gXpfEdvh+wdiBiM+C9LQWI1srtE+NSldtkONFVYTo5iNBbtIChRwnNnV16IUMR2loIpZ5qS3uV4NBkA4BYi3NHKHp/vp8GEMjjROP0UE5dBvbbmg0JImGEITIs93HzwsmoWabDGWmKp7fLIJt0EwEZUEXZrCZbv2H2aWe4tkF+Iaa5mY31hDVUaonIqJJNRxj153Imxi0a2ky6p6fSlLF7ILwKZ2hIqSnvRJxGNjTEH4n4ZEilSMRMeh3q2sXvjSCCOarA4m4uXug+87oJ6myTU+1LegzNvaXfMtYZKDTQ6RSJOWwaYsMpp0jDSLkj4fKVMnomiYiDUdubsGyKdNpbG/iilFTPOLyIauaD3+pNu7r6eZh4YqyIDlVrVZTm0v33jjpyi3WQ9SkFbGPQgmR8xg4f+kwYZYuX7jjZ/O26DwQxdHQwyogIFmbteeMisqVUn0Vmq2PmSaKCHQ6KiFytkKE9TwlV+5MbhxpWVVRq+0kJBRwm14nXnk8WJ+rzErFg51jjzaM6G6RsuYmW+ZdxurWL5OqxlrvIf7rlH3mx7ihwf1YpQ2TkcmCR4Bg3o4UxfXDaGSLT/oDNav/vJV6a/Dyugz0xCz0mOmzr15JROb2K+1CdT7ylmK2cltUIzcjtAarfc7t6wUV2vqHyTqT0REUbTm9x0wlzGmJBiEQg+a1TWtkrimRYBIcnRVGzX207shTWslFskItfKZKcBQP4KJLiQJ06w1NY14IFg4GKOhLu7awncSoipZqzW/u3aZoSlDE+E0aE6V9DCf8jsCLRWIq3u7ZtNbWPj6wJ1SREaMB0MEh2LmFNtra8PeRtgGmhziyMbFaHIovRO+8I5UahMWdE2ksylRcdd7SkPduiaAe8sHb0GZDdYc/9U9jFtoWKyzF78ltHX8a8bIq/Qnt2Kz8KoBxHfZhoj77wAQE+8YBRaiXrQvDgce0Re/tSp5nRfmlBAHKNmyaqoarH70bnXpNPyQvgYsBZ8T1RpAI1WpidGsUPVWP3izf/lMl6Uz3wg3jOpde7Xo8IWvb+btSjNi/FjjAM0fqo1FzgOpm3hJEuK3L19ol7221JB4uiOhNbK66Ob7HmVnF8Vxelb3H6qydo2oUg0igQLk5sry6Q/BSuij1xGIs8hU85YEn8+znyIi0etJouBYWwVSwVkxNUTuRS22TyBWeD/Dcvvcx7xyXqwEa0pw6rQZvTv6FxOb2D3ZBOr9xtgnArif+Lnz/WZbxPhbgBOhqBPRrGgJHJu0QIlpkaoSQxOimtRT97qFjzBBZOdC0qzUg+Hm+qrTBCITM2kCr455Tri4EGLU63u6chotFXFod4hMpKngHPJgkTldWbrpB/2gfkxZojEYer9QrymWFov1Fd0pyfK0DUSxl4pkYs6Xur2Oss9wokhTSsLizs9UiU2EHCNvQ5ENjl2NTa93zoK746xuHbpUvwfNPbjjB8fIxXveuGKLm5EbS0jZ2ayG44tYeOzP0JAun8P+2eC/lPdCIVAj9/lU58kXOo89s+rh43GFKqQzm5Y6W7t59fVA7FWM7lI6EiPBmoj/QKFJNeD64rW3X5upttpWaXKRKPBZa9VnU0897x47vuXySp2PN+eWAPRDtRRnT7M1PF7madXiudOyvd4SC2yniIjo0KSz98D0gSPiWtBCNJs5cLjYs68vmcVcNAFYCLPB1vqFM9heF6uYvAAkTUJKWHuYUG98kiIsDwbtFx335NO9vD10LYMDXPDrnLe2VZ3ttQs//zH6m1IPRYUC71NMwTi6aRNWb2IPwiZQ7ytnY6zeDvvUlW18vf9EAJeJUAu7cVgrXSBSzCwiB4DhmLVwRJilADIi2kDKHYsNGcUSf00/RixUAgKEmvmhL4cOsSJJVBIG0Y/L27v2xNJjKSHzU0bj7oxCUYGGs5gEKXOOFMJY0wxIRVDGg4P3ec1ISQW0RMC1Opa1KziGsi5hd1eI+SnH4bmP/eYSbDjCh0iBsQQ8yRjDbga/gWAN+ZiwrdyO873H8bqvL2mi8/ehQUppH2OCqNs2i41cj0iouPlMQnv32ve74QJTblQQyMXil6A6kwz7DneeemE765ZaWBCYAkIWVs1YWZ09OTj1IaQia0l55COQOlI1kFaplStvv5YtX+lK5awKwWgKPLTviv7U/Mzz39BdCwMpDOmYji9U3I+UDwRJMUka6GXxmlu63maVmcVajiBVtz2w50Bx8Ighg2YkOgeOYtfeLS+mGQxCU8Kx7qDG+lK9dF2jG5ZSi5JTGlnyh9DJT6DoEIswoBa3pS33+DPFo0+tUXwsdBC8Ect9PWWD8tKp/pn3KDW9JVUyo9din+ExndjEPmETqPeVM9zrCn5HVm9cRcVmN46BQ4lBy1T6jiPHNQndEymxMyibXn9qswICYdrSRJqCazHdAwlhhdCqmKQ4L8YG4V5GY5ShgqjqD9magU3BSDUYRTcASROxlMRwvwHcxKMx5s8G6iFjZ6Z0Mb5jMZZL87Uau8obJ9+T6xfFD4Q+VqWLkeTI6CHiPI4rexoR4x1ZvXvsw/1/yWdh9aI70Qz57b7hFlZPbsPq3U+z5dYJ/SkuFl1whqJmLwAOqEfBrDP//DeKR55eM61d7iMbCmfVtHquXF354C1srwrrhpodPYupYgvNi5XVjUsr773ZHmy26J1YIM1MtHbFSq0zz7/UfvK52rVq6EjaOOr+F4D5RqxeyGgCxbxatXX5QrW62IFo+gMTraAs2vn+Q9KdBbJwSCGnd7UOHPF5x0OTgkGEvguWSzdWr1wIZ4cIDRilpn0ezO2nWqLzwkIY6+pFz8SV4rD7QP61lwetmYHLvUafRUUcfVcqXVtcOvGmDrboh4AFd1OSGnVERk9sYp/ZJlDvK2gP+uFPnF6Do1JaXMgiCGtoxEBo6Lb4ybHQiaTyLqMWfnpTU0gzwcTw0bBWpyKijSI/Zm4GxivlWKZL3APHNmJMms8zKM4QklMZY5MAY3GSEUkWatTdF15Jm09Algk3q8P0rmJuvgoH0TKI5wiBirXrsltuXXvj5+itoe4JPcWQImGB7EzQLzJ9cTwtUo82jr3HsiXkvti1L8rwRUGVeHEZu/5tW8EItuMTYdJEENUBLV04tPfrr1Td+T5yg5KiIARalfMZN06917t4Sn1F87H2YMORB49DjFZp1V898UZ948Kco7MaMQ0fpm6Lanv2zX7tZU7vEmSEfiKsji94nQ9Z2sFhqwabl8/Z5lqhAgYPSqmuR+j83v2PP8WYqApoLigOPPWcm9sztFCvRklzxpYJetv11UvobYjVSB5n8FtFZLQ4fN6G4HoHCUYk/SEQUSq8qs86nWPHO489s2Lqs3Y43pYkwNyqWa0HZz/cPv2BSk2rwzGMMatEeevU/8o8shP7MtoE6v2WWrPZj23/OyVNoW5F4IYiLxSVKaoqquErAhBCKgB291ty4rkaiBn5w/S1kd3DWDMjJ5JyLyUCvjtwbOMoZ8TqMbF0YVMVA8iA9aRZtK25aOAzExF574tuEzI3CSMd2VGnC48d81m7hgN0FEenZaznWfVOvr3y83/EYFPKPn0V0GCK1yLldMRqNUzlgsPAjmfhNG/eN7s2sdvZyN8IydApRUliJSLnqMXMcy/hwNEtzb1qyg81sO6wzjaXeu+/yc1lWJnkCnGmUQAYaWA5vHxm/b03ZupBqxq6WHIYVK1dsamt9uPPdB9/FtqCy9MpI+P+D8fypB6eNXMshG5JD7V65Xp5/eIUSmVJmDCcpe0GyKqpmWz/IQZRIxAO5nYLh8vOdEU1auQHBcJ6OkN182q9eBPmyeCdjtWXeWiR6+AoRteXqWRVzBA3OiJ3cwcWXv49m923TZg2hw8ZxE+p5/rixgdvysYiWVMY0Z6N4iSj1QaBqJ8gvondj02g3m+pjS/EafuXpibyWBRQYu29+C4prvZGC4Vbk3StYZXuvgHN1aOQB02igcRsxgj5UgG1pmGSYmqpqN6vveotKEfi59On0rs7ci0ia8bUKqZyMzuG7l5tLKIWiFBF3p574vig1S5dVmtMaYaEo3it7cv5cnP5Fz9a+dkPsHkd1mM9jHFsQcOExqS/piCOpDpmY1q9ry6r96W2CCkskHlsjg4JvwzhV1dweveRl3+/V8wMkFepwl0mzOpyt/prb782OPOh1D3SB4GAiIikmKTVMtjqffCOv3F5DszMh0eAgBfdpLM9h45+6w+tPStoUZyM5AijVn4hjFCi6pmO26GIbd+81rtxuavUuo4jJFqLVFmne/hRdueAvInBS5ZzetfUwaPDol2q80EzIgaxtvqNK+d6Ny8Jqwh/EhUarv2QOpkCBIgtiBdP7qqqy+lanWdedI8+vSV5leXmAhEvanRVtdv5pQ/eHFw5pxzSKkhMjB/lYjerTYo4PKSuTew3yyZQ77fUbmX1mEBCCNmaJ21rbcXRBy1KWMcIeErR6TiXNxWUY0E+QO5lSxkFcGUklJNGLodE7TFQhvFwkLTYUcSihutOUO8WlBO2AcVY3JeAaIqdJolTI2pPrJ7cXid2d5a+UrQJhRPq6FrYs797+FgfWYXMQiejRMtrXXX9cG576cY//PXlv/2v/vLHWm9Y1RPWEB/i7Igho0gnCRLDJCI7yihO7HOwWHAm3tNYvjfSewaIUKG55FPF089nhx/bcnmlmQHxfDCpCz+ctf61N3+GrVX4ckdFaDHSi6+4ePX6e2/uVq9+EMWsFAMGLtvOpqafekGPPiFahOyiAPKaSGZo5RcSAB8TdwRvw9DftpvXZHurw3ACc6T0a0FVdA489ZxkHaojNUavVeHy/U8+N8jbQ3WESvIvW2ItP6gunUd/A/ApKvGFwaAm/V1ipICS5BjQNluzB77x7eH0fI8u1HWCKEQd2baq099ae+uXtrYE1kRNeDYaFky8sok9GJtAvd9k+ySXM27hHUsVlFMlkQAZPPrbtrWRsVIzNJ+A1pT2zGzW6TDGS5Sp0ptIU4L4zjbG6qU0PUnK5hQQCW6/BV0SYnqGjOLGck8BXBs7hjUp8aKyh5FB1KgokuCs6wPbO5haQkhQ0UEApTi0Zw5+7Ztr0iqzwuCEGihHKByY1dWMH+zz29tvvXrhe//X2uv/qINllBusejAP8aRnDGXH7D3GQoghqhsD1JMA7udisUYjEzGtUbRHAULdRyei1Bzd+SPf/P2trFtmhYeKOEKUkls1bYPexZODCx+LH4jVY7pYA0sM1m788se6dr3DMqdpzH5XY9bXdr+7++A3fl9cBy4XuFRXLgCpHS19yHhhRG+lkoNgZRsr/YtnuzBlcFRAQS2okHF6Ljv0KFwBcRgpOBxdXhx6xE/tKjU31fB0Ks35elps5eKZemsN5kFjLLYdq4zLw6GuGX3CRrpMmCAcVB39OaojiqnHnuw88mTPtSvJfCy1JErL6moe9eL7vxqe+0iqPmmkJUezWaVFolc7CeBO7D5tAvV+k+2TG/y4hXfiiVXx9CURegpBb0vXW8N+Qd/8DlCDGxDFzFze6oQ80gBLgFQB7x4wxHgotnkPIYIZeICY3RZzYdGgmbTE3hWrd0tPpRG0Mcm3wy4hsVDvCDk+QJog7QRBx6MK0FEEULpW69ize597acVclRWhIlqS4InCMqun6t4BDvLLJ2/83X8795//Q3XyV9i8KdWm+FKkglQinmJB2hV7w6ThQ4R9shPuyySM+9kt7fAS8z+RRKYiwlRZV6GOWbt17NmF519a85llLQvpOSJq1jabKbcv//LH6K2SAyhB0xCh9X1/5czKB2/Ps8rrKotcD71q5VqrLI588/dl3yPMOgKX1K0it8vbfGiJCvFy8UGNZ5WBhNXl8o3lC6em1NO8RO9LvGYDLWaPPMapLjUDlBjpRoBCunNzhx8bSjhNOM5rmO+Qg6Xrfm2ZPhw4kRaipNR4GP7MSDErEn6kZsTlNjgBecH23KHf/YONYmagLQ/XaH/D4Rm7/ODyGz/D9qpUdaPYjZLFpjuTAO7EPoNNoN5vsv0aVg/J8Y1QQDhKybAKYtdOfSCbK20SDDWfQBGD64u2du12nS5T6kbkNeRe0cMoZyMA3U0AACAASURBVGDsPYpZ0urFgsZhvxS6sePIIKJ3yerdAnMbiksoEsrThxy6oLgah433ktt7NxaDTw3kC0u9ttyeA/OvfHe46+AGitrlPkKIGIlTWk5r18M9MtjbW9L3XzvzX/7D5e/9H9WHr/mlc9heRrkpdU+soniIBWaJESQjxeajmOkWoP8gu/dba8lbwS3ZDym8C4BZobsWpp7/xnBqboDMoDFxF5axmvZDf/ns2nu/UpbmQ36GsR6g6l1642ed3mqbQ4UnLJw9XGu2Cc0OPjb79W9Ku8smAyco9KAWThUcb+PDvdVMmaYxh4Qmw76/einvb7bMO1rS4qJ22Rby+WNPS94JxTsDox75QFW0u7uffGZbXHT5IKQ4kVzYqsrtsyel7CHmNIwHwB8eq9dUMETkE004Ft+ACJzkneLIsblnXlxHXrvc4KI/J5ZZ3bWBv3y2f/o9+EHIxQ6+2o7eTFi9iX0Gm0C9r7z9GtH1J6FeDNfe+k6AaSGGa2I1N5b7l84VVT8XDyNCLoCKVzdUJ3O72elSFClTYQdDd7cCsduxetLI/9BEaUNIjBDTJnXifgK4sdcKGkUoinheVKpd8YnGPGDxD2PomfEUEAoF6gpD0T52/MC3/3jJTW+7Tq25b+ii2A7L6YuqnKn7+9jfs3nTf/j6x//p35/9j//7+k/+R//k21i7qtyCDVj3ySFoMYeFFJNUxGPC6j1oi7dJUlL0+HiawKRRwSIzzbuPPDX39NdWauddEYOUBjWbEt/ura+8+0u/dE38kPS0Gn44PP1eee7klA0KX2koZ04x0SprraLY9+LLuucgtYBmY7xx0rHubM2Dg3pJZJu0FA36uDVinHooAblW24tnP5pWc74ODxpVTHUIV7W6+cGjcG2hS5XRQzK+EE7aU3rwSNWaCpXGmThTtbpt5dK5j6W/DfMxkYsP13+JgHW0LAVmNwC1MSfWETm7uw9849vVzJ6eKwwwkdBaJ77Nut1fvfqrX2J7VfxQmrya9KiOeNJR9yYP78TuwSZQ7yttZKq+tHPbjq9/fQB3jOMJcjuCpK+V5caJN+3a+WlHR0MUx4FEDUp7Kt9zAHlXmkCLJOoIsTywyN0IwUMj7RPoKuRgSKQGhBoTgP1YVdj7CeBG+jJcIF43xl3YBHA/T2V32oXG490UUdWC2fTeV7574JU/usFWL+/WLjdRUlNabczUUFrmh7Ms99Zbh4er05c/uPZ3//X8f/n3N77/Hxd/8v8Oz57Q4ZrWffMDkRowijXUK9J3Rc3iBOo9KEtarU+cl4e0N4NU0Vzm9s2+8I16bmFTnGkm0BD7zXw1q6wunt384C31PfqSNsT26tVf/hSr17vwjh4S/B+l5mueraNPdo9/XfJpaBbPemlS4KNUc0fQ9sEFcNMclqg0aNDHeOdDIhdS4RCpK9lYXbt8riNVxlqTUoJAz3D4mefy2d1EFt4JSwlAigmUcMXM/L7Hn+xL7pGlMyUM4jusysVrtnRNWIImTU7X2M8H1e1PHYzxmIQAokJt0tSinhkEHLXVOvLE7q99Y6VGleUWl1yAdKy78P7auY0P3xFW9HXM9RmBveBUx4oEnxjviU3sDjaBel9pAyChUm7y55ObGXBQzAFD8yIq88beD58DBPSUWliW184vvfta0dto0UCDKgkjBNrz6O49MnvwEWsgVCNKxyhNVuRufM6wVOlt1qy4dUaQ2WTeNpqYMVZP7pF7Gy/LlzapVNHvIS6eMWc21cVQ5B3rzO3/w39x4JXvXrXWdtYtXZHOnQtSMCpDjqVkrFtWdXx/V9U7rNVCb2nzrZ8s/s1/uvLX/+el//5/D078TAdLqNZZbsGXFE8IQ72uJqY0CeA+EEtazzRfd/wu5CSICAKkg6O42WdfnHn2xW3NK3U+ICKlihW+apebax++XS1fhZQq1fqpE8Pzp+ZR53UVqDoCXnWAfNCa3fP1380PPUqXgc05ESnKF/mwHUze58DqWXAWLJVVGSP3GKEnIVRYzbLXP3+668vMTKPgUIwwdT2idehRmZqnuohjkHIroOE50anZ1v6jG5RaMxEVigPVfM56qhqsXThFX4UTZWIiiIzQ3oPq9t0NTbMIR+Fz1HESEBXNZXp+5pmvZ3sPbzOny0PMGYTSOlLr1srah29hY1FiLrYBCAJjibXcwxqrvzaWM7GJ3cayL7oBE7tPaxzWUek3CUHYUWZphDXN4htChunXwWNETFDwIp71QHsr22//rLp0ZiGj1mVcZCAm6l3Rl7y970i277BHpk3SBEyoovH8sHDl20nDb7FPYf9i2bDwS4xvUngg69vY8Iw35eFCPWmAVhhhUSdZx2YWFv70f5bO1LWf/XAPMYNBwUqtdjEcR8ZzGagM0aw6q6yt6EJq1ltXPt66cu7y6Xf8wtH9x1/c9dTzsmu/tKYlK0RcKuIygXcP0KJE6/ayTlAYSmbHvG5kLZOp/S+9cvrj97bWyjn1Gs71EnF+ON/OLl08MzjzwczcLtne7H30rtta6cJntEhPEbXL1yVzRx7f9fxLxhzIBCG/x1JgMyQ0NFT8qC0PyBKoFIMoG3AWfhF/iZhqHkCKr9UPr378fjbsZYyHSgdfswQwNYe9+1F0KEqQpqpGQiFm0EDstaeLg0elM1eVq60oDibEWuKzsrd45tSe7/Qt62qWGUnVMOzy0NEeUjQXI+GzRJaVgObmy87RY1PHnllfud51pr5WEqBS8rralRVL5z7a/OjdmW/tMRaquZhGNiawnUFaHJeqCdSb2D3YBOp9hQ0QpgM445E8Es+ChCDGKGNQcqyKHIWkpuO3RUTgxVfCofZWtt7++dVf/GhBBnk1cAwhUqMIVbepfnZ+9qnjbHXU5RSVGGQAG2+8CbLeVQB35ATv6NWn7Ey4M3y8T9uxUT0siyGmyF+KaIFWZnAL3/0LN7f7yk9/OFy9Pu17XVexrjTChRDDA800lmcz85ILndYZsmn1/dWrvdWbNy+euvbLVw99/ZXuM1/L9h9h3qW2BLmKPmSF/m+BfVrcP9LGkWESBYSa50eOzT71/NabKx1WDt4RFHGgq8tZ7S++9k8z+/cNlm5sfPT23oyuqmLxEREP9BW9ztyhr38Lc3uphcDtiFEiTuEoo/h8A7gufC3GCKzRgxQvFxIUalm+aUvXujZ0NNAEQqh32abp3OHHunsPEgBcwHXSlAqCUFTEieZTC4en9h/un1/rqqOvVUQBR19YVa4vc/EajsyTBmiTD/FFoKG40u4M5Y8F15GzM7vvpW+dO39qY/HCbpeJVSohe17a9K3+xvpH73affA4LHZoT1bQoUcCwEhP8Qo4/mdhX2iYB3K+wRUlLKEQCDawXQ6wnRliEYs2LAP3SGhryHCrxfVZ9sMelC2uv/t35v/1vu6vNqXrg6ENZOZIGHbps07WyQ4/PHX+B4hAO8pJUWjgEcMdrldwZTzR/d7s/vd17nx9G4RfA6qXLBoYRInSA03yKnV27X/nj5/7X/6342rdXZvdf9a2NbHqYdUqXm7qEsFOBjxTHzoy5Ve16MGfDfdLfN1zZ9f+z955dkh1JduC95v5eqNRZKksDBRSAgmyggZaYHkWOoNgluR93/wt/yH7ew93D3SU5JGdnOKI5My3YuhsNXRClq1JUVuqMeM/N9oO7v4gSAKqAEkhM2OlORIV4wp+L69eumS1+eOmv/8N7/+f/vvqD/8bVS6I7CLuwMBKCkqSKY3vAZlmxR7iWtaYOv/qd7YmZHd+qndOUFNx8qCatL9fOD/7H9/s/+4fJ3fV26IuqQY1QSiV+W1rlidPTL7ymrkNfZDSZMlBCIiiIqq6b4N39GzufqtXL3t0ETuLkAV278KHbWmtbEFjO9GjB+W0UfuGYzOzTuE2lpAD5Eb8DTJTe7T/iFk5s1lBxSX8Kg2lboGvLK2ffASrTOr6tmpDVo1Gj3p4RxVLYjog31ypOPt16/Okt3+47H5D2yAKVejArtvrem7sX3ke1axpy9ZuI8AhTpOKNYwfu2O7NxqzeHjVLaUPMYCam0NpCbVoBCtAQRvbXaQEwI6gwAM5UabVaJaHi5urmuXeXfvGD3fd+e0D7vdAvNLiYzcREaRVlm+VGd+bMd38fnWlKaSZ5E5/EKHfYRN+VG/ce7MEhsYeE8RoeE0iwuIkYjHJ6AOJRdMwVcvSpo//ToY333lj6zS+un3/PbizNuKLH4ENFC94iAjCJUktIKplBo6qYOoYSdcfVW0sfX/qLK5sXP9z/3X/SPvaEWWDRRqoK0si7hnr2h9MS/8jMYA5JVefgShw8sf+FV1f//s87Ujit43dooQyDObP+Gz+tB7vTtEIDqFF2F8TtutZmMXnq1e9Ye5K+Hbl0iuT90rAgFzPcGzpw7+O9JAducsKm3hN9lgoIoLkvGc0GVvevf/w+t9baVFEjYyoRDkzYne4cOoyyTbq8/4hhGSYU1RilCphDq9M+eGRjYnK3v9KhE1OYEVIA3Nlcu/DRvt1N65ZmirgFBZq0So+8Y8dE8zAYhK403z322uvvfvD25vXdgh6ooxPfW0DoT5ks/o+/P3HsSe47bvCZx0dW49Cgn0wkj21sd7Yx1NujlhyngBYa2qHv63UObhADwGVRcAqOvcmhakk6TDNsrXNlce3SR9fPvhsuf8yNpYOCdr3rrRbTyAMoUdP1XWsFxYGXvlmceMp8l+Lj/AmxRop8Z1ZsPB2N2s1852iQIEkzFYhBAU8R80575eRL35l88tmND97pnzu7+v7bK4sXJ1zVsaqlVduUCGoh/yrCNolLvjN6Vq4KhavaPiz99sfby0tHf/ePemdeNjP6DllGuVXz4MY474FZJN8BgBCVQlqTB158bfOdN7ZWzhUcQEMctB7qwsBC3WKMhIoUDpVSi19DOXXqTHn0Cbq2IvowU+aeBPk1kXc5OP6B3Eu6o/ifJgKhmQEsR+XHRJwaeGPZry6L1c6UqiakiYrbUbQPLEwcPqn0pEeue6aqzNlrpKkuazZ77OT6/KHtS6sdFtQBzEh1GnqUwY2levGye3xOLaQIGDMRaQbXA2mJu7YYf5WoUKOylANHD7346rW/W5rQQaEhtpwDTKsJcZfPvbfxzq+nvrlPfUvo0+6QZhrR9TgsY2z3bGOot0ctivOMFK/VRNi98Nd/tvOjv6+lNDoYkAooRcVeE+UaPYYGqqi6qi53N217jdsbs7QWq6KqnVlMW2DUAAb6gW8vWqv31IsL3/59K6fMlVSJNWMxdOBmX+QIa9WccGzJbm+fkc8aaTsAmINzAm9aWK+cfGF28vRzU1/7ZnXhg6Xf/vLK+bPTWrWrnZJVYepVndGZkTokMAyEeVOntdT1Yd+6ce2Ds3/2745vb8++/F0l6R0goJkiy8ke/aL4VTUDYUrSlLH2sSycnH3x1av/7cKUb/vBDq0GTBJbplQAmtyhtEDZlXa/N3vktdcxtc+kzMHZEn2cOQqDDdR7SOUxRnYveetCUGOhB1Ul6vWP3h8sXpkVQW3GJMYzul0jZ+bl4JHAIis/cidUEDEFJpJExUT2HawnZwJ8EPUaXcdGq3uuWLt26caVC/NPnKGhKdtjI17gh9OxrXGa3+rAjWSnIdYC8S3D1MwLr1361U+3V3YKhCJF1aqYtLWadv2LP//xmTMvwbfhuwYX445ztWWOWb2x3auNod7eNcJMwNKCq/v+2vmWXQziYogmRWFArOJKTYW/Ug1ZGpUwMXgxDysFUtcCpYW8n6aKU3E7rrVibf/Ec0f+6F/Z7AJ8i4hJP4aBsk211aErd4zw7soSmRb/YUncFKfx+KiEUpDOrES3XR6fKw+d7Dz1oi5fXXr71ytn3yk2V9zWWo91z5nXygeQAVQzETYPO5RKN+jPesjWyoW/+H+9d5Mv/46xgC8t1flVSxkcHr236ytpcZwkzZ6KSYnWxNRTL6y+9asbl8/OO886SEI1SAGkgAABppDg2zdqN3/m5dbRU/BtOE9zEMA0VnxJjtRmH2EPawgmjy1goLCJq4DBoLDAwdbWpY+qjZXSGaGEKhDEdkHpzcwef8JYUHzyNsSLJyzeEzTFF8OM3sre/seeun7unXpnpYVU71dVS6ndYLtevsztTbQ8XMN3PoT7v8kir3kHwm0obomTqzff5tzCkZe/ufjXV7uifhDUVEQIeK0n6v7O8sXV3/xk9vU/USkoMkTvKZj7Tjmqxja2T7Yx1NujliQycetLHUzRKQirTJuIP2RpntEcGCXSAkDTXAoGGBUh6bmNjNFxwUnlWpsoV6XTO/3i4T/4Z8XC4yZdioeJRqWgWk7CDDOTONGPJ6A72yihh6yswkjml5TicOhtj49XCTojiUI1oCxkvs3ZAwsnnlrYWN14/81r7/xmZ+Xqxsq1tu1Mt7SsB07rSPVAsqbKzMHadZ+iHODCf//Lx6fmW0++YDIh0gIYxUQZkIyf4AMz0jSCM7Hgy4XHpp966fri5YkQnFTQVORCG5EZjBAVv24SZvdPnnkZE/PGgiZoik+nYlk3aygeAas3rAUTYYmZ0oLeWK6XrvSgTgc5CzCMsgtXdyenjhxHCvByMb8kMKIZTUmGxWAUB2nNnDh1rTPZ37rezRtXB8JCj7b70dl66ao/MqFWxsQkTMrBh9elE++GW2GYEZKmxojJBRCUk73TL/nf/Hxj8ePSeYYqamKcWcesvXNj+bc/n37uZcy3ISXNoggSRprks41tbHdrY6i3R81gjIyMgRIVMqYxtBapfhDNVMxIBtZiEIMxJJVvVnADDfBgTSqp4vu+vVKzmjl44LXf2f/q6za931wHrjSLehpF8uBarPeQMrfEsFDlcJm5mVu4TZ32j4dAapauhnjJaqfcAmzWSoyAwOiUi5O7OMAZCkNAEdCempw/NPnSN6qL55bPvrn73puXLn4w51zPBV8PnAZarJgqsbIwwVKraeVg5dKl7/+XU3Pz2H/SSg9zDTH7j+yhPFSzJptjHCOu0KKz/2vfWPvg7fVzv22Ld1bDQsQ7iMELgpqsXbnO1swLL3cfO630pMtZtRPCMjN5VER6qkxoOUyMudMCajTdXLqyefn8IWeimsQjEKXrS4HZfe7AYYUXE+SNzrDWBWhJgWgpzbAIDh62mflq9XKtldMgZjA1ZafF61cu7Fy7OLFwgi7GMNwaXv4QenWGeiMySYvCaNxU4iI6uaUoF47PvfTalf92acq1aApVAWgmWs14d/Xahetv/WLf64e1rujbKX4qJVvJgpn7XKZ7bF9ZGydb2UtmQydNU/AhejcAMuXHZ4zAg+alRXNx8RD1IIYAMyKuD7GMj1Jq5wdSbvrukp+8WEy3nv/2yf/5f93/u3+qM4fMdelKMzGAkn23pIg0FbZUNYnEOdKtbp5dmyIN//iqNSRhNRCapGeWNHXIkqxUIyAVqbWbSjwhoT4hheYMHq5jfkI7c8XpFxf++H859q//twN/9G82Djx+xTrbRXfgCqVPuCHBABXTIlRz2K3Pv3fpx/+dum2hTwYguvRj7OMjaqGvujUZidLIpcC3uP/Q/LMv9TtTOyiiON9MG8oeRhW/EcTtW5h/8VVt9+iKOG5sJLO4MKdcefhm2R0QKUYYqQl/MqDa1qsXdP1Gi4gZ9WhUIBhr39p34pS1exQfRaaxTvOww8ecQDllKAxwHmV77thjg6I1oANi5R8ItNBBMdgO1y5xdyf97DZ7CI2RHLhNDA6ypi4r65gL8xiFzmmr03v2pfaxUzeCBCksTwDOtLSqtbux/tZvwuJF6sC0Tt79mLw0MYQPUZQ5tj1uY1ZvL1mqa8lE4qWCRGQglTR4o6SPUx0xpprrzLOCSNwX0kTNWIiRtaIC+pS+a++0JqZOPHH61e+Whx93M/vVtcgS4hvJvmbANhLdxjQFRT3gqBP3FkfGHVm926eqTyAFH4Xdr0g3y0614SMccdgCo97TkT+WoXRuq+TdI8TMxJWQwhAslP7Y0/MHjk2dfm7px3+z+NufTxknpF/W5hHSEzLATMxaOpiE3Hj7l3Onz7SfesXEEw5s8MXY7rPlIRuZL4uoL5a9MpZzz768/Jufbl7eLK0S1ZT1MG6fxA3oN4vO1BPPFgsnVQqKsybgKpO+HNHqPWxLFVjiXJTkoZFOo9a6eX3r4scThUkqXJZ+VFH6RXf6iafhWhCXNb+prTC8M6Q7SwBJ4Fqzp55Z+unfTVY7LVZmKarIhXrKFUtn3534+vfcxP5Ukvvm7vwQ0F48gTVJnJFAniE5cBOtn0a/MxblgWPTz35t6dr5id21IrpH4t3W9Uyrdemj99bffmN2bkFdCXPxaEzVJy1VaRkP2bHdhY2h3t6xpq5lSqwBCmEMkIpuG6zMVVlyZTm5VISDEfaZaZ40EQhAaqOKd52udSeqiYl9J06feOIZd+RxTs5AWkov4syEmcrLgC5tUeO1RCQRECdj6qha5W6wWvPNkXdsmL/hTg0xuiI8WGNzigSYP6f3OcJkQlxKdC9MkvbRL30K2ZlKXxlSm0u8BFOjUJxT8WRRHOsenpmfPHLi6o/+tlq6MOfJqu9pZmoGEYiqmU20wsbKpaVf/+TY8SfNlXBFdglFNdV49bhfZg3/FuE6UvkZARwBLTqY2Xf4lW+dW7zUQ+01OIYYk6BkLX5bSt13+OBr31HfpZQGlx3AbByUNqLVewQ3iAhtFECUAiPld6z7q0tLH59doFI1u3gtwPdR2NSczB2iL0yEmqBqlIbEcdVA2URzgmZOpJB9CzYxM+ivq4pZ2ng61Y7TpWsX9fqi33cM9KA0vPjDbQvE4JThW5YFMmlsMe6XzUhXBG3NvfDq8pu/3rjwZgsOtTkDoE5YhmqKXH3zZ1NPPycLPbNAGBCMwZDys9CgY8/c2O7CxlBv7xgz1GumDKNRasqua9uBw9aZhCsJMUjMTCUmJmowl5JcmRhjqvqohkarU7Z7M/sXZo8e58JBlJOQlrm2SQmRFBTa4LxGTzaSliO+/kSl1yc4cPOHIxv5UbORj+4wUTfw6wtO4nfD2A2/kzkGyf+8p7Nn/w2aq74DoLqF9URuUjROu7gIMiXXIKNmUgAVCnxhVmDaTb76exP7D374n//90tWPDrbEBjs+PyXSHFDWgxlxqx++u3Xh7MSZWbXI/DmDNjc4tvthSU1x2+iIhVyFLNCa7D7zQvmbX2ydf7uUSlSDqRhMZFeKVZZHv/469x8zVwI+qdhSxg3N6OKRYfPkZzYTYaraFeO0YKh3ds991O7vtEIQqGSMUzm/LcXC6WfZ6pp5GK3pmtbQXrn0DiCxDpASpEnpulOHn3r2+g8vTUOaYmxi5jX0tKqvnCtOnoFrUZpaPnnc5DioB4eK0xaXw/1hA/UUZgYXI6UaT6w5SoszBw688Mq1xXP93drTgCrWzBUdTBXu/IWz2x++NTF/iC2BCExpZBbqjW1sd2ljqLd3jCMO3JxySw2V+E3fOv6N3+Xjz6LVywlWMiIEUkYEi3EZsWJ2gBGuRK8HVwI0OnWe9DHBR9wtpwlyRFDcxA00f4fyu3SRnzaJfqID127mtz4D6jWJBr6g04qjRx9RTd90yUN5pA3PeO+sXuPAbRaEO3hLb4XCo2dp2irVGU6UbfJyGUgxNdCz6CocTz5/8l+4j//s3y1f/Wifb7m6TwtmRhGYiWrXhaXVxerChzj1HMqSziOGQNrYjftAzLKCTDUyWQoTGsyVMn3w6Gvf/fDCBz3fclXtARWp6TaldAeOT55+HkWXvqSlaCuYgCld9iNx4I7MAM2GRCJSMzNSqQH93esfn+2EHa+VWQBjVS8XXLkFv3DkuLW7Rkk1P1LLqEge+bkb5kIRIKji0JtoHTm5VTOIN6tjmV3QnIUyDC6+9caTL30HZQ/izNIuKMO74RbzARpxUyaU7MBlAvdooLABoFBKk9bsMy8u/urHW5e3265yQagBhAe1ruaK+tpP/2Hy5FNYaBk7AHLmQLM0H4x9uGP7bBtDvT1iccfciDPIhIcIFelLEbqzbv6wlVOgzwKXBFCSiC6Vvk311OJ8FHfRNIEInY9JPmECaqTwRnbGt0KcWzy0DVS6hz1zA9h46/vDcMVb28Fihd8h8vr8Ppqb9sW8Mz3CBpqpQYSxWNPndODeHIH7mS01ioxTRG6iPIbBEzmQIhJ9RogZ6VsGyokzJ//k35z7z//XjeVz804RIKZmRoPAfKgmXbF5/oOpG8uyf9IQH73GHC1ju0+WOPSotoxvxYyHTSkbwptrlydPzz71/MpbP1nwJUNldH3fXgn+sVe/K/sOm7RgzuIjipxPClaNztuH7cAd2WnFKYJZXZIoOrEK66vbVy8eNHUIKVwfMGLH0D2wUOxfoLTS3GS5kFv0VMT9DIYZo9K+SJUQupbff6h7cGF36aOCzpsRAUZn1rJqa+Uary/q1D5YK4pNTGLESM41+CBZPaChWW99TzLUi+jcNHJ7BtJ8gen9R1757sdXL0xY5UJwVBCgioVePdi8evHar396cN+CsYzzs0GiKscQKxaNbWyfYWNnzR4xJu2yZXE/CE07aAYIfElpwbfFd+gm6DpwXboJ+q65Ll2XvgfXiy9MenBdYwuuRWnDtcACStIhTt9DhGENyLujkowjLz7TqzqkAEcPNYR6GXsx1Qe/w7FS8GHktSwLez6f3QT1DHfcHLMBnqNCPdzWDndlt0DbzzrAaHMxUackM5lqbIJaGvFk/oXQl1b03JMvzL72+lZrcodemetwxm+pdojrFz4erF0n6rSDQNaAje3+WFLRk0zxoiQQXXBMEaugSen2L3SefWW9PbPM9prv3ZDOZS2mTr8wefoFK7pGlxBV4lyZWarcOx4uEdtIZXMwefxnDD01WrC6v/nhu257vUAQjWnVGXOmbAabPfF4MT1vkko4UiLxpoSZKpFEaSmSCAGAaUgSZbPW1Nz00M5pEAAAIABJREFU0ZObKiqO1ty/tSy0B9tr5z+kVQa1WGs3xWhgCLYfaAfPTtxb3svFjWw4RCWNX7JEOdl7+oWpJ55bN187H8UzMBMLLR1Mhd3rb/3SVq4iVJHwiw7ctPN/kHcztq+MjaHe3jHeDE3SFhVGqnijh7js64DBxfKmhDC9dsMXdISAsTSWUCTOPSCzVGsUwn1RGw0jvf1FmoaReIHEUDSZSG47WFxQLN3osPzRXV9N80JS/08L1Z2gXo5xbmIymiu/t5PeZyMQCZ4UfjNyNQrAVGiOZUd9b/blb/njT6yZC+KMRia5pgCFqutv6dJVq3YJjcGMj/rWvopmw8DboSM+RmlEbs4VinLmzKuHXv+T1X2PLU0sLM8ek9OvHv79f+H2HQE9xJnBqMpE4jzahzQC9QBAaEB0JyupZgHV7rWzb7eqbbHQMHoGKH0tXg4e1k5XNZjWarXGv6jVamV+kf9n8S9qWG1Q1aCdnjuwsEsXpAAyVWahtFp2NxY/fBvVDkJNmhDO4MRoFuc54NEsekl7mFMpYbg9E5iY95zZP//CK1tFt/IthRAUpQAe2kPtrl+99vMfSNi2MLBMCUZIOd6aje1ubOzA3SNmiE5VNvRL8l5Gx50yIZ8meHVYaSi7LJoMvUmiLyLp/VFH4W3eyS9Am2H0CFGLM3qieA1RSpgqgtOie8uae7jl5MkX3YgWY4DeLXf66c2Y4FDjS7WGW7zZD5bBdPZ9ZzosXna8ly/YMp/XGi9Rwsgxl35DhEayCBS6lnXmjrz87Y8vfdTfXCrMGUIklQTmrW5rXd1Y4aCvnWGnekQ39ZW1SCwxj6ysbI1PSqO4lq6DLo/8/j9fOPPi6sUL3anpzrGTmJiBtCm+oWKBLI97hPczykrnOSUOjDRMwoA3FnV1sadViVgPLfY5F+qwf9/c9MF58QHcBSowK9ssU2LWxPCPqEIMKfScAUWYO3IgzM2E5SvR3REj1LxqKXV9YwVL13h02qyVR8nnUFzcf0uI1JpC1TGCOPqUnbl259Qzk08+u/LGj0vnxBTJt6HeBp1qa/P9twbPfq04fISmMbNemvzHPPzY7sLGUG+PGBFr1xrBHHhnOd5NTJv8eQQVFJomhUviADjy12Ki48ahMSIkauzzZhW5g90CJdMNkWYWAVPOk6rI+fnyTedFEjmjxJAXiWInuwWKfsaFcnRFiTXVG4bQciEly02UvSNmJhBANeG8R71sxMcPoaoy1aTLddBycB8IQrwWndZjp3VqvtpaVam8Jo2gUYlQWNi8vjStVTwcNCVdxp2e2pdhvdyLRmafWwyfTSnoUkx0fHgwJ0VXQ8HDT84fOw2DqtCVSZUbB/tozelH+hSYu8cIdtVYJ8IQRHTto/dk7XrHgmgdNSCxFKOz4Kvt5R/+7c6vf6WusKEPYURJl/0VDejLUC8K7tTpoL11o6x2PEL81EiogujQtm6s3Dj/wezRU6o1RGLzZzL+wWv1PrXRyEzuAhgqqmOPKGT24OSZF69+9M7u7nWRqlCjikGdhRmnlxYv3Hj3Nwf2z1k9oCksbjVpauMRObbPtDHU20tmzNVxkqWYCW122dZkMo3z8E2k3FAqlnwHwM1rRrO03xR+cf8mktEDNkjCjKQmfXecjiUGjqTFJIWcilhS6BGmjHmzJIPXLJD5bFYvvYj+4ugzTlOwMW6jGd09Q6yXBWwkSPkSIJ4mOYUw+ZUB5DwXia81M4MIXWHtidkjj1VXzyn7sTIeDIQ5U0/0tzbNTCLc57BH3FmaOV5V7t1iQ8ZebIgclzVDUNMnkW73cLHGtLAgIM0oBVIZBub++Ii3GnFMpMTexhT0paY1tLp+/mPbXG1JSFEkcWbS4EXCxpL+atkQFQXZ/5igXU7wntCPItZGizGnKsbIEWqwWqhlFi9En4CYtQjbXtu88NFsfxvtdiN2VVWR7Lh9RA0XcV1UyOTx23zmKKJVNf3kC9eP/2L1nZ+WLJyZUAlKgLP+pPObb/5i9rHjgtohWC5/TFIfzQ2NbS/ZGOrtEUtQREZC68nMelki7z5RVc/b/g4PMbJ+Nwjm/kKZW85yx1PE1TAL8ByHyC1/wVL9pHSpSBVBDEMH7t1dTc77bIndAnMOGkunSWQoo5Im+p5jEB1GYNZ9RnujLNpnHZ+ZD5AUWth8k0O6NvcPoZSTBw9eExfUeVTp1iJwhYpkZiARSLdeT3O0LwHG3ZOWg2QTTY1ReIOGbTKLOCBpBjKcyzxg9I0OQ6a+HKzeMNQh3VaAVri+6NaWndVOFUM9X9xZVT2ErvMmBgvGuLNDyrgCMarRxMRIZYpEMwYx0lGzpJZQqlE1It8kewSooUtXLV2pl6+5Y3OmyszBP/KuG4dd2lKlwjdpWCXXixScOrD/hW9cvPzRzsailxoaBCDUGSYkbF8933/nN739+z0CrWnbsf92bJ9t47CMPWJRkmK5vGKcGnIoAS3GWGTEFhcLwLJg/5a/jZ765vCI4dJ+u7/1i9joWZoXefLNTg0QSiONUpuCMvQuMy2VYsZQWaz0lWrApbxiMXMMklt7eKI7NWOmEJjj2JpwEI5ksTMMfWaWyNQkurpPy8YdG38UUX3iXQyjCdOLBkynHzJ6+mNXEDhXTs5UUgRxBonxn6m4EsxivrMveDNj+2Qjm+BokJT4pHK0AjOMA4QiZjF1eWRaYalDxwqxKjbsj18KYx4R8cpUaWH9wofbVy92nVBNmoQwIIwuElUaWNcSalfXPr4IwWktNnBa+xAYKlcPfKgYatGBD7ULNXXgtXYhSKhodfR7qwLQWGWONNF6Qmz32uX1S+cBJTTK+JrQ10faVEDaMsWLsUSMZm2iuFKlNfnc11qPP70prUp8dHAQcLCi6s+g3n37t2HxcicEr0pkceQjva+x7QkbQ709YgRyktIYPRCJAJqweauR5TXiM2sgXzxGpP5yCEIkd5LUhg1ceHB+29EX6VYsuiEYy3LQ6HzZLruhCXpIqISEUauwsZmJpvi7qPKLN5bX0k+5haHfK+GcWD3YUs4G0mgmBhjN+YKUhCABNAkNrRHZfJHsDcn1la93CO9uQZN3ehAp5ZiZqaqNWMYB2fkcO4Y4pQtkSPL4plRpSoo2DHzO9NPoUxMREbnvveIfm6V2tRRIE1t8lMfN4bgY6RHG4eYl0UFD5+nnOPv9s1vHsiVQyv7O9oVzYe16K8a9pu1T/C/ivo2JtE/bq4RsLe+lYtaVlDE+TRCW8S+gkPh2ItmHURcgTUsL3NnQxYvcXjcNqa2tEXo8esvDnDePdxiERYly4tjXvr3dmd6VMohj3JUanNU9G2Dlcn32nW4YOAuOqTW/FHc1ti+3jR24e8Ti9o+jEbhxrtCs22FmqxJjhTvE6vHWl7zDJw/H0lJhKfyBZkqDwZVlb3pmUxs/b9QqqcBEgw52nQZt0lNZdhxh6Nu6hRsbPak1eUyjjlxr296E1g1TQjK6VYJicnpWitIgUUxoIrGK7dBZmlvtnhvPhtXkmgvGzXxngwAsP/bmpAbjbegZac4XICTySDWynSmLDUmjEhJ1Y0xJayK6jasnNJU7voVZbB7ZfaEzP71pHuTBH6XFVjMzoajFRNySY4ziF6imIHJ8t9wumjQziZ3xs57CLWK+BwcHUqBD6pam6zds8eqEqAs1EXOvSKTcFWJCJG1xdNBaKtYYI4KQZwRklr6JzbDYudObRiXhTEnVMBw+Akqoe1JsX/igXlt03WkzFRJMkf65bdK1f6a4N32dt/3oli/ci2X5IvOLtHukQcXBt4ujp+aeOLP+xo9bHDgzMQXhAdF6gmZXL7QMzjQLjO/t7GP7x2ljqLdHLO7ehuQSCIlp0G5JB2fDCSy+jPG6buTDm7+Hu53x7rs1G9sk1QGMHnECh0uIQwHGddEQ6s0b12fijl4idSlNUjnTm0ASRiRrQ4YszrOJH1BoHTY2vIYUBJmJlgSFfEFXKiVFbqjlYL5YKJaaMjnfY+Nlqc4tqC4t8BFuqt5y8Rw5Q1Lxj3whZ36JKi7hyFlSu1pAUFItNqZBYUYGmEbyxBgljA3ZcEdg9+BZvTuyL3anN/ekkQBCfFiZjI6eXGsQ/C2E7u186qc/hTSmH/CIzj0kYVYzM5qYbq1cvX7hwwXChTpJCMwUqMVX8BWljpkdIXGcIW42orM6BsBDY9ZpozIVckwJhRKZnmriahFCB+qlljgkVeMA7QovXTw/v3ilt/+ktVqREIzNdq8h+8Ov3PKjkc54r970kXC5/JDSM4tbqwK9ubmXv7X83luDftVSo9aEwuBoVFWDSG6SBmmPbWyfamOot0cszyYqYB0pLNDMRIwaM8XtLVNVoagZVLMaHSRYlMVEr0ZQ0A1lTBQIwmD9+vKMqsWcIMNo5Dh1DmfQ2+iuBrsgSckJqJpWS5fOST2gKVOlKovEWQ0UE5Pmi7gmETTVxveSmdR7xXhJNBTxJkFAiQBTMxh9vEKMrPRpZTIMN+/5zAnI3QQZSQIpbFHz5kARKlT9FgJNxZLbObpvla43PUvvkR8BRrT/j8Jd21DUo8Y7vblH7aZuM+rAvQMJPQK4Rz/99OeS6EPe1F4PUtzXeJoDdrf02kVub5YMNIUmHayK67tip5zY6UzXzisASOKnzUCJe1YxUcKokmS7SqOAgQYzFze3UIEojFa368Fga20qbBdhIJk8FGqpdcv61eWLeGKLZVepAockj7ulqe4Dq3fvvBqTQq/ZsKVrUBrhPKwoDz2278xLqz/7m7aUYoFKS/HIKgKmnV2mg8c2ts+yMdTbO5ZcF80+UMnkmhude0a2oPHlqBzzy+XAzYxTDC0WVSEFrZZNTVZ0oJgaNHm4xEzqemflGnfWrOyalVHcbhK9u0iqsxzUZjmm4aZlMmUmiXNkLbuba5cvTNX9IvpzswO3pvSN2ptk2UohfLCmNmyzWjQtezeNN7yS9E/Q1EKfEigGwEINejof6cmM9nK4MGI+GonuP0lhK7fp+UjCImPnNPUNs2pz6WppwalGLzGFJAOlEk5NTFEKTWU3NHu4h9f8RZ7yvZvdVC0+39VXBuqRBFzTqKO++9th320blU8EhaOWdj8Ppo7CbW59AqQpRBmCbq2vf/RezwWGKm6fAABSw237zsyL31z42rfgW4AALouOUzL4dLREcQqQC36nd6IvQ4f3phX6m1f+5r9uffT2FIMgJGYU5sJgwvuVj9+bfO11NzEH+oyozCBkGOlm9wL1mm3IzT/6XO1spACaYvubuP74mZScnp9+5mvr772xtbVYqJCKtLeN+VKdRWIUOq6NNra7sTHU2zuWdMqZ1EklwUG7aRW8zYHb+Ghx0xT1iBy4Ny0VcbZqHLgUwFm7F7pTldFEjMyBpCYW2gxhe6tevOqmD5pFRZobzpA56qQBeaPrKLKrIyEkGDT0L3zU3rrRQqDVNIvYTSmgC/A2OWWtdvT5AohKIgDM+f1Hk/rf3ni3LIrDBVvVACGs3mHY3fzwraVzH/iyPPzUs+7AMdM2XctMmgUwPscoZGde/czMTBOXmUi6LDTMa4/BCFUN0t++9sE7s6HyqpKLNZgiODdg6bvT5gpasJQyMDrckkMZD8NpO2pfcQeupegEACky944A7o5+87tk9YYO3NE379MzbK5Ec8DEcNTpIKwt3Tj34QGEWKrVzEgxSMVi3XUPPf+qHXvGig4JmKQZDbhtmmpEdfFFcycyZLMBswF3N2aeunzlwketuvbByBSiJKJt1NevXsDass0tUAoFYEKhZanDnfyyn3TPn/A32+dq2+ZAMjJzEYhSYWcsu6fPzDz/yo0f/GVPWjSVtEONEWyZGPyqbIHG9qBtDPX2kqXcH9lbyzsxILexerztw1u/d+u3HqQNl4rGgRuRVOLOKJT29Fw5M7e7dqULChUKCoTahW2sXlv58N2Dp55VBnHOoIyOHSafpTCXN7vZh4uI2EwJgrXVu1JtX3v7jbC20mGgBRJqsfISd42t2flyapaQiKwYqxilJbmhCPPS+6l3ms+eAShIBK0GEraXfvmji9//8/7SFSn86hs/eeL3/ln3yeetmGTRBoQxhFFgahTJdGAMnQiNE5mxsm2EtkAiDFRBM61Zb4dLH7m1lZYFD0sp9EyMoq7YhnB+H4tW4k5NSB3N8vooWL3bV6+vGKuH0Ua9SwB3D6cAcBurd78YvpvI6cjMR/oNAfVO/9JHxWCz1MobYq1lpdWQvpRh+qDNH5X2NKQECBNIVqgha+nyi3iqtLPKwDjfXezjMNYE/eGTG64zqbutUBWwHOihXqtWtbX98XsTR580lnRlZs7U4JjUfnfXqZqpcnS2/AJavTscNIM3KIViCBCnrYnpZ1/efPetjaVzM84zDAjQJDnn87zyldgBje2B2zjZyl4y5slv+O+9Zg3iAZImLMrXmpwmpjYxt7+7/9Cmwejy7A0qSoT2YGf37Fu4eoFaRWlLrvMVdeHpIOQQ6ZlpEq5FsTcNoaINdj98a/eDNyd14LVmIklB0JzfVpk4cKQ7PRu3zU0BNia5T8MwfdosO0ouNtyepoBjJQa7H7977e/+v4nr50+V/RO22b747sf/6f/YffOn7K/aYAuoQQVCzBnWHCfTP0K6yE/kd4B845a0gGr1LrZWL/3079u7ayVrWGjk7irsKybmDxaz+835yCMOk86MuA4fWF+4ozEHEt3Ull8ZVu8hWAIRX1RPdmfLvTqK65DzWpppQNVfPPtON/R9iOLXSD9LLX4T7tDpZ6Q7ZSxBT3iKIxzhCYfbXsSPAEc4g0d+DTgDATEQcCZt2Xeod/DIgD6ldYGQFNKDZV1fevu33N021Rg+RSNT4b9GyngX7dKM9U8Y95/PgXvLQRNFF5OumNAVoG8ff7L9xNPbvt1v0oZG2p0Btvf02WN7hDaGemN7qDZCbiUBTkwMYgaBgaImnN7H2QM75oPzmhR4JmYuhCln/Qtnl3/zP6TaMK2MoRH0cBSamKmqajM3Z3cH1KwyHXBz+frPfuBXr06IiQYilhAXJSvnt+Hc/gVO7zclEH3Emv2kn+zI+YQ7jeG06doYkx4q+zvLb/zcFs/vx2Bie31yd/1g2J5eu/ref/p3O7/8gexet2rHEJAiMhIyRq7Da5ZexPPEd8wQQrxrNQta7Yrt3Pj1j7c/eLtnA6f9lNGCgInRbQSdf+yJcmYOcCQ1u5dVNYRwC0h9WPYVd+A+BHsoDlyk9CVx26PGUPHG8tbli22rCw1RfBAJ58oVW+I7R0+w3TMSSHUPPxMjjW6WmvtC/i1BiJeJuQNPPrOlhDgjVQwGqDoLba2wvmrXF4kq75MSA5ncoMA9s3p3/BEB3Os4IZICJKlyMMysk8lO39ayd/jlb1ezB3akCK7IQtpx1O3Y7tnGUG/PmOW57ysyyi27HiyTbXEFgbPO5OSxU25yrp+S7Wc204IP/WlUyz/7+803fiKDTasHBjULUcTS4JKswgaTAibSfmoIVm3L7vXFH/7V2tu/nGHtQj/mnouOKBXZVZGZA5MnTlnRBZ0hl3GPwAu4ywfQEGNkzCCbilmZQWi2sRpWVyYsFKF2DCVCWwfTYXvfztIHf/F/b//yh7J7QxtuL2aBMRDxYM1RFcMkzFH7ZaTS1AbbCDvVB2+u/PD7k7vrPa194llgMCVrVwxaPR4+gd4s4NBk3r/N7v+j/zTbUw7cL+VIbBy4t795Hw6eoV6KbrJgUCAwVP2L5zqDjcKCZCdr1M31jZ19C8X+I3AlRMyoNBsZmp/0P8Yw9Vs6oSEreAVw6EzK4cd2pVOxyLk4CRhN26iLrfXVj98j1KwGNU4Bzc7oPjVJbpjP8Zv8d4ghLd8yhHCUgkeOTzxxZkt6AymMAgpjtUOO1+6x3YONu8seMcusFb6MS97d2xAAiQyJLotp9WFmdM5MZp5+3vYf2VCqlBCJCAZEoaGnu93N61f++j/33/yphE0bbFEHZnV01GaxGkgxMJbUNFMiIOzYYEN2biz/3V9e/4e/mgtbnbrvEksGUhSsxW+YyKFjE489ZfSka9Q0TTTGXT6A5k5jqQmShEn2t2oI1IFonRLbqToNRejPhN3Z7Rvn/uo/rf3wL9z6FVbrqLZodQ7Bs4z5G4G2ZaV/IE2o0MoGm6Jb9v6vzv/5/+OXzk+jlroSNMU0GJxbV3YXTkwdO2X0RoEJhxJHPrryGJnV2xMs3pd4JA4vzW57cY92uxQhF5/IyEMrq3eunH1bdrYLC5KVBqAoZVNt5sTjxcyc0UWthiTdBfgpQC+FD92637A4mmOFF5LOlXP7ugcP75gYnVmWIZiVpm538/q5Dyz0zWLadUrOlM77/PA+D/vdbBwbyUKMT8sVQmiuBdc98sq3q6m5XWkFSE6y+Qj49rHtaRuHZewRY1rhI++/d20UQDBHmAigMak9AKO5wqb3TZx65sblD3fqG1QUFCLQzAFFGMySa9cvffzn/35+ZXHfy99Gb45lB64wRHlf3GMHglBlnEjrXRls6uKFSz/82403fzbf3+yGXae1S6n0YrQvt1FUvZkDz75kvRmIIyXmfaAMozHucoUfOm2z3i8m0kNMAV0U6oraJYAbBTqelHow6ynby4vf/y83Lnx8+NXvFMefQmcGRQciKW7RDOJgBIIBgCb3rVXQmv1NrC9f+/mPtn75D8Xq5TlX+aoviMUwzCgBbuBaa2jPnXyqOHBMVeiEoFlOLDPysOzh51tJtT0eWlD4F7DRkfilWnmb6AaDSeP6/JwHux30p5Cg6BGFQmuuLVeLFzt13yESb7S09yoGbMnCMZucNjqJYzNlGPmMK7ppBJGW62lAU1KVmOalnJmfPv742qX3e95LVfnIGFKchdJqW73OxWtcmDSniQHPmSPvqREs70I+87I/xzFHVCYRyCkYE0jRijYOnVj4+rev/NV/7LrCWR1Fh4qkbx7b2O7GxlBvr9keH96j03ezlkf1jLLxXxRAcejlb6y9/5uNi9slK7GaJtGVK0ARBjMOsnpx5a//w+Z7bx1++Zvu6OMyMcWyjaKMfqK03IUKg13rb9cb1zfe+PnVN35arl3bX/e7oXJaSVQMRqcmUUu5gZYcenz2mZdMOpTCLBeXs6wRSpPzZ8/2owtkyiBoABWkQmRy1u8/vPaOr50WdR9wcdV0AOr+tNOyr+tv/+yji2c7R08dfP41OXzC9aZYdlG2QQeNYqkkTAQU1a7tburmWv+jdy//7Ed69fxEvTmJ2tcDB2VGtEpR8TfU+eNPHnjt9eA74soc+fJIymPc3nAayz3xlpXwS97xSTNN/fkRDFJr/hNFaU1vbVRpn3vqGB2zSBsAkICmjN0UWzv/ITdudBkkaNahmVG2TVrzB7sHDlNaoLPUaeOA+oyBdNMIaopzRJlCRmtmwu40Dx7t+04FLaLeI80u1vZYX76y8sE7c4dOmBagRBhoqvfas+/M5w+55/sYPp0eWFTpKj3bExNnvuZ++4uNy2e9eNEACzkTgNr9kmGO7SttY6i3R8ySVyNFWn7Jl71PtlsZgux9BIBY6gwAaa6UuUOPffcP3/0PV9t9Zb3jrRIDzAQmCrH+jFTtqtr5+I2PLp616bnZI4915/bLzIxOTMH5SIG6rS27sby5eGnlw/dbO2vT9c6EhVYYuLgqR9csoGQl5YYrd6cOPP0Hf4LJfea9wNnIujZ6E/d81/EPNWmMxJtvL7z8rc1z7y6ff/ugb5X1wFuMszBngjBwqEtUO2u7O5s3zr7/W0zOzR871Tt0FDNzmJwqyxYgkJgfsK52tmR1afvKheUP3+P6ymS929VBWwc+BLLJzSMK1OI2itZWa27h699x+46alEamkhxqIvLouTQaqNSUDyMpuswe9WXdyUYvKeErRa4s97AvZTT8PJ8+MmiZjhpurO7pKTdQz7Iw1GLMRZSxqooO1i+ds/XrbapYoEHFSGfebwa2Dx7p7F9QhTgXf0DmPCt3f3tkrAtso7kezUhv8NOHj28eOtq/9G63GdJQGluAbK/vXDnPastcSSlinnCKIEfX32Vb3JnVI0YlwsPv3d3xshcb+XWjWG66E4SFibp9CweefeXKlfM9geiml9z+Ng7RGNtd2Rjq7RGLDtwmfWguCrZ3B3maEkdk3iQtZkUB4QpDt3zqxdlXPl758d9IgV5lQC0g1EhzZlRz1LaFCe1Xy+u7Sxeu0fdFajCQCoqFEmxp1bLqEFFa7TV405gJoiEXAhjEbRbtZekd/ubvy7EnregCPqPQSHR9QQgUUTpjMi9S1JVy+PiB7/yTS2urq+tXZzxRDwRB0sM1p+hYVZI9C9Nhp76+ubty6ZIUO0p0OhPTs5YxmobB9o1Vr1XP6n1WtRG8qrMgKcDZADGFkhW57dvX2Nn/yrfnXvymSlt8C3nJQ/aqPwobcndmKS94Wlwt5dce6e5ful6fLi0pxR5RlRFmcYdZrJbd8MnNWAPS2/dGaI2KLpq/ZkaBKbXS5Wu4dqVtwcXtCjUq6QbwfVcU8wcwNQe6yB3fkTy+y8vI6ZMCwJhyheLU+eLgYc7t3z7/7qz3piYMkVV0Wk2QYeWKri5yYdZSqqNIdeZBfXfVgkcpZje8pnRZWcZ4U+G1T+2m8SmkZ9Hg03wtma0TMTWjsDXZffr58u1fbVx6ryXegkoq280czvzlGxVj+zLZGOp92Wx094iROciaLWD2zxgRi7aa7UG37tDVNcR5ubiFgiImBTrTR3/vT8/t7lz+5Q8OF9Kpt4tQ+xh2KjnFsA4Kq81Jly6ICxADzRAkFt8wh9pZcKq04Azxt9Fzq4CKq+i3XGdRerOvfW/u1d+x1hTEEy4D6vuiVzMgV+CFwUSk1Lqee+41b/W5v/yP1fXL8yXLul+qRhoLpgCdwYVQQoLUXco0qsr7uurr4qqZMGqxyHnSIRQ6cBaoKokOSywiDSpSObftu1fRmv+3yVv9AAAYGUlEQVTadxe+96famaYrkj8Lapalko8A7Vmz3sXecBNZhohoY926zKrYEAjGr6Xw4bRoNgW1HuQ1N/gugtOUc5EpzGfUjZt4tIfTuENhHgElqEZYTIqNdFnpxV1qMYehVMNsz4j9SzUIw9qlcxuXzx10ZKUkhVSVIOirlrP79p14wqQkXc5QGTN+Z5hz120StWnMmUnSEWJtie5k69DRzfbEoF4rpU4hvjTRquuLy5fOr1++MHP4SdAMTfnYhtX7xK5yO5N3uwM3SwkjmcoUmJwGfP5Wc6qhg8ByN7WhwybreYFYhjHrKuiMvjz62MTTL65euzAVAjXQNEpaOdKKdnNz3nL9j56wH9ujszHU+/JYs+DdcUgyMhtKJsYjzjMSt3WSdvR5Qcm/+bIPb+ZsUtlJhOSjNpLeXBcT+4790b9yZXvx5z+YDpj0g1LrKLOL6UXEFDSxIGqmlWbdGZrUIQjxuBL9a4yBrAyC2hUD+jWU2919h775u/u+8wfozcO3GYuQUGFyn5ov7dtzcSMahL6j5NTz33yiN3n1b//rlY/enPOuG6oi1IIq8w4GUGC02gyF1SUFlp1nCeuDKX00GZNNp5uPhZZcAKui3HTtJevMvfbdI7//L7W3j75j5hsoGw9E3h3FcZ+NKQYxufdEY4qdGGpJJtg7hN35em+GKaMvH9A9jKyduUyhkRSjmZqknZdQEtuTdmE0M2Hse/d1RFrGLPm/ES4wXk+MRVXSTKLXM0roaFQkaH83e5g7afVikjoDzAY7g+WrYXujcEbCQohKWaNUIKbnOsdPKhwhmfS8GV/eZWPE7hlpLzobqRhLOELmjz++PT23s7ReINWSIYVgyWC7m2HxqvW3rd2WmOclFc7JgOwTGmEU3jWT6k2bahpFzKBNRDyUww1iDldOOY5A4chhIlOtHKnGOwz8ig0VfdZGSqHamn/ulbW3f7V25f15X0ptVKMYFRqDqsx82gZlH/1IEZIHNibGtjdsDPW+PNZMKXFo6mjVMwONDCIqoiZkSHu4mIQjBU5a/ClvO+iX3zJzECcoTRm3nIAtmT5w7J/8y41DRy7/6Ps7S+e71eZ0IUWoqUHSYqcGEppS8MUdvUb0qwKkhVAQmzRA1Lk+3brJVjmFg4899vofdp563trTcB3QR8iRFkOz+xWbMKL6i7hM4FpKdE69cGJmfvFHf7v4xs8mNq5PYLdLcaEWs4TrDRHwmZpHAGLWFRACqMa7jZUu0uJPQAJUKerKTbg1K/tThxdefX3/N35He/N0XdIju6Yz4G7+PExrNihxaaTRKxkQM2OoEoHO4I25fq+hke6NCMgiu+YSjflgWL1m7TcYIBAX4KJgwEcSRw1CJZWsKaCLHTM/mE9EFZ/3egwQQg1qdAYJRqUocx0ZIP4TsfAMmPN5RJ3XvbF6GFKVbLCJbe9sLS6VQoNGjjnQFKzoBtL2Bw7bxBykyPq8PKFpyhJ5l5R5Opflrp+vJPn2Kf7AkXpidmf54gQCWcc+EiFv4YvdtTXs7LIdzyY2in0++eSjVBny69H8ZBbzrkMgTgObJg2QmmJO4rUl3wWH/O7Ijbt8L8krftP5h3yfQAq/78j881+/tnylV60LK0fNYD/WSYzh+Wz03BaLemN48r2yHIztvtsY6n15rBmJzdyShr0ZxITO163ermt1oVAI1SCBLhTtHRPz3pLWOKaJA/YCq3ebxYlNFCoUVQMLemc9N/nK75w+furqT76//s4vN28s99ifKK3UWrQWVVKpUZ+DxNtRaRITLFj0UUJUXBA/kGKj0n7Z030H5579+oFXv4uZA+Y68C3AZ8hD5HSm98s5Hrf4QPLBg2IGSGnecd/JQ//0X8+ffvbiT/7hxsUPV1evTXrtUYt0g5l6y79NyZBNEYvAGzWF0JKgiiik9uWuFOuVDHozrROnn379D91jT5vvUloUP+K+a5xh+f8PzyzVsDcYRcQPxO86X/mWh9YaaKLiQtHaGRQD36ZvqRFCMepIvTiMevQe8OU2allATEo3ObVNV/uWaO3NAAmUyvkd51VKEwc6pAjvxu4jq5fvO3LcRVumZnZXNyekDDaI9G8lRd93t+BMfI5sNhGq3i3Uu7PFCjUKKQu0OzuUULTqMIh5f8wVu1LWvZmjj52mFOZ8ut5876P81V2djYhUf+PET8WcEYGUk6np3pHjO1c+rAfBaRW3VUFcXXQ2g5+cmGW7q0ZGWk/MIHYvAKj5ZgT68a9Q4Iratyhl5QYScwrSghShaG8GsaJN8anNSVUTkZE7wi2vb38Wmb8USqlld/7lby2dfXfp7G8WSimqHdEAWABr5/vSEt8CPUk1SO4ZN4+NPbgmjO1+2BjqfXlslM9zSO4gwoxiRpN2b+bUmfMfvgPaTGG02oC+L68OgMOH/IEF0mve1Rk0JdgdIfD3iGWHohkpCck4gRR2qFz44wPzz7549c1f98+/v371YqfemnBF6YMPNRm/mhTpSqHRQRQwipGVuF2TdXWV73YePznxxDMLz7+CfUes1YW0SZ/hHaNacChn/8K3lA+UnMrpSaf7dHAezpvz/vRLjx1/YuuDt1fe+uXmx2evL1+ZJCacLxi8afQK0WIFTKHEjIFJ1mOItwwVp1LsAKuBdTHVeeKZg2demj3zEnqzWvTEF2ZiJslpLiNFmR7BOsDMmhohxmLm8acXf/Fj7Gzv9yithrH2xdUKYXp+6vGnrewAQkgWKY0STtF5nQ/7oBy4RoiZQghSynZ57PH+xOzK5mCu1Q2hhmEg7gaLTddrHT5O31IQJDQOzfjM7h/USyX7BCKg+Km5Iy994/xfX/PSmZTSWajJLfirQQ48/aLrTVsuoNxQ1XeP80bDb8kkA1QSnYl9z754/f03r924vL/otqRGCLUvN6S71ZluHX3MpMj+dgOEIqaa96J3S8BaDoaPXtBI4ZLCeCh6c635p55781c/7dV9loRWpNuV4lpFWTgxeeYla3Wi1zk7kK1RfH6mA3f049gHoqPWIK43PfvkmXMfv9diOVHShQC6vvirles9dor7Dpu4pEKwIW+XZ4Lh3SFTfbdcgpnmhJpA0bapA0/+yb/+6M/q8x/89mCr17aaqrXIGorrWjxx5CTLdsayiLtfJl6wuYs9sxKM7T6a+7f/9t8+6msYW2MjHoXofox72SgzI7vT0+XE1I2tweLW7qb4FZTr3dnZ575x4nt/XC4ch+9QSqbtdlZRN1Fee8fMTHIu33wPJB3Fmyv87MHpJ89MHTnh5w7I5MxaxZXtahtul+WOFH1pDVy564sdafVduSXllpRrUqywteK7evDE5DNfm/76dxe+/QeTL3zDJuZR9ODapDdIkgM1KpockfrF0U96rolDQwomHPkDkOLhCvNl68Dh6Sef6R46Vuw7pK3etc3+esCOa/XF77pi4IrKFZUUlfiB85XzAyl3XdH35ZYrN1iusb1orZ3ZA7PPvTr7je8dfv2fdp58QVtTKLp0LZiYCBDztESMFcGIPYqewty9SYOptqdnuhOTO0EXN7ZuBFmT1pJ0Wyefefx7fzx5+nlzHbqCJoSxqUGSOroxuywfaFjGkPIlAbpOe3p2dm1tY3Fjewt+DeUS23L41LHv/fHUM19Da5J06ctJqMX72cbEsL9S4HxvZrbV7m4MwpXNwSr8qmu7I6f2vfLdk7/zh5jYZ1KQjcfwHvynGOXhRpS1sZVb09NTBw7tDMLS+sZGhS1pr7nWsp98/Hf/tPfkc1a0RcqkWky8nN3zBeTemUdLYuQYe67QRIpet7+5eeXa4pZyncUKy83e3OyL3zr+u3/SPfmUSRviAZHk/ZAUPPvJpx8Na8DNbtwkBYTBu+7MdFGWN7Z3l7cHG2wva7E5MT/73Ncf/4N/LvOHzbUpLgYfizQZoSVvZRk3t01rjKK9+H0ByBS6Dwh7E7PHTlZSLG/trPR1TdrLbGHhsSOv/9H8819ndwb0jKReROZpdNxjdpmxfbXs4ed/GtvdWBTqhYT4ojZXa4Y+6t3+4sXB9UVurpvznNs/sf8IJmbMtc05mIu4ME8le3JI39InmVJqMRaHoJrawFmNehebN3bXr1fXl9zq4s7KytryYtXf3rixRmh01kxNz/iyM3PgYGt+v+4/0JreV07NY2LWpDT+/+1dWW8bORL+ipR8xIOZdY7xzAbIQ4B52v//a/ZlgR0g18aTZBIfkpq1D3WQ3ZJi2ZYsWakPhqGj1c2jWPxYVSyOKGVQlqirQmAUYkqUCkra0JmBEpUjTnpjfpY4R+xzBd2MyzShw/SqfHp/cf6Bzt9N3r358r93f314W66vRjxLjMTFYn+SRIbx+PDFy1c/v/gtv/g9vfj9yfMz/PSM0wjpgNIYSJKkuibjEg8cSM4r2cYxiQyAJfE/FwZTN6Ey7f56e/nxDX/5RF1Xfjk9eXaWT3/l8QnyoZ2qNcx1eC9f5O3LjAIk5jJDN6Xpt+n5m8u3/80X31C4HB0f/vPVwfOXGJ+UfJBS5lJAmSTH8rqOLrUgLQsAYyIUnqXZNaYX049vL798AgolHPx0evjsjMdPOB9QOgAyzLJ4q0YbbM5wEDqeXRNP+NO7b+//xPu3078/z0CHr/74+Y9/8eHPGB3JIcviryfbSHLbAsy3AFt0MjMTdZh8w7fzr//5N/19TkA5GKfTX0/OXuHJPziNMTqyiDlprwTmRHSj3BcbHlyHClu4X2HMqLvC1dfrD28nnz/S1y88OkpPT0+e/4bjpzw+Rh4TEhrKOF/xlur12tbcAJqvUc8VmlDX4fLzxYc/u0/ndH3BxyeHT88Ozl5idMj5mNLIchempvjyYlsjPbBlBNXbHfTXkIWQ2BWMhmax5klH16FMkRLyiDkBCZSZSDfnQ0c0iaPrkY/uRg8Wp0ngAp6JdxuzKa4vcH1VppeYTcpsJls2kVLKGaOjdHCEw2McHYMyI4GzOLy8UVTJ3tKptDp6s4VPmXoKUt1DqY5YFGIwOnBHoqMnV7j8ytcX3eQas+vZ1y/Ty6tEKHLmLxGQDn45TUcn6egoHZzgyQlGRwyAR8gJyJJJN/XnG2zRc1vh+XbAXIgKipxl3KGbgQmjDGiskvcXN/PiA5I8aE62qjMLAPCUuAMKJhMwYzxGGjFnpBHqucmtz259DtzClIiLeyILwCidnAoBAJJIhwEaISXiXJhTotZjeAeqV1/oJqoCnhE6oMPkCpNr5IzDE04HSCOSMCFqQt1u3wKtclSyBg/z8AE0Q5mBZ5heAYyUMT5iTmCiPAYsVbiat8S7mVn3wK70aNQKKNMkFOYZSkcJ4A7TCXLGaMwFjFFKIx/bssa6XStIzF3RXUBWBkaZAYUSoxTMpkgjpMRMSJloxLIuTuJkj1i9ABBUb3fR7v5SGz/58k54HABZ6olzoHKU4W8f2eieT+7gH6rKdV0LjVIDAHTNNGoVZkD2pvkB7aLukapDA/BJuLfyXl+zWdpWfWT/zkYsGU2vE1MhpblSu2L7QyQviWfRhmnzDBJBIZtXCe4n4l6q2F2VCClU0Y0PnjVGduOaKK+a9HYDJQPQz1+h8sLcmXTBcvQIgUqbaulKQKwgGvIhpzcUTZ+DTqIbrc3slAjciyXbCPW4Qw0CNL3E+iD1cYKQ3Zw9GNr3oemNH1kOjS2e7VBrrytdyDKHNGBOxQzADR20iOVJfmpNrqItL4y/p5ZVIZM1jD5E655WtOoNVLrHF1rOZiJfl7qZ1s73MUWymKkGfjAE1dtNDMYnXM34dAhTaabV3GpQNyLuTSqlavnRCbUj9XcmltW5J5OuZACmiKVxLEWzu7yqPc0W+5aBd7Pa0PqWfbotliWHNWWKb4llYnjWu1YemJp7FeepBIgNUWd31pmsECemYrZLl5UqKTtg1WsNN+3hGAWUQMWIcgIXmyzxsFa9uTKbtJHmUFOYmLHN1usvZxE2JRvNWa1UydqNE6irvJRzFbu77tLqW/WcYBYgKyMXDzXAJk4EJZ2oXJN8XXUf9tHoR7bBREq5bLcuNPLFxV57TKiaakq6+dEDUk2Sb1xdorkVWqDY1bI9Tmyu4KQeGrgDdZU6i+6q2qxZ5ngT+jfw4EWbBbRIuFt3B/YMQfV2FcPFGDfmDF/CG2eoBKdv1dPf7tNgnxNXrjNP/W/7Uo39UrME54UasP4UgE9K67bqmZ7v+4gX97X/blDY1iZBjWToHEBuCPPdyL3WAXZXIr7TNe6C2rJVr/Rkw4cg1R7sWVOGdVlzgcqc5AiXqgTTFjhaNOI5P+xdQ+WM7goBsozl/fI9lA7i3sLNmZwZwHQ0tVpg0FtLbtsoBfKubi30ThutmgNiaK9AnidVFNZqzbFIM3j2PkD2X4Mo9eYB46SNHHKTqHUnh35gw4hkK7sKqv/ZLAfQOU80CubGtI1y6mtd7MPQdqOEvK0aS80EDU0Tqic6li1K0cJ56pq46kQzCqgGXz8farb18gJySk3ZvEtrfgmbuSxtsFdSqubC0NoqfAJqtjDYrxe34zbRL1RDVKpk2w5CaD89cJlb4uYF837spc1rV17KxTfAelw/OANNABHkWAxvTRM0N3O3SWrk+7lqrVI0BhMlhp0m3dCgnlJqS9ysSbwOt+E9vcf3yZpSbQIAKRXZ9mCgPQKmDoT6wOVP7q//XBShzmHSIzfEdid8q95V40+REpUCsFVdBadJqL5CJeFCpcOY0MqdEj99rN5X8jqZ1VOKvNHd6YEdRlC9RwAjCmLIydRssrDpR8dwARPygg2Kjx9uPxnQtLqobhU4+SSWjUKh6vR6vX1O9dVmGLIXIPc/+c6aW0upcUjoiLi5xgPJqdJVmQ2oaRlNE2js0u7d81vtgKAMugfwDkFlrWyT4zbk25s7o+eXJe8l9FuySteQWWAtTT7gnlUc7Dv3+slywOnO8Nkr857hr1qrla9E2ijGRTylKUqxjr0P1WMZUUK1SMPlksULMgpBwiNyy75XRZ9Py4+TrqbFQ5tgb7RyvX6x0UeJOKk9TqyCtT1Wrm3vvYRCFnD2dZCH7Nnlxv7QEZJtgkbwvB8TQfUeASwuQ2cPn+YafVdnx2bm2StUUtarKXpasE5btvSta/++FvZJyibtuiRubrgBqrfoEyVkTRV7s6VlwBM7BdWcf6g/aMhqS2n70lDtJztq1VPUTrPZSd74/Pjw8j2YwaU8A7q9zHC3Wavegs/7ve5WxsXPHhrIVi1aI1v6rzcgFwh8uzkJvf68dWsM727pKn2504gMLRoat3kMtGF6Q4cqW6PBlRgIBJndXfk39RjvHeANrIGHsKr3m4WgkwVxU8z9swIEVsGjzcDxI0EzKSOx5mci+1z/s5l2CGnfqV49GHhBHWuLiMeF7Q+qqgeXFf+q81dcPTb1F/dG01e9exvVQwbL6RfkX9p14sRNzNm8MbToVoue2jSDvq11X38l74yFhaovvGFS5cNbKSGgB5RAWrXYt99t1Q02+UKxmn8x/3Z4i2LRnysXrRmQzvq+3znNEOtEiOmu/dlqAwDMclKOhXK0fBzZrrq90PSbV4aPqg0/j1dGJ/XbTUWkqIgw68ZkYqTOAjZuauplOqNSec0CDYCI5hSjUj0gs+5qkk92YMAHHhxh1XsEaCK90FqefGB7wBB00bbHDlzFYvvDYPVOrbOieV0bzhf/mYYX1QvXgQVGDgBws2ItD3sp7DfmvySvCC+61c1PHQjNTb9+OHynUG6agDXSmsxidykh+p7SnrkUS1t1g02+TKzmXyx9trxPy75eimZAqnoyyV3WOW5+JmRYf/Kd+nNgimwt3fZiHbbUfs+5l16HI+nCbIE3Vi9N9W1V4dmKc5MrdancMGAO87pLwwpZ61kfSU3PhAP3x0TswA0EAoFAIBDYW4QD9xFgmQdmqYE/ILi54QZuW2ynCZd0ZFtM4E5l/I5Tb5eE5kY/5NYL28rOsDtwQ6tuucmXjYLVvl5rQXywzQdV3PPO+n8jdbCbugOX+cYHrWPgrUNudnK4B7aAsOoFAoFAIBAI7C3CqhcIBAKBQCCwtwiqFwgEAoFAILC3CKoXCAQCgUAgsLcIqhcIBAKBQCCwtwiqFwgEAoFAILC3CKoXCAQCgUAgsLcIqhcIBAKBQCCwtwiqFwgEAoFAILC3CKoXCAQCgUAgsLcIqhcIBAKBQCCwtwiqFwgEAoFAILC3CKoXCAQCgUAgsLeg169fb7sMgUAgEAgEAoGNIKx6gUAgEAgEAnuL/wPCPoHUw8gw5gAAAABJRU5ErkJggg==;" parent="1" vertex="1">
          <mxGeometry x="-1790" y="-2210" width="316" height="190.5" as="geometry" />
        </mxCell>
      </root>
    </mxGraphModel>
  </diagram>
</mxfile>
